ISO-10303-21;
HEADER;
/* Generated by software containing ST-Developer
 * from STEP Tools, Inc. (www.steptools.com) 
 */

FILE_DESCRIPTION(
/* description */ (''),
/* implementation_level */ '2;1');

FILE_NAME(
/* name */ 'Camera-Sensor Gasket.step',
/* time_stamp */ '2026-08-17T19:32:29+05:30',
/* author */ (''),
/* organization */ (''),
/* preprocessor_version */ 'ST-DEVELOPER v20.1',
/* originating_system */ 'Autodesk Translation Framework v15.8.0.0',
/* authorisation */ '');

FILE_SCHEMA (('AUTOMOTIVE_DESIGN { 1 0 10303 214 3 1 1 }'));
ENDSEC;

DATA;
#10=MECHANICAL_DESIGN_GEOMETRIC_PRESENTATION_REPRESENTATION('',(#13),#962);
#11=SHAPE_REPRESENTATION_RELATIONSHIP('SRR','None',#969,#12);
#12=ADVANCED_BREP_SHAPE_REPRESENTATION('',(#14),#961);
#13=STYLED_ITEM('',(#979),#14);
#14=MANIFOLD_SOLID_BREP('Body1',#526);
#15=FACE_BOUND('',#96,.T.);
#16=FACE_BOUND('',#98,.T.);
#17=B_SPLINE_CURVE_WITH_KNOTS('',3,(#743,#744,#745,#746,#747,#748,#749),
 .UNSPECIFIED.,.F.,.F.,(4,3,4),(-0.123653921603267,-0.0618269608016335,
0.),.UNSPECIFIED.);
#18=B_SPLINE_CURVE_WITH_KNOTS('',3,(#751,#752,#753,#754,#755,#756,#757),
 .UNSPECIFIED.,.F.,.F.,(4,3,4),(0.,0.0618269608016335,0.123653921603267),
 .UNSPECIFIED.);
#19=B_SPLINE_CURVE_WITH_KNOTS('',3,(#802,#803,#804,#805,#806,#807,#808),
 .UNSPECIFIED.,.F.,.F.,(4,3,4),(-0.12365392160328,-0.0618269608016398,0.),
 .UNSPECIFIED.);
#20=B_SPLINE_CURVE_WITH_KNOTS('',3,(#810,#811,#812,#813,#814,#815,#816),
 .UNSPECIFIED.,.F.,.F.,(4,3,4),(0.,0.0618269608016398,0.12365392160328),
 .UNSPECIFIED.);
#21=B_SPLINE_CURVE_WITH_KNOTS('',3,(#861,#862,#863,#864,#865,#866,#867),
 .UNSPECIFIED.,.F.,.F.,(4,3,4),(-0.123653921603285,-0.0618269608016418,
0.),.UNSPECIFIED.);
#22=B_SPLINE_CURVE_WITH_KNOTS('',3,(#869,#870,#871,#872,#873,#874,#875),
 .UNSPECIFIED.,.F.,.F.,(4,3,4),(0.,0.0618269608016418,0.123653921603285),
 .UNSPECIFIED.);
#23=B_SPLINE_CURVE_WITH_KNOTS('',3,(#920,#921,#922,#923,#924,#925,#926),
 .UNSPECIFIED.,.F.,.F.,(4,3,4),(-0.123653921603272,-0.0618269608016356,
0.),.UNSPECIFIED.);
#24=B_SPLINE_CURVE_WITH_KNOTS('',3,(#928,#929,#930,#931,#932,#933,#934),
 .UNSPECIFIED.,.F.,.F.,(4,3,4),(0.,0.0618269608016356,0.123653921603272),
 .UNSPECIFIED.);
#25=B_SPLINE_SURFACE_WITH_KNOTS('',3,1,((#730,#731),(#732,#733),(#734,#735),
(#736,#737),(#738,#739),(#740,#741)),.UNSPECIFIED.,.F.,.F.,.F.,(4,2,4),
(2,2),(0.,0.0618269608016335,0.123653921603267),(0.,0.2),.UNSPECIFIED.);
#26=B_SPLINE_SURFACE_WITH_KNOTS('',3,1,((#789,#790),(#791,#792),(#793,#794),
(#795,#796),(#797,#798),(#799,#800)),.UNSPECIFIED.,.F.,.F.,.F.,(4,2,4),
(2,2),(0.,0.0618269608016398,0.12365392160328),(0.,0.2),.UNSPECIFIED.);
#27=B_SPLINE_SURFACE_WITH_KNOTS('',3,1,((#848,#849),(#850,#851),(#852,#853),
(#854,#855),(#856,#857),(#858,#859)),.UNSPECIFIED.,.F.,.F.,.F.,(4,2,4),
(2,2),(0.,0.0618269608016418,0.123653921603285),(0.,0.2),.UNSPECIFIED.);
#28=B_SPLINE_SURFACE_WITH_KNOTS('',3,1,((#907,#908),(#909,#910),(#911,#912),
(#913,#914),(#915,#916),(#917,#918)),.UNSPECIFIED.,.F.,.F.,.F.,(4,2,4),
(2,2),(0.,0.0618269608016356,0.123653921603272),(0.,0.2),.UNSPECIFIED.);
#29=PLANE('',#543);
#30=PLANE('',#544);
#31=PLANE('',#548);
#32=PLANE('',#552);
#33=PLANE('',#553);
#34=PLANE('',#557);
#35=PLANE('',#561);
#36=PLANE('',#562);
#37=PLANE('',#566);
#38=PLANE('',#570);
#39=PLANE('',#571);
#40=PLANE('',#575);
#41=PLANE('',#579);
#42=PLANE('',#580);
#43=FACE_OUTER_BOUND('',#70,.T.);
#44=FACE_OUTER_BOUND('',#71,.T.);
#45=FACE_OUTER_BOUND('',#72,.T.);
#46=FACE_OUTER_BOUND('',#73,.T.);
#47=FACE_OUTER_BOUND('',#74,.T.);
#48=FACE_OUTER_BOUND('',#75,.T.);
#49=FACE_OUTER_BOUND('',#76,.T.);
#50=FACE_OUTER_BOUND('',#77,.T.);
#51=FACE_OUTER_BOUND('',#78,.T.);
#52=FACE_OUTER_BOUND('',#79,.T.);
#53=FACE_OUTER_BOUND('',#80,.T.);
#54=FACE_OUTER_BOUND('',#81,.T.);
#55=FACE_OUTER_BOUND('',#82,.T.);
#56=FACE_OUTER_BOUND('',#83,.T.);
#57=FACE_OUTER_BOUND('',#84,.T.);
#58=FACE_OUTER_BOUND('',#85,.T.);
#59=FACE_OUTER_BOUND('',#86,.T.);
#60=FACE_OUTER_BOUND('',#87,.T.);
#61=FACE_OUTER_BOUND('',#88,.T.);
#62=FACE_OUTER_BOUND('',#89,.T.);
#63=FACE_OUTER_BOUND('',#90,.T.);
#64=FACE_OUTER_BOUND('',#91,.T.);
#65=FACE_OUTER_BOUND('',#92,.T.);
#66=FACE_OUTER_BOUND('',#93,.T.);
#67=FACE_OUTER_BOUND('',#94,.T.);
#68=FACE_OUTER_BOUND('',#95,.T.);
#69=FACE_OUTER_BOUND('',#97,.T.);
#70=EDGE_LOOP('',(#340,#341,#342,#343));
#71=EDGE_LOOP('',(#344,#345,#346,#347));
#72=EDGE_LOOP('',(#348,#349,#350,#351));
#73=EDGE_LOOP('',(#352,#353,#354,#355));
#74=EDGE_LOOP('',(#356,#357,#358,#359));
#75=EDGE_LOOP('',(#360,#361,#362,#363));
#76=EDGE_LOOP('',(#364,#365,#366,#367));
#77=EDGE_LOOP('',(#368,#369,#370,#371));
#78=EDGE_LOOP('',(#372,#373,#374,#375));
#79=EDGE_LOOP('',(#376,#377,#378,#379));
#80=EDGE_LOOP('',(#380,#381,#382,#383));
#81=EDGE_LOOP('',(#384,#385,#386,#387));
#82=EDGE_LOOP('',(#388,#389,#390,#391));
#83=EDGE_LOOP('',(#392,#393,#394,#395));
#84=EDGE_LOOP('',(#396,#397,#398,#399));
#85=EDGE_LOOP('',(#400,#401,#402,#403));
#86=EDGE_LOOP('',(#404,#405,#406,#407));
#87=EDGE_LOOP('',(#408,#409,#410,#411));
#88=EDGE_LOOP('',(#412,#413,#414,#415));
#89=EDGE_LOOP('',(#416,#417,#418,#419));
#90=EDGE_LOOP('',(#420,#421,#422,#423));
#91=EDGE_LOOP('',(#424,#425,#426,#427));
#92=EDGE_LOOP('',(#428,#429,#430,#431));
#93=EDGE_LOOP('',(#432,#433,#434,#435));
#94=EDGE_LOOP('',(#436,#437,#438,#439));
#95=EDGE_LOOP('',(#440));
#96=EDGE_LOOP('',(#441,#442,#443,#444,#445,#446,#447,#448,#449,#450,#451,
#452,#453,#454,#455,#456,#457,#458,#459,#460,#461,#462,#463,#464));
#97=EDGE_LOOP('',(#465));
#98=EDGE_LOOP('',(#466,#467,#468,#469,#470,#471,#472,#473,#474,#475,#476,
#477,#478,#479,#480,#481,#482,#483,#484,#485,#486,#487,#488,#489));
#99=LINE('',#720,#148);
#100=LINE('',#723,#149);
#101=LINE('',#726,#150);
#102=LINE('',#728,#151);
#103=LINE('',#729,#152);
#104=LINE('',#758,#153);
#105=LINE('',#761,#154);
#106=LINE('',#763,#155);
#107=LINE('',#764,#156);
#108=LINE('',#770,#157);
#109=LINE('',#773,#158);
#110=LINE('',#775,#159);
#111=LINE('',#776,#160);
#112=LINE('',#782,#161);
#113=LINE('',#785,#162);
#114=LINE('',#787,#163);
#115=LINE('',#788,#164);
#116=LINE('',#817,#165);
#117=LINE('',#820,#166);
#118=LINE('',#822,#167);
#119=LINE('',#823,#168);
#120=LINE('',#829,#169);
#121=LINE('',#832,#170);
#122=LINE('',#834,#171);
#123=LINE('',#835,#172);
#124=LINE('',#841,#173);
#125=LINE('',#844,#174);
#126=LINE('',#846,#175);
#127=LINE('',#847,#176);
#128=LINE('',#876,#177);
#129=LINE('',#879,#178);
#130=LINE('',#881,#179);
#131=LINE('',#882,#180);
#132=LINE('',#888,#181);
#133=LINE('',#891,#182);
#134=LINE('',#893,#183);
#135=LINE('',#894,#184);
#136=LINE('',#900,#185);
#137=LINE('',#903,#186);
#138=LINE('',#905,#187);
#139=LINE('',#906,#188);
#140=LINE('',#935,#189);
#141=LINE('',#938,#190);
#142=LINE('',#940,#191);
#143=LINE('',#941,#192);
#144=LINE('',#947,#193);
#145=LINE('',#949,#194);
#146=LINE('',#950,#195);
#147=LINE('',#955,#196);
#148=VECTOR('',#587,10.);
#149=VECTOR('',#590,10.);
#150=VECTOR('',#593,10.);
#151=VECTOR('',#594,10.);
#152=VECTOR('',#595,10.);
#153=VECTOR('',#596,10.);
#154=VECTOR('',#599,10.);
#155=VECTOR('',#600,10.);
#156=VECTOR('',#601,10.);
#157=VECTOR('',#608,10.);
#158=VECTOR('',#611,10.);
#159=VECTOR('',#612,10.);
#160=VECTOR('',#613,10.);
#161=VECTOR('',#620,10.);
#162=VECTOR('',#623,10.);
#163=VECTOR('',#624,10.);
#164=VECTOR('',#625,10.);
#165=VECTOR('',#626,10.);
#166=VECTOR('',#629,10.);
#167=VECTOR('',#630,10.);
#168=VECTOR('',#631,10.);
#169=VECTOR('',#638,10.);
#170=VECTOR('',#641,10.);
#171=VECTOR('',#642,10.);
#172=VECTOR('',#643,10.);
#173=VECTOR('',#650,10.);
#174=VECTOR('',#653,10.);
#175=VECTOR('',#654,10.);
#176=VECTOR('',#655,10.);
#177=VECTOR('',#656,10.);
#178=VECTOR('',#659,10.);
#179=VECTOR('',#660,10.);
#180=VECTOR('',#661,10.);
#181=VECTOR('',#668,10.);
#182=VECTOR('',#671,10.);
#183=VECTOR('',#672,10.);
#184=VECTOR('',#673,10.);
#185=VECTOR('',#680,10.);
#186=VECTOR('',#683,10.);
#187=VECTOR('',#684,10.);
#188=VECTOR('',#685,10.);
#189=VECTOR('',#686,10.);
#190=VECTOR('',#689,10.);
#191=VECTOR('',#690,10.);
#192=VECTOR('',#691,10.);
#193=VECTOR('',#698,10.);
#194=VECTOR('',#701,10.);
#195=VECTOR('',#702,10.);
#196=VECTOR('',#707,20.7);
#197=CIRCLE('',#541,14.3927139286626);
#198=CIRCLE('',#542,14.3927139286626);
#199=CIRCLE('',#546,14.3927139286626);
#200=CIRCLE('',#547,14.3927139286626);
#201=CIRCLE('',#550,14.3927139286626);
#202=CIRCLE('',#551,14.3927139286626);
#203=CIRCLE('',#555,14.3927139286626);
#204=CIRCLE('',#556,14.3927139286626);
#205=CIRCLE('',#559,14.3927139286626);
#206=CIRCLE('',#560,14.3927139286626);
#207=CIRCLE('',#564,14.3927139286626);
#208=CIRCLE('',#565,14.3927139286626);
#209=CIRCLE('',#568,14.3927139286626);
#210=CIRCLE('',#569,14.3927139286626);
#211=CIRCLE('',#573,14.3927139286626);
#212=CIRCLE('',#574,14.3927139286626);
#213=CIRCLE('',#577,20.7);
#214=CIRCLE('',#578,20.7);
#215=VERTEX_POINT('',#716);
#216=VERTEX_POINT('',#717);
#217=VERTEX_POINT('',#719);
#218=VERTEX_POINT('',#721);
#219=VERTEX_POINT('',#725);
#220=VERTEX_POINT('',#727);
#221=VERTEX_POINT('',#742);
#222=VERTEX_POINT('',#750);
#223=VERTEX_POINT('',#760);
#224=VERTEX_POINT('',#762);
#225=VERTEX_POINT('',#766);
#226=VERTEX_POINT('',#768);
#227=VERTEX_POINT('',#772);
#228=VERTEX_POINT('',#774);
#229=VERTEX_POINT('',#778);
#230=VERTEX_POINT('',#780);
#231=VERTEX_POINT('',#784);
#232=VERTEX_POINT('',#786);
#233=VERTEX_POINT('',#801);
#234=VERTEX_POINT('',#809);
#235=VERTEX_POINT('',#819);
#236=VERTEX_POINT('',#821);
#237=VERTEX_POINT('',#825);
#238=VERTEX_POINT('',#827);
#239=VERTEX_POINT('',#831);
#240=VERTEX_POINT('',#833);
#241=VERTEX_POINT('',#837);
#242=VERTEX_POINT('',#839);
#243=VERTEX_POINT('',#843);
#244=VERTEX_POINT('',#845);
#245=VERTEX_POINT('',#860);
#246=VERTEX_POINT('',#868);
#247=VERTEX_POINT('',#878);
#248=VERTEX_POINT('',#880);
#249=VERTEX_POINT('',#884);
#250=VERTEX_POINT('',#886);
#251=VERTEX_POINT('',#890);
#252=VERTEX_POINT('',#892);
#253=VERTEX_POINT('',#896);
#254=VERTEX_POINT('',#898);
#255=VERTEX_POINT('',#902);
#256=VERTEX_POINT('',#904);
#257=VERTEX_POINT('',#919);
#258=VERTEX_POINT('',#927);
#259=VERTEX_POINT('',#937);
#260=VERTEX_POINT('',#939);
#261=VERTEX_POINT('',#943);
#262=VERTEX_POINT('',#945);
#263=VERTEX_POINT('',#952);
#264=VERTEX_POINT('',#954);
#265=EDGE_CURVE('',#215,#216,#197,.T.);
#266=EDGE_CURVE('',#215,#217,#99,.T.);
#267=EDGE_CURVE('',#218,#217,#198,.T.);
#268=EDGE_CURVE('',#216,#218,#100,.T.);
#269=EDGE_CURVE('',#216,#219,#101,.T.);
#270=EDGE_CURVE('',#220,#218,#102,.T.);
#271=EDGE_CURVE('',#219,#220,#103,.T.);
#272=EDGE_CURVE('',#219,#221,#17,.T.);
#273=EDGE_CURVE('',#222,#220,#18,.T.);
#274=EDGE_CURVE('',#221,#222,#104,.T.);
#275=EDGE_CURVE('',#221,#223,#105,.T.);
#276=EDGE_CURVE('',#224,#222,#106,.T.);
#277=EDGE_CURVE('',#223,#224,#107,.T.);
#278=EDGE_CURVE('',#223,#225,#199,.T.);
#279=EDGE_CURVE('',#226,#224,#200,.T.);
#280=EDGE_CURVE('',#225,#226,#108,.T.);
#281=EDGE_CURVE('',#225,#227,#109,.T.);
#282=EDGE_CURVE('',#228,#226,#110,.T.);
#283=EDGE_CURVE('',#227,#228,#111,.T.);
#284=EDGE_CURVE('',#227,#229,#201,.T.);
#285=EDGE_CURVE('',#230,#228,#202,.T.);
#286=EDGE_CURVE('',#229,#230,#112,.T.);
#287=EDGE_CURVE('',#229,#231,#113,.T.);
#288=EDGE_CURVE('',#232,#230,#114,.T.);
#289=EDGE_CURVE('',#231,#232,#115,.T.);
#290=EDGE_CURVE('',#231,#233,#19,.T.);
#291=EDGE_CURVE('',#234,#232,#20,.T.);
#292=EDGE_CURVE('',#233,#234,#116,.T.);
#293=EDGE_CURVE('',#233,#235,#117,.T.);
#294=EDGE_CURVE('',#236,#234,#118,.T.);
#295=EDGE_CURVE('',#235,#236,#119,.T.);
#296=EDGE_CURVE('',#235,#237,#203,.T.);
#297=EDGE_CURVE('',#238,#236,#204,.T.);
#298=EDGE_CURVE('',#237,#238,#120,.T.);
#299=EDGE_CURVE('',#237,#239,#121,.T.);
#300=EDGE_CURVE('',#240,#238,#122,.T.);
#301=EDGE_CURVE('',#239,#240,#123,.T.);
#302=EDGE_CURVE('',#239,#241,#205,.T.);
#303=EDGE_CURVE('',#242,#240,#206,.T.);
#304=EDGE_CURVE('',#241,#242,#124,.T.);
#305=EDGE_CURVE('',#241,#243,#125,.T.);
#306=EDGE_CURVE('',#244,#242,#126,.T.);
#307=EDGE_CURVE('',#243,#244,#127,.T.);
#308=EDGE_CURVE('',#243,#245,#21,.T.);
#309=EDGE_CURVE('',#246,#244,#22,.T.);
#310=EDGE_CURVE('',#245,#246,#128,.T.);
#311=EDGE_CURVE('',#245,#247,#129,.T.);
#312=EDGE_CURVE('',#248,#246,#130,.T.);
#313=EDGE_CURVE('',#247,#248,#131,.T.);
#314=EDGE_CURVE('',#247,#249,#207,.T.);
#315=EDGE_CURVE('',#250,#248,#208,.T.);
#316=EDGE_CURVE('',#249,#250,#132,.T.);
#317=EDGE_CURVE('',#249,#251,#133,.T.);
#318=EDGE_CURVE('',#252,#250,#134,.T.);
#319=EDGE_CURVE('',#251,#252,#135,.T.);
#320=EDGE_CURVE('',#251,#253,#209,.T.);
#321=EDGE_CURVE('',#254,#252,#210,.T.);
#322=EDGE_CURVE('',#253,#254,#136,.T.);
#323=EDGE_CURVE('',#253,#255,#137,.T.);
#324=EDGE_CURVE('',#256,#254,#138,.T.);
#325=EDGE_CURVE('',#255,#256,#139,.T.);
#326=EDGE_CURVE('',#255,#257,#23,.T.);
#327=EDGE_CURVE('',#258,#256,#24,.T.);
#328=EDGE_CURVE('',#257,#258,#140,.T.);
#329=EDGE_CURVE('',#257,#259,#141,.T.);
#330=EDGE_CURVE('',#260,#258,#142,.T.);
#331=EDGE_CURVE('',#259,#260,#143,.T.);
#332=EDGE_CURVE('',#259,#261,#211,.T.);
#333=EDGE_CURVE('',#262,#260,#212,.T.);
#334=EDGE_CURVE('',#261,#262,#144,.T.);
#335=EDGE_CURVE('',#261,#215,#145,.T.);
#336=EDGE_CURVE('',#217,#262,#146,.T.);
#337=EDGE_CURVE('',#263,#263,#213,.T.);
#338=EDGE_CURVE('',#263,#264,#147,.T.);
#339=EDGE_CURVE('',#264,#264,#214,.T.);
#340=ORIENTED_EDGE('',*,*,#265,.F.);
#341=ORIENTED_EDGE('',*,*,#266,.T.);
#342=ORIENTED_EDGE('',*,*,#267,.F.);
#343=ORIENTED_EDGE('',*,*,#268,.F.);
#344=ORIENTED_EDGE('',*,*,#269,.F.);
#345=ORIENTED_EDGE('',*,*,#268,.T.);
#346=ORIENTED_EDGE('',*,*,#270,.F.);
#347=ORIENTED_EDGE('',*,*,#271,.F.);
#348=ORIENTED_EDGE('',*,*,#272,.F.);
#349=ORIENTED_EDGE('',*,*,#271,.T.);
#350=ORIENTED_EDGE('',*,*,#273,.F.);
#351=ORIENTED_EDGE('',*,*,#274,.F.);
#352=ORIENTED_EDGE('',*,*,#275,.F.);
#353=ORIENTED_EDGE('',*,*,#274,.T.);
#354=ORIENTED_EDGE('',*,*,#276,.F.);
#355=ORIENTED_EDGE('',*,*,#277,.F.);
#356=ORIENTED_EDGE('',*,*,#278,.F.);
#357=ORIENTED_EDGE('',*,*,#277,.T.);
#358=ORIENTED_EDGE('',*,*,#279,.F.);
#359=ORIENTED_EDGE('',*,*,#280,.F.);
#360=ORIENTED_EDGE('',*,*,#281,.F.);
#361=ORIENTED_EDGE('',*,*,#280,.T.);
#362=ORIENTED_EDGE('',*,*,#282,.F.);
#363=ORIENTED_EDGE('',*,*,#283,.F.);
#364=ORIENTED_EDGE('',*,*,#284,.F.);
#365=ORIENTED_EDGE('',*,*,#283,.T.);
#366=ORIENTED_EDGE('',*,*,#285,.F.);
#367=ORIENTED_EDGE('',*,*,#286,.F.);
#368=ORIENTED_EDGE('',*,*,#287,.F.);
#369=ORIENTED_EDGE('',*,*,#286,.T.);
#370=ORIENTED_EDGE('',*,*,#288,.F.);
#371=ORIENTED_EDGE('',*,*,#289,.F.);
#372=ORIENTED_EDGE('',*,*,#290,.F.);
#373=ORIENTED_EDGE('',*,*,#289,.T.);
#374=ORIENTED_EDGE('',*,*,#291,.F.);
#375=ORIENTED_EDGE('',*,*,#292,.F.);
#376=ORIENTED_EDGE('',*,*,#293,.F.);
#377=ORIENTED_EDGE('',*,*,#292,.T.);
#378=ORIENTED_EDGE('',*,*,#294,.F.);
#379=ORIENTED_EDGE('',*,*,#295,.F.);
#380=ORIENTED_EDGE('',*,*,#296,.F.);
#381=ORIENTED_EDGE('',*,*,#295,.T.);
#382=ORIENTED_EDGE('',*,*,#297,.F.);
#383=ORIENTED_EDGE('',*,*,#298,.F.);
#384=ORIENTED_EDGE('',*,*,#299,.F.);
#385=ORIENTED_EDGE('',*,*,#298,.T.);
#386=ORIENTED_EDGE('',*,*,#300,.F.);
#387=ORIENTED_EDGE('',*,*,#301,.F.);
#388=ORIENTED_EDGE('',*,*,#302,.F.);
#389=ORIENTED_EDGE('',*,*,#301,.T.);
#390=ORIENTED_EDGE('',*,*,#303,.F.);
#391=ORIENTED_EDGE('',*,*,#304,.F.);
#392=ORIENTED_EDGE('',*,*,#305,.F.);
#393=ORIENTED_EDGE('',*,*,#304,.T.);
#394=ORIENTED_EDGE('',*,*,#306,.F.);
#395=ORIENTED_EDGE('',*,*,#307,.F.);
#396=ORIENTED_EDGE('',*,*,#308,.F.);
#397=ORIENTED_EDGE('',*,*,#307,.T.);
#398=ORIENTED_EDGE('',*,*,#309,.F.);
#399=ORIENTED_EDGE('',*,*,#310,.F.);
#400=ORIENTED_EDGE('',*,*,#311,.F.);
#401=ORIENTED_EDGE('',*,*,#310,.T.);
#402=ORIENTED_EDGE('',*,*,#312,.F.);
#403=ORIENTED_EDGE('',*,*,#313,.F.);
#404=ORIENTED_EDGE('',*,*,#314,.F.);
#405=ORIENTED_EDGE('',*,*,#313,.T.);
#406=ORIENTED_EDGE('',*,*,#315,.F.);
#407=ORIENTED_EDGE('',*,*,#316,.F.);
#408=ORIENTED_EDGE('',*,*,#317,.F.);
#409=ORIENTED_EDGE('',*,*,#316,.T.);
#410=ORIENTED_EDGE('',*,*,#318,.F.);
#411=ORIENTED_EDGE('',*,*,#319,.F.);
#412=ORIENTED_EDGE('',*,*,#320,.F.);
#413=ORIENTED_EDGE('',*,*,#319,.T.);
#414=ORIENTED_EDGE('',*,*,#321,.F.);
#415=ORIENTED_EDGE('',*,*,#322,.F.);
#416=ORIENTED_EDGE('',*,*,#323,.F.);
#417=ORIENTED_EDGE('',*,*,#322,.T.);
#418=ORIENTED_EDGE('',*,*,#324,.F.);
#419=ORIENTED_EDGE('',*,*,#325,.F.);
#420=ORIENTED_EDGE('',*,*,#326,.F.);
#421=ORIENTED_EDGE('',*,*,#325,.T.);
#422=ORIENTED_EDGE('',*,*,#327,.F.);
#423=ORIENTED_EDGE('',*,*,#328,.F.);
#424=ORIENTED_EDGE('',*,*,#329,.F.);
#425=ORIENTED_EDGE('',*,*,#328,.T.);
#426=ORIENTED_EDGE('',*,*,#330,.F.);
#427=ORIENTED_EDGE('',*,*,#331,.F.);
#428=ORIENTED_EDGE('',*,*,#332,.F.);
#429=ORIENTED_EDGE('',*,*,#331,.T.);
#430=ORIENTED_EDGE('',*,*,#333,.F.);
#431=ORIENTED_EDGE('',*,*,#334,.F.);
#432=ORIENTED_EDGE('',*,*,#335,.F.);
#433=ORIENTED_EDGE('',*,*,#334,.T.);
#434=ORIENTED_EDGE('',*,*,#336,.F.);
#435=ORIENTED_EDGE('',*,*,#266,.F.);
#436=ORIENTED_EDGE('',*,*,#337,.F.);
#437=ORIENTED_EDGE('',*,*,#338,.T.);
#438=ORIENTED_EDGE('',*,*,#339,.F.);
#439=ORIENTED_EDGE('',*,*,#338,.F.);
#440=ORIENTED_EDGE('',*,*,#337,.T.);
#441=ORIENTED_EDGE('',*,*,#336,.T.);
#442=ORIENTED_EDGE('',*,*,#333,.T.);
#443=ORIENTED_EDGE('',*,*,#330,.T.);
#444=ORIENTED_EDGE('',*,*,#327,.T.);
#445=ORIENTED_EDGE('',*,*,#324,.T.);
#446=ORIENTED_EDGE('',*,*,#321,.T.);
#447=ORIENTED_EDGE('',*,*,#318,.T.);
#448=ORIENTED_EDGE('',*,*,#315,.T.);
#449=ORIENTED_EDGE('',*,*,#312,.T.);
#450=ORIENTED_EDGE('',*,*,#309,.T.);
#451=ORIENTED_EDGE('',*,*,#306,.T.);
#452=ORIENTED_EDGE('',*,*,#303,.T.);
#453=ORIENTED_EDGE('',*,*,#300,.T.);
#454=ORIENTED_EDGE('',*,*,#297,.T.);
#455=ORIENTED_EDGE('',*,*,#294,.T.);
#456=ORIENTED_EDGE('',*,*,#291,.T.);
#457=ORIENTED_EDGE('',*,*,#288,.T.);
#458=ORIENTED_EDGE('',*,*,#285,.T.);
#459=ORIENTED_EDGE('',*,*,#282,.T.);
#460=ORIENTED_EDGE('',*,*,#279,.T.);
#461=ORIENTED_EDGE('',*,*,#276,.T.);
#462=ORIENTED_EDGE('',*,*,#273,.T.);
#463=ORIENTED_EDGE('',*,*,#270,.T.);
#464=ORIENTED_EDGE('',*,*,#267,.T.);
#465=ORIENTED_EDGE('',*,*,#339,.T.);
#466=ORIENTED_EDGE('',*,*,#335,.T.);
#467=ORIENTED_EDGE('',*,*,#265,.T.);
#468=ORIENTED_EDGE('',*,*,#269,.T.);
#469=ORIENTED_EDGE('',*,*,#272,.T.);
#470=ORIENTED_EDGE('',*,*,#275,.T.);
#471=ORIENTED_EDGE('',*,*,#278,.T.);
#472=ORIENTED_EDGE('',*,*,#281,.T.);
#473=ORIENTED_EDGE('',*,*,#284,.T.);
#474=ORIENTED_EDGE('',*,*,#287,.T.);
#475=ORIENTED_EDGE('',*,*,#290,.T.);
#476=ORIENTED_EDGE('',*,*,#293,.T.);
#477=ORIENTED_EDGE('',*,*,#296,.T.);
#478=ORIENTED_EDGE('',*,*,#299,.T.);
#479=ORIENTED_EDGE('',*,*,#302,.T.);
#480=ORIENTED_EDGE('',*,*,#305,.T.);
#481=ORIENTED_EDGE('',*,*,#308,.T.);
#482=ORIENTED_EDGE('',*,*,#311,.T.);
#483=ORIENTED_EDGE('',*,*,#314,.T.);
#484=ORIENTED_EDGE('',*,*,#317,.T.);
#485=ORIENTED_EDGE('',*,*,#320,.T.);
#486=ORIENTED_EDGE('',*,*,#323,.T.);
#487=ORIENTED_EDGE('',*,*,#326,.T.);
#488=ORIENTED_EDGE('',*,*,#329,.T.);
#489=ORIENTED_EDGE('',*,*,#332,.T.);
#490=CYLINDRICAL_SURFACE('',#540,14.3927139286626);
#491=CYLINDRICAL_SURFACE('',#545,14.3927139286626);
#492=CYLINDRICAL_SURFACE('',#549,14.3927139286626);
#493=CYLINDRICAL_SURFACE('',#554,14.3927139286626);
#494=CYLINDRICAL_SURFACE('',#558,14.3927139286626);
#495=CYLINDRICAL_SURFACE('',#563,14.3927139286626);
#496=CYLINDRICAL_SURFACE('',#567,14.3927139286626);
#497=CYLINDRICAL_SURFACE('',#572,14.3927139286626);
#498=CYLINDRICAL_SURFACE('',#576,20.7);
#499=ADVANCED_FACE('',(#43),#490,.F.);
#500=ADVANCED_FACE('',(#44),#29,.T.);
#501=ADVANCED_FACE('',(#45),#25,.T.);
#502=ADVANCED_FACE('',(#46),#30,.T.);
#503=ADVANCED_FACE('',(#47),#491,.F.);
#504=ADVANCED_FACE('',(#48),#31,.T.);
#505=ADVANCED_FACE('',(#49),#492,.F.);
#506=ADVANCED_FACE('',(#50),#32,.T.);
#507=ADVANCED_FACE('',(#51),#26,.T.);
#508=ADVANCED_FACE('',(#52),#33,.T.);
#509=ADVANCED_FACE('',(#53),#493,.F.);
#510=ADVANCED_FACE('',(#54),#34,.T.);
#511=ADVANCED_FACE('',(#55),#494,.F.);
#512=ADVANCED_FACE('',(#56),#35,.T.);
#513=ADVANCED_FACE('',(#57),#27,.T.);
#514=ADVANCED_FACE('',(#58),#36,.T.);
#515=ADVANCED_FACE('',(#59),#495,.F.);
#516=ADVANCED_FACE('',(#60),#37,.T.);
#517=ADVANCED_FACE('',(#61),#496,.F.);
#518=ADVANCED_FACE('',(#62),#38,.T.);
#519=ADVANCED_FACE('',(#63),#28,.T.);
#520=ADVANCED_FACE('',(#64),#39,.T.);
#521=ADVANCED_FACE('',(#65),#497,.F.);
#522=ADVANCED_FACE('',(#66),#40,.T.);
#523=ADVANCED_FACE('',(#67),#498,.T.);
#524=ADVANCED_FACE('',(#68,#15),#41,.T.);
#525=ADVANCED_FACE('',(#69,#16),#42,.F.);
#526=CLOSED_SHELL('',(#499,#500,#501,#502,#503,#504,#505,#506,#507,#508,
#509,#510,#511,#512,#513,#514,#515,#516,#517,#518,#519,#520,#521,#522,#523,
#524,#525));
#527=DERIVED_UNIT_ELEMENT(#529,1.);
#528=DERIVED_UNIT_ELEMENT(#964,-3.);
#529=(
MASS_UNIT()
NAMED_UNIT(*)
SI_UNIT(.KILO.,.GRAM.)
);
#530=DERIVED_UNIT((#527,#528));
#531=MEASURE_REPRESENTATION_ITEM('density measure',
POSITIVE_RATIO_MEASURE(7850.),#530);
#532=PROPERTY_DEFINITION_REPRESENTATION(#537,#534);
#533=PROPERTY_DEFINITION_REPRESENTATION(#538,#535);
#534=REPRESENTATION('material name',(#536),#961);
#535=REPRESENTATION('density',(#531),#961);
#536=DESCRIPTIVE_REPRESENTATION_ITEM('Steel','Steel');
#537=PROPERTY_DEFINITION('material property','material name',#971);
#538=PROPERTY_DEFINITION('material property','density of part',#971);
#539=AXIS2_PLACEMENT_3D('',#714,#581,#582);
#540=AXIS2_PLACEMENT_3D('',#715,#583,#584);
#541=AXIS2_PLACEMENT_3D('',#718,#585,#586);
#542=AXIS2_PLACEMENT_3D('',#722,#588,#589);
#543=AXIS2_PLACEMENT_3D('',#724,#591,#592);
#544=AXIS2_PLACEMENT_3D('',#759,#597,#598);
#545=AXIS2_PLACEMENT_3D('',#765,#602,#603);
#546=AXIS2_PLACEMENT_3D('',#767,#604,#605);
#547=AXIS2_PLACEMENT_3D('',#769,#606,#607);
#548=AXIS2_PLACEMENT_3D('',#771,#609,#610);
#549=AXIS2_PLACEMENT_3D('',#777,#614,#615);
#550=AXIS2_PLACEMENT_3D('',#779,#616,#617);
#551=AXIS2_PLACEMENT_3D('',#781,#618,#619);
#552=AXIS2_PLACEMENT_3D('',#783,#621,#622);
#553=AXIS2_PLACEMENT_3D('',#818,#627,#628);
#554=AXIS2_PLACEMENT_3D('',#824,#632,#633);
#555=AXIS2_PLACEMENT_3D('',#826,#634,#635);
#556=AXIS2_PLACEMENT_3D('',#828,#636,#637);
#557=AXIS2_PLACEMENT_3D('',#830,#639,#640);
#558=AXIS2_PLACEMENT_3D('',#836,#644,#645);
#559=AXIS2_PLACEMENT_3D('',#838,#646,#647);
#560=AXIS2_PLACEMENT_3D('',#840,#648,#649);
#561=AXIS2_PLACEMENT_3D('',#842,#651,#652);
#562=AXIS2_PLACEMENT_3D('',#877,#657,#658);
#563=AXIS2_PLACEMENT_3D('',#883,#662,#663);
#564=AXIS2_PLACEMENT_3D('',#885,#664,#665);
#565=AXIS2_PLACEMENT_3D('',#887,#666,#667);
#566=AXIS2_PLACEMENT_3D('',#889,#669,#670);
#567=AXIS2_PLACEMENT_3D('',#895,#674,#675);
#568=AXIS2_PLACEMENT_3D('',#897,#676,#677);
#569=AXIS2_PLACEMENT_3D('',#899,#678,#679);
#570=AXIS2_PLACEMENT_3D('',#901,#681,#682);
#571=AXIS2_PLACEMENT_3D('',#936,#687,#688);
#572=AXIS2_PLACEMENT_3D('',#942,#692,#693);
#573=AXIS2_PLACEMENT_3D('',#944,#694,#695);
#574=AXIS2_PLACEMENT_3D('',#946,#696,#697);
#575=AXIS2_PLACEMENT_3D('',#948,#699,#700);
#576=AXIS2_PLACEMENT_3D('',#951,#703,#704);
#577=AXIS2_PLACEMENT_3D('',#953,#705,#706);
#578=AXIS2_PLACEMENT_3D('',#956,#708,#709);
#579=AXIS2_PLACEMENT_3D('',#957,#710,#711);
#580=AXIS2_PLACEMENT_3D('',#958,#712,#713);
#581=DIRECTION('axis',(0.,0.,1.));
#582=DIRECTION('refdir',(1.,0.,0.));
#583=DIRECTION('center_axis',(0.,0.,1.));
#584=DIRECTION('ref_axis',(0.972714393504313,0.232005837576422,0.));
#585=DIRECTION('center_axis',(-3.05311331771918E-16,1.2490009027033E-16,
1.));
#586=DIRECTION('ref_axis',(0.972714393504313,0.232005837576422,-2.89775500565387E-17));
#587=DIRECTION('',(0.,0.,1.));
#588=DIRECTION('center_axis',(3.05311331771918E-16,-1.2490009027033E-16,
-1.));
#589=DIRECTION('ref_axis',(0.972714393504313,0.232005837576422,-2.89775500565387E-17));
#590=DIRECTION('',(0.,0.,1.));
#591=DIRECTION('center_axis',(-0.410225452301219,-0.911984143658353,0.));
#592=DIRECTION('ref_axis',(0.911984143658353,-0.410225452301219,3.29676289478813E-16));
#593=DIRECTION('',(-0.911984143658353,0.410225452301219,-3.29676289478813E-16));
#594=DIRECTION('',(0.911984143658353,-0.410225452301219,3.29676289478813E-16));
#595=DIRECTION('',(0.,0.,1.));
#596=DIRECTION('',(0.,0.,1.));
#597=DIRECTION('center_axis',(-0.91198414365834,-0.410225452301248,0.));
#598=DIRECTION('ref_axis',(0.410225452301248,-0.91198414365834,2.39153381036868E-16));
#599=DIRECTION('',(-0.410225452301248,0.91198414365834,-2.39153381036868E-16));
#600=DIRECTION('',(0.410225452301248,-0.91198414365834,2.39153381036868E-16));
#601=DIRECTION('',(0.,0.,1.));
#602=DIRECTION('center_axis',(0.,0.,1.));
#603=DIRECTION('ref_axis',(0.669666110505259,0.742662305789622,0.));
#604=DIRECTION('center_axis',(-3.05311331771918E-16,1.2490009027033E-16,
1.));
#605=DIRECTION('ref_axis',(0.669666110505259,0.742662305789622,-9.27585890334952E-17));
#606=DIRECTION('center_axis',(3.05311331771918E-16,-1.2490009027033E-16,
-1.));
#607=DIRECTION('ref_axis',(0.669666110505259,0.742662305789622,-9.27585890334952E-17));
#608=DIRECTION('',(0.,0.,1.));
#609=DIRECTION('center_axis',(1.32992948716151E-15,-1.,0.));
#610=DIRECTION('ref_axis',(1.,1.32992948716151E-15,3.05311331771918E-16));
#611=DIRECTION('',(-1.,-1.32992948716151E-15,-3.05311331771918E-16));
#612=DIRECTION('',(1.,1.32992948716151E-15,3.05311331771918E-16));
#613=DIRECTION('',(0.,0.,1.));
#614=DIRECTION('center_axis',(0.,0.,1.));
#615=DIRECTION('ref_axis',(-0.232005837576439,0.972714393504309,0.));
#616=DIRECTION('center_axis',(-3.05311331771918E-16,1.2490009027033E-16,
1.));
#617=DIRECTION('ref_axis',(-0.232005837576439,0.972714393504309,-1.21492115555937E-16));
#618=DIRECTION('center_axis',(3.05311331771918E-16,-1.2490009027033E-16,
-1.));
#619=DIRECTION('ref_axis',(-0.232005837576439,0.972714393504309,-1.21492115555937E-16));
#620=DIRECTION('',(0.,0.,1.));
#621=DIRECTION('center_axis',(0.911984143658348,-0.410225452301232,0.));
#622=DIRECTION('ref_axis',(0.410225452301232,0.911984143658348,1.13395773007895E-17));
#623=DIRECTION('',(-0.410225452301232,-0.911984143658348,-1.13395773007895E-17));
#624=DIRECTION('',(0.410225452301232,0.911984143658348,1.13395773007895E-17));
#625=DIRECTION('',(0.,0.,1.));
#626=DIRECTION('',(0.,0.,1.));
#627=DIRECTION('center_axis',(0.410225452301267,-0.911984143658332,0.));
#628=DIRECTION('ref_axis',(0.911984143658332,0.410225452301267,2.27201897431582E-16));
#629=DIRECTION('',(-0.911984143658332,-0.410225452301267,-2.27201897431582E-16));
#630=DIRECTION('',(0.911984143658332,0.410225452301267,2.27201897431582E-16));
#631=DIRECTION('',(0.,0.,1.));
#632=DIRECTION('center_axis',(0.,0.,1.));
#633=DIRECTION('ref_axis',(-0.742662305789623,0.669666110505258,0.));
#634=DIRECTION('center_axis',(-3.05311331771918E-16,1.2490009027033E-16,
1.));
#635=DIRECTION('ref_axis',(-0.742662305789623,0.669666110505258,-8.36413576530875E-17));
#636=DIRECTION('center_axis',(3.05311331771918E-16,-1.2490009027033E-16,
-1.));
#637=DIRECTION('ref_axis',(-0.742662305789623,0.669666110505258,-8.36413576530875E-17));
#638=DIRECTION('',(0.,0.,1.));
#639=DIRECTION('center_axis',(1.,-1.06394358972917E-14,0.));
#640=DIRECTION('ref_axis',(1.06394358972917E-14,1.,-1.24900090270327E-16));
#641=DIRECTION('',(-1.06394358972917E-14,-1.,1.24900090270327E-16));
#642=DIRECTION('',(1.06394358972917E-14,1.,-1.24900090270327E-16));
#643=DIRECTION('',(0.,0.,1.));
#644=DIRECTION('center_axis',(0.,0.,1.));
#645=DIRECTION('ref_axis',(-0.972714393504309,-0.232005837576436,0.));
#646=DIRECTION('center_axis',(-3.05311331771918E-16,1.2490009027033E-16,
1.));
#647=DIRECTION('ref_axis',(-0.972714393504309,-0.232005837576436,2.89775500565404E-17));
#648=DIRECTION('center_axis',(3.05311331771918E-16,-1.2490009027033E-16,
-1.));
#649=DIRECTION('ref_axis',(-0.972714393504309,-0.232005837576436,2.89775500565404E-17));
#650=DIRECTION('',(0.,0.,1.));
#651=DIRECTION('center_axis',(0.41022545230124,0.911984143658344,0.));
#652=DIRECTION('ref_axis',(-0.911984143658344,0.41022545230124,-3.29676289478813E-16));
#653=DIRECTION('',(0.911984143658344,-0.41022545230124,3.29676289478813E-16));
#654=DIRECTION('',(-0.911984143658344,0.41022545230124,-3.29676289478813E-16));
#655=DIRECTION('',(0.,0.,1.));
#656=DIRECTION('',(0.,0.,1.));
#657=DIRECTION('center_axis',(0.911984143658328,0.410225452301276,0.));
#658=DIRECTION('ref_axis',(-0.410225452301276,0.911984143658328,-2.39153381036875E-16));
#659=DIRECTION('',(0.410225452301276,-0.911984143658328,2.39153381036875E-16));
#660=DIRECTION('',(-0.410225452301276,0.911984143658328,-2.39153381036875E-16));
#661=DIRECTION('',(0.,0.,1.));
#662=DIRECTION('center_axis',(0.,0.,1.));
#663=DIRECTION('ref_axis',(-0.669666110505259,-0.742662305789622,0.));
#664=DIRECTION('center_axis',(-3.05311331771918E-16,1.2490009027033E-16,
1.));
#665=DIRECTION('ref_axis',(-0.669666110505259,-0.742662305789622,9.27585890334952E-17));
#666=DIRECTION('center_axis',(3.05311331771918E-16,-1.2490009027033E-16,
-1.));
#667=DIRECTION('ref_axis',(-0.669666110505259,-0.742662305789622,9.27585890334952E-17));
#668=DIRECTION('',(0.,0.,1.));
#669=DIRECTION('center_axis',(9.97447115371173E-15,1.,0.));
#670=DIRECTION('ref_axis',(-1.,9.97447115371173E-15,-3.05311331771919E-16));
#671=DIRECTION('',(1.,-9.97447115371173E-15,3.05311331771919E-16));
#672=DIRECTION('',(-1.,9.97447115371173E-15,-3.05311331771919E-16));
#673=DIRECTION('',(0.,0.,1.));
#674=DIRECTION('center_axis',(0.,0.,1.));
#675=DIRECTION('ref_axis',(0.232005837576418,-0.972714393504313,0.));
#676=DIRECTION('center_axis',(-3.05311331771918E-16,1.2490009027033E-16,
1.));
#677=DIRECTION('ref_axis',(0.232005837576418,-0.972714393504313,1.21492115555938E-16));
#678=DIRECTION('center_axis',(3.05311331771918E-16,-1.2490009027033E-16,
-1.));
#679=DIRECTION('ref_axis',(0.232005837576418,-0.972714393504313,1.21492115555938E-16));
#680=DIRECTION('',(0.,0.,1.));
#681=DIRECTION('center_axis',(-0.911984143658362,0.410225452301201,0.));
#682=DIRECTION('ref_axis',(-0.410225452301201,-0.911984143658362,-1.1339577300778E-17));
#683=DIRECTION('',(0.410225452301201,0.911984143658362,1.1339577300778E-17));
#684=DIRECTION('',(-0.410225452301201,-0.911984143658362,-1.1339577300778E-17));
#685=DIRECTION('',(0.,0.,1.));
#686=DIRECTION('',(0.,0.,1.));
#687=DIRECTION('center_axis',(-0.410225452301341,0.911984143658298,0.));
#688=DIRECTION('ref_axis',(-0.911984143658298,-0.410225452301341,-2.27201897431563E-16));
#689=DIRECTION('',(0.911984143658298,0.410225452301341,2.27201897431563E-16));
#690=DIRECTION('',(-0.911984143658298,-0.410225452301341,-2.27201897431563E-16));
#691=DIRECTION('',(0.,0.,1.));
#692=DIRECTION('center_axis',(0.,0.,1.));
#693=DIRECTION('ref_axis',(0.742662305789622,-0.669666110505259,0.));
#694=DIRECTION('center_axis',(-3.05311331771918E-16,1.2490009027033E-16,
1.));
#695=DIRECTION('ref_axis',(0.742662305789622,-0.669666110505259,8.36413576530876E-17));
#696=DIRECTION('center_axis',(3.05311331771918E-16,-1.2490009027033E-16,
-1.));
#697=DIRECTION('ref_axis',(0.742662305789622,-0.669666110505259,8.36413576530876E-17));
#698=DIRECTION('',(0.,0.,1.));
#699=DIRECTION('center_axis',(-1.,9.30950641013081E-15,0.));
#700=DIRECTION('ref_axis',(-9.30950641013081E-15,-1.,1.24900090270327E-16));
#701=DIRECTION('',(9.30950641013081E-15,1.,-1.24900090270327E-16));
#702=DIRECTION('',(-9.30950641013081E-15,-1.,1.24900090270327E-16));
#703=DIRECTION('center_axis',(0.,0.,1.));
#704=DIRECTION('ref_axis',(-1.,3.1345346664726E-48,0.));
#705=DIRECTION('center_axis',(-3.05311331771918E-16,1.2490009027033E-16,
1.));
#706=DIRECTION('ref_axis',(-1.,3.1345346664726E-48,-6.16297582203916E-33));
#707=DIRECTION('',(0.,0.,-1.));
#708=DIRECTION('center_axis',(3.05311331771918E-16,-1.2490009027033E-16,
-1.));
#709=DIRECTION('ref_axis',(-1.,3.1345346664726E-48,-6.16297582203916E-33));
#710=DIRECTION('center_axis',(-3.05311331771918E-16,1.2490009027033E-16,
1.));
#711=DIRECTION('ref_axis',(-1.,-3.81334128988672E-32,-3.05311331771918E-16));
#712=DIRECTION('center_axis',(-3.05311331771918E-16,1.2490009027033E-16,
1.));
#713=DIRECTION('ref_axis',(-1.,-3.81334128988672E-32,-3.05311331771918E-16));
#714=CARTESIAN_POINT('',(0.,0.,0.));
#715=CARTESIAN_POINT('Origin',(230.,30.0870857505902,48.9787234713502));
#716=CARTESIAN_POINT('',(244.,33.4262794006074,48.9787234713502));
#717=CARTESIAN_POINT('',(240.688926112831,39.7253985068126,48.9787234713502));
#718=CARTESIAN_POINT('Origin',(230.,30.0870857505902,48.9787234713502));
#719=CARTESIAN_POINT('',(244.,33.4262794006074,50.9787234713502));
#720=CARTESIAN_POINT('',(244.,33.4262794006074,48.9787234713502));
#721=CARTESIAN_POINT('',(240.688926112831,39.7253985068126,50.9787234713502));
#722=CARTESIAN_POINT('Origin',(230.,30.0870857505902,50.9787234713502));
#723=CARTESIAN_POINT('',(240.688926112831,39.7253985068126,48.9787234713502));
#724=CARTESIAN_POINT('Origin',(240.552616731088,39.786712706371,48.9787234713502));
#725=CARTESIAN_POINT('',(240.552616731088,39.786712706371,48.9787234713502));
#726=CARTESIAN_POINT('',(237.978639397248,40.9445300032288,48.9787234713502));
#727=CARTESIAN_POINT('',(240.552616731088,39.786712706371,50.9787234713502));
#728=CARTESIAN_POINT('',(237.978639397248,40.9445300032288,50.9787234713502));
#729=CARTESIAN_POINT('',(240.552616731088,39.786712706371,48.9787234713502));
#730=CARTESIAN_POINT('Ctrl Pts',(239.699626955781,40.6397024816781,48.9787234713502));
#731=CARTESIAN_POINT('Ctrl Pts',(239.699626955781,40.6397024816781,50.9787234713502));
#732=CARTESIAN_POINT('Ctrl Pts',(239.784170265645,40.4517517886725,48.9787234713502));
#733=CARTESIAN_POINT('Ctrl Pts',(239.784170265645,40.4517517886725,50.9787234713502));
#734=CARTESIAN_POINT('Ctrl Pts',(239.90219092784,40.2807317667164,48.9787234713502));
#735=CARTESIAN_POINT('Ctrl Pts',(239.90219092784,40.2807317667164,50.9787234713502));
#736=CARTESIAN_POINT('Ctrl Pts',(240.193646016127,39.9892766784298,48.9787234713502));
#737=CARTESIAN_POINT('Ctrl Pts',(240.193646016127,39.9892766784298,50.9787234713502));
#738=CARTESIAN_POINT('Ctrl Pts',(240.364666038083,39.8712560162352,48.9787234713502));
#739=CARTESIAN_POINT('Ctrl Pts',(240.364666038083,39.8712560162352,50.9787234713502));
#740=CARTESIAN_POINT('Ctrl Pts',(240.552616731088,39.786712706371,48.9787234713502));
#741=CARTESIAN_POINT('Ctrl Pts',(240.552616731088,39.786712706371,50.9787234713502));
#742=CARTESIAN_POINT('',(239.699626955781,40.6397024816781,48.9787234713502));
#743=CARTESIAN_POINT('Ctrl Pts',(240.552616731088,39.786712706371,48.9787234713502));
#744=CARTESIAN_POINT('Ctrl Pts',(240.364666038083,39.8712560162352,48.9787234713502));
#745=CARTESIAN_POINT('Ctrl Pts',(240.193646016127,39.9892766784298,48.9787234713502));
#746=CARTESIAN_POINT('Ctrl Pts',(240.047918471983,40.1350042225731,48.9787234713502));
#747=CARTESIAN_POINT('Ctrl Pts',(239.90219092784,40.2807317667164,48.9787234713502));
#748=CARTESIAN_POINT('Ctrl Pts',(239.784170265645,40.4517517886725,48.9787234713502));
#749=CARTESIAN_POINT('Ctrl Pts',(239.699626955781,40.6397024816781,48.9787234713502));
#750=CARTESIAN_POINT('',(239.699626955781,40.6397024816781,50.9787234713502));
#751=CARTESIAN_POINT('Ctrl Pts',(239.699626955781,40.6397024816781,50.9787234713502));
#752=CARTESIAN_POINT('Ctrl Pts',(239.784170265645,40.4517517886725,50.9787234713502));
#753=CARTESIAN_POINT('Ctrl Pts',(239.90219092784,40.2807317667164,50.9787234713502));
#754=CARTESIAN_POINT('Ctrl Pts',(240.047918471983,40.1350042225731,50.9787234713502));
#755=CARTESIAN_POINT('Ctrl Pts',(240.193646016127,39.9892766784298,50.9787234713502));
#756=CARTESIAN_POINT('Ctrl Pts',(240.364666038083,39.8712560162352,50.9787234713502));
#757=CARTESIAN_POINT('Ctrl Pts',(240.552616731088,39.786712706371,50.9787234713502));
#758=CARTESIAN_POINT('',(239.699626955781,40.6397024816781,48.9787234713502));
#759=CARTESIAN_POINT('Origin',(239.638312756223,40.7760118634212,48.9787234713502));
#760=CARTESIAN_POINT('',(239.638312756223,40.7760118634212,48.9787234713502));
#761=CARTESIAN_POINT('',(240.82678715286,38.1338798387097,48.9787234713502));
#762=CARTESIAN_POINT('',(239.638312756223,40.7760118634212,50.9787234713502));
#763=CARTESIAN_POINT('',(240.82678715286,38.1338798387097,50.9787234713502));
#764=CARTESIAN_POINT('',(239.638312756223,40.7760118634212,48.9787234713502));
#765=CARTESIAN_POINT('Origin',(230.,30.0870857505902,48.9787234713502));
#766=CARTESIAN_POINT('',(233.339193650018,44.0870857505903,48.9787234713502));
#767=CARTESIAN_POINT('Origin',(230.,30.0870857505902,48.9787234713502));
#768=CARTESIAN_POINT('',(233.339193650018,44.0870857505903,50.9787234713502));
#769=CARTESIAN_POINT('Origin',(230.,30.0870857505902,50.9787234713502));
#770=CARTESIAN_POINT('',(233.339193650018,44.0870857505903,48.9787234713502));
#771=CARTESIAN_POINT('Origin',(226.660806349983,44.0870857505902,48.9787234713502));
#772=CARTESIAN_POINT('',(226.660806349983,44.0870857505902,48.9787234713502));
#773=CARTESIAN_POINT('',(228.330403174992,44.0870857505902,48.9787234713502));
#774=CARTESIAN_POINT('',(226.660806349983,44.0870857505902,50.9787234713502));
#775=CARTESIAN_POINT('',(228.330403174992,44.0870857505902,50.9787234713502));
#776=CARTESIAN_POINT('',(226.660806349983,44.0870857505902,48.9787234713502));
#777=CARTESIAN_POINT('Origin',(230.,30.0870857505902,48.9787234713502));
#778=CARTESIAN_POINT('',(220.361687243778,40.7760118634212,48.9787234713502));
#779=CARTESIAN_POINT('Origin',(230.,30.0870857505902,48.9787234713502));
#780=CARTESIAN_POINT('',(220.361687243778,40.7760118634212,50.9787234713502));
#781=CARTESIAN_POINT('Origin',(230.,30.0870857505902,50.9787234713502));
#782=CARTESIAN_POINT('',(220.361687243778,40.7760118634212,48.9787234713502));
#783=CARTESIAN_POINT('Origin',(220.300373044219,40.6397024816781,48.9787234713502));
#784=CARTESIAN_POINT('',(220.300373044219,40.6397024816781,48.9787234713502));
#785=CARTESIAN_POINT('',(219.142555747362,38.0657251478381,48.9787234713502));
#786=CARTESIAN_POINT('',(220.300373044219,40.6397024816781,50.9787234713502));
#787=CARTESIAN_POINT('',(219.142555747362,38.0657251478381,50.9787234713502));
#788=CARTESIAN_POINT('',(220.300373044219,40.6397024816781,48.9787234713502));
#789=CARTESIAN_POINT('Ctrl Pts',(219.447383268913,39.7867127063711,48.9787234713502));
#790=CARTESIAN_POINT('Ctrl Pts',(219.447383268913,39.7867127063711,50.9787234713502));
#791=CARTESIAN_POINT('Ctrl Pts',(219.635333961918,39.8712560162353,48.9787234713502));
#792=CARTESIAN_POINT('Ctrl Pts',(219.635333961918,39.8712560162353,50.9787234713502));
#793=CARTESIAN_POINT('Ctrl Pts',(219.806353983874,39.9892766784298,48.9787234713502));
#794=CARTESIAN_POINT('Ctrl Pts',(219.806353983874,39.9892766784298,50.9787234713502));
#795=CARTESIAN_POINT('Ctrl Pts',(220.097809072161,40.2807317667164,48.9787234713502));
#796=CARTESIAN_POINT('Ctrl Pts',(220.097809072161,40.2807317667164,50.9787234713502));
#797=CARTESIAN_POINT('Ctrl Pts',(220.215829734355,40.4517517886725,48.9787234713502));
#798=CARTESIAN_POINT('Ctrl Pts',(220.215829734355,40.4517517886725,50.9787234713502));
#799=CARTESIAN_POINT('Ctrl Pts',(220.30037304422,40.6397024816781,48.9787234713502));
#800=CARTESIAN_POINT('Ctrl Pts',(220.30037304422,40.6397024816781,50.9787234713502));
#801=CARTESIAN_POINT('',(219.447383268912,39.786712706371,48.9787234713502));
#802=CARTESIAN_POINT('Ctrl Pts',(220.30037304422,40.6397024816781,48.9787234713502));
#803=CARTESIAN_POINT('Ctrl Pts',(220.215829734355,40.4517517886725,48.9787234713502));
#804=CARTESIAN_POINT('Ctrl Pts',(220.097809072161,40.2807317667164,48.9787234713502));
#805=CARTESIAN_POINT('Ctrl Pts',(219.952081528017,40.1350042225731,48.9787234713502));
#806=CARTESIAN_POINT('Ctrl Pts',(219.806353983874,39.9892766784298,48.9787234713502));
#807=CARTESIAN_POINT('Ctrl Pts',(219.635333961918,39.8712560162353,48.9787234713502));
#808=CARTESIAN_POINT('Ctrl Pts',(219.447383268913,39.7867127063711,48.9787234713502));
#809=CARTESIAN_POINT('',(219.447383268912,39.786712706371,50.9787234713502));
#810=CARTESIAN_POINT('Ctrl Pts',(219.447383268913,39.7867127063711,50.9787234713502));
#811=CARTESIAN_POINT('Ctrl Pts',(219.635333961918,39.8712560162353,50.9787234713502));
#812=CARTESIAN_POINT('Ctrl Pts',(219.806353983874,39.9892766784298,50.9787234713502));
#813=CARTESIAN_POINT('Ctrl Pts',(219.952081528017,40.1350042225731,50.9787234713502));
#814=CARTESIAN_POINT('Ctrl Pts',(220.097809072161,40.2807317667164,50.9787234713502));
#815=CARTESIAN_POINT('Ctrl Pts',(220.215829734355,40.4517517886725,50.9787234713502));
#816=CARTESIAN_POINT('Ctrl Pts',(220.30037304422,40.6397024816781,50.9787234713502));
#817=CARTESIAN_POINT('',(219.447383268912,39.786712706371,48.9787234713502));
#818=CARTESIAN_POINT('Origin',(219.311073887169,39.7253985068125,48.9787234713502));
#819=CARTESIAN_POINT('',(219.311073887169,39.7253985068125,48.9787234713502));
#820=CARTESIAN_POINT('',(221.953205911881,40.9138729034495,48.9787234713502));
#821=CARTESIAN_POINT('',(219.311073887169,39.7253985068125,50.9787234713502));
#822=CARTESIAN_POINT('',(221.953205911881,40.9138729034495,50.9787234713502));
#823=CARTESIAN_POINT('',(219.311073887169,39.7253985068125,48.9787234713502));
#824=CARTESIAN_POINT('Origin',(230.,30.0870857505902,48.9787234713502));
#825=CARTESIAN_POINT('',(216.,33.4262794006079,48.9787234713502));
#826=CARTESIAN_POINT('Origin',(230.,30.0870857505902,48.9787234713502));
#827=CARTESIAN_POINT('',(216.,33.4262794006079,50.9787234713502));
#828=CARTESIAN_POINT('Origin',(230.,30.0870857505902,50.9787234713502));
#829=CARTESIAN_POINT('',(216.,33.4262794006079,48.9787234713502));
#830=CARTESIAN_POINT('Origin',(216.,26.7478921005728,48.9787234713502));
#831=CARTESIAN_POINT('',(216.,26.7478921005728,48.9787234713502));
#832=CARTESIAN_POINT('',(216.,28.4174889255816,48.9787234713502));
#833=CARTESIAN_POINT('',(216.,26.7478921005728,50.9787234713502));
#834=CARTESIAN_POINT('',(216.,28.4174889255816,50.9787234713502));
#835=CARTESIAN_POINT('',(216.,26.7478921005728,48.9787234713502));
#836=CARTESIAN_POINT('Origin',(230.,30.0870857505902,48.9787234713502));
#837=CARTESIAN_POINT('',(219.311073887169,20.4487729943679,48.9787234713502));
#838=CARTESIAN_POINT('Origin',(230.,30.0870857505902,48.9787234713502));
#839=CARTESIAN_POINT('',(219.311073887169,20.4487729943679,50.9787234713502));
#840=CARTESIAN_POINT('Origin',(230.,30.0870857505902,50.9787234713502));
#841=CARTESIAN_POINT('',(219.311073887169,20.4487729943679,48.9787234713502));
#842=CARTESIAN_POINT('Origin',(219.447383268912,20.3874587948094,48.9787234713502));
#843=CARTESIAN_POINT('',(219.447383268912,20.3874587948094,48.9787234713502));
#844=CARTESIAN_POINT('',(222.021360602752,19.2296414979516,48.9787234713502));
#845=CARTESIAN_POINT('',(219.447383268912,20.3874587948094,50.9787234713502));
#846=CARTESIAN_POINT('',(222.021360602752,19.2296414979516,50.9787234713502));
#847=CARTESIAN_POINT('',(219.447383268912,20.3874587948094,48.9787234713502));
#848=CARTESIAN_POINT('Ctrl Pts',(220.300373044219,19.5344690195024,48.9787234713502));
#849=CARTESIAN_POINT('Ctrl Pts',(220.300373044219,19.5344690195024,50.9787234713502));
#850=CARTESIAN_POINT('Ctrl Pts',(220.215829734355,19.722419712508,48.9787234713502));
#851=CARTESIAN_POINT('Ctrl Pts',(220.215829734355,19.722419712508,50.9787234713502));
#852=CARTESIAN_POINT('Ctrl Pts',(220.097809072161,19.893439734464,48.9787234713502));
#853=CARTESIAN_POINT('Ctrl Pts',(220.097809072161,19.893439734464,50.9787234713502));
#854=CARTESIAN_POINT('Ctrl Pts',(219.806353983874,20.1848948227507,48.9787234713502));
#855=CARTESIAN_POINT('Ctrl Pts',(219.806353983874,20.1848948227507,50.9787234713502));
#856=CARTESIAN_POINT('Ctrl Pts',(219.635333961918,20.3029154849452,48.9787234713502));
#857=CARTESIAN_POINT('Ctrl Pts',(219.635333961918,20.3029154849452,50.9787234713502));
#858=CARTESIAN_POINT('Ctrl Pts',(219.447383268912,20.3874587948094,48.9787234713502));
#859=CARTESIAN_POINT('Ctrl Pts',(219.447383268912,20.3874587948094,50.9787234713502));
#860=CARTESIAN_POINT('',(220.300373044219,19.5344690195024,48.9787234713502));
#861=CARTESIAN_POINT('Ctrl Pts',(219.447383268912,20.3874587948094,48.9787234713502));
#862=CARTESIAN_POINT('Ctrl Pts',(219.635333961918,20.3029154849452,48.9787234713502));
#863=CARTESIAN_POINT('Ctrl Pts',(219.806353983874,20.1848948227507,48.9787234713502));
#864=CARTESIAN_POINT('Ctrl Pts',(219.952081528017,20.0391672786074,48.9787234713502));
#865=CARTESIAN_POINT('Ctrl Pts',(220.097809072161,19.893439734464,48.9787234713502));
#866=CARTESIAN_POINT('Ctrl Pts',(220.215829734355,19.722419712508,48.9787234713502));
#867=CARTESIAN_POINT('Ctrl Pts',(220.300373044219,19.5344690195024,48.9787234713502));
#868=CARTESIAN_POINT('',(220.300373044219,19.5344690195024,50.9787234713502));
#869=CARTESIAN_POINT('Ctrl Pts',(220.300373044219,19.5344690195024,50.9787234713502));
#870=CARTESIAN_POINT('Ctrl Pts',(220.215829734355,19.722419712508,50.9787234713502));
#871=CARTESIAN_POINT('Ctrl Pts',(220.097809072161,19.893439734464,50.9787234713502));
#872=CARTESIAN_POINT('Ctrl Pts',(219.952081528017,20.0391672786074,50.9787234713502));
#873=CARTESIAN_POINT('Ctrl Pts',(219.806353983874,20.1848948227507,50.9787234713502));
#874=CARTESIAN_POINT('Ctrl Pts',(219.635333961918,20.3029154849452,50.9787234713502));
#875=CARTESIAN_POINT('Ctrl Pts',(219.447383268912,20.3874587948094,50.9787234713502));
#876=CARTESIAN_POINT('',(220.300373044219,19.5344690195024,48.9787234713502));
#877=CARTESIAN_POINT('Origin',(220.361687243778,19.3981596377593,48.9787234713502));
#878=CARTESIAN_POINT('',(220.361687243778,19.3981596377593,48.9787234713502));
#879=CARTESIAN_POINT('',(219.173212847141,22.0402916624705,48.9787234713502));
#880=CARTESIAN_POINT('',(220.361687243778,19.3981596377593,50.9787234713502));
#881=CARTESIAN_POINT('',(219.173212847141,22.0402916624705,50.9787234713502));
#882=CARTESIAN_POINT('',(220.361687243778,19.3981596377593,48.9787234713502));
#883=CARTESIAN_POINT('Origin',(230.,30.0870857505902,48.9787234713502));
#884=CARTESIAN_POINT('',(226.660806349983,16.0870857505902,48.9787234713502));
#885=CARTESIAN_POINT('Origin',(230.,30.0870857505902,48.9787234713502));
#886=CARTESIAN_POINT('',(226.660806349983,16.0870857505902,50.9787234713502));
#887=CARTESIAN_POINT('Origin',(230.,30.0870857505902,50.9787234713502));
#888=CARTESIAN_POINT('',(226.660806349983,16.0870857505902,48.9787234713502));
#889=CARTESIAN_POINT('Origin',(233.339193650017,16.0870857505901,48.9787234713502));
#890=CARTESIAN_POINT('',(233.339193650017,16.0870857505901,48.9787234713502));
#891=CARTESIAN_POINT('',(231.669596825009,16.0870857505902,48.9787234713502));
#892=CARTESIAN_POINT('',(233.339193650017,16.0870857505901,50.9787234713502));
#893=CARTESIAN_POINT('',(231.669596825009,16.0870857505902,50.9787234713502));
#894=CARTESIAN_POINT('',(233.339193650017,16.0870857505901,48.9787234713502));
#895=CARTESIAN_POINT('Origin',(230.,30.0870857505902,48.9787234713502));
#896=CARTESIAN_POINT('',(239.638312756223,19.3981596377593,48.9787234713502));
#897=CARTESIAN_POINT('Origin',(230.,30.0870857505902,48.9787234713502));
#898=CARTESIAN_POINT('',(239.638312756223,19.3981596377593,50.9787234713502));
#899=CARTESIAN_POINT('Origin',(230.,30.0870857505902,50.9787234713502));
#900=CARTESIAN_POINT('',(239.638312756223,19.3981596377593,48.9787234713502));
#901=CARTESIAN_POINT('Origin',(239.699626955781,19.5344690195023,48.9787234713502));
#902=CARTESIAN_POINT('',(239.699626955781,19.5344690195023,48.9787234713502));
#903=CARTESIAN_POINT('',(240.857444252639,22.1084463533426,48.9787234713502));
#904=CARTESIAN_POINT('',(239.699626955781,19.5344690195023,50.9787234713502));
#905=CARTESIAN_POINT('',(240.857444252639,22.1084463533426,50.9787234713502));
#906=CARTESIAN_POINT('',(239.699626955781,19.5344690195023,48.9787234713502));
#907=CARTESIAN_POINT('Ctrl Pts',(240.552616731088,20.3874587948094,48.9787234713502));
#908=CARTESIAN_POINT('Ctrl Pts',(240.552616731088,20.3874587948094,50.9787234713502));
#909=CARTESIAN_POINT('Ctrl Pts',(240.364666038083,20.3029154849452,48.9787234713502));
#910=CARTESIAN_POINT('Ctrl Pts',(240.364666038083,20.3029154849452,50.9787234713502));
#911=CARTESIAN_POINT('Ctrl Pts',(240.193646016127,20.1848948227506,48.9787234713502));
#912=CARTESIAN_POINT('Ctrl Pts',(240.193646016127,20.1848948227506,50.9787234713502));
#913=CARTESIAN_POINT('Ctrl Pts',(239.90219092784,19.893439734464,48.9787234713502));
#914=CARTESIAN_POINT('Ctrl Pts',(239.90219092784,19.893439734464,50.9787234713502));
#915=CARTESIAN_POINT('Ctrl Pts',(239.784170265645,19.7224197125079,48.9787234713502));
#916=CARTESIAN_POINT('Ctrl Pts',(239.784170265645,19.7224197125079,50.9787234713502));
#917=CARTESIAN_POINT('Ctrl Pts',(239.699626955781,19.5344690195024,48.9787234713502));
#918=CARTESIAN_POINT('Ctrl Pts',(239.699626955781,19.5344690195024,50.9787234713502));
#919=CARTESIAN_POINT('',(240.552616731088,20.3874587948094,48.9787234713502));
#920=CARTESIAN_POINT('Ctrl Pts',(239.699626955781,19.5344690195024,48.9787234713502));
#921=CARTESIAN_POINT('Ctrl Pts',(239.784170265645,19.7224197125079,48.9787234713502));
#922=CARTESIAN_POINT('Ctrl Pts',(239.90219092784,19.893439734464,48.9787234713502));
#923=CARTESIAN_POINT('Ctrl Pts',(240.047918471983,20.0391672786073,48.9787234713502));
#924=CARTESIAN_POINT('Ctrl Pts',(240.193646016127,20.1848948227506,48.9787234713502));
#925=CARTESIAN_POINT('Ctrl Pts',(240.364666038083,20.3029154849452,48.9787234713502));
#926=CARTESIAN_POINT('Ctrl Pts',(240.552616731088,20.3874587948094,48.9787234713502));
#927=CARTESIAN_POINT('',(240.552616731088,20.3874587948094,50.9787234713502));
#928=CARTESIAN_POINT('Ctrl Pts',(240.552616731088,20.3874587948094,50.9787234713502));
#929=CARTESIAN_POINT('Ctrl Pts',(240.364666038083,20.3029154849452,50.9787234713502));
#930=CARTESIAN_POINT('Ctrl Pts',(240.193646016127,20.1848948227506,50.9787234713502));
#931=CARTESIAN_POINT('Ctrl Pts',(240.047918471983,20.0391672786073,50.9787234713502));
#932=CARTESIAN_POINT('Ctrl Pts',(239.90219092784,19.893439734464,50.9787234713502));
#933=CARTESIAN_POINT('Ctrl Pts',(239.784170265645,19.7224197125079,50.9787234713502));
#934=CARTESIAN_POINT('Ctrl Pts',(239.699626955781,19.5344690195024,50.9787234713502));
#935=CARTESIAN_POINT('',(240.552616731088,20.3874587948094,48.9787234713502));
#936=CARTESIAN_POINT('Origin',(240.688926112831,20.4487729943679,48.9787234713502));
#937=CARTESIAN_POINT('',(240.688926112831,20.4487729943679,48.9787234713502));
#938=CARTESIAN_POINT('',(238.046794088121,19.2602985977309,48.9787234713502));
#939=CARTESIAN_POINT('',(240.688926112831,20.4487729943679,50.9787234713502));
#940=CARTESIAN_POINT('',(238.046794088121,19.2602985977309,50.9787234713502));
#941=CARTESIAN_POINT('',(240.688926112831,20.4487729943679,48.9787234713502));
#942=CARTESIAN_POINT('Origin',(230.,30.0870857505902,48.9787234713502));
#943=CARTESIAN_POINT('',(244.,26.7478921005728,48.9787234713502));
#944=CARTESIAN_POINT('Origin',(230.,30.0870857505902,48.9787234713502));
#945=CARTESIAN_POINT('',(244.,26.7478921005728,50.9787234713502));
#946=CARTESIAN_POINT('Origin',(230.,30.0870857505902,50.9787234713502));
#947=CARTESIAN_POINT('',(244.,26.7478921005728,48.9787234713502));
#948=CARTESIAN_POINT('Origin',(244.,33.4262794006074,48.9787234713502));
#949=CARTESIAN_POINT('',(244.,31.7566825755988,48.9787234713502));
#950=CARTESIAN_POINT('',(244.,31.7566825755988,50.9787234713502));
#951=CARTESIAN_POINT('Origin',(230.,30.0870857505902,48.9787234713502));
#952=CARTESIAN_POINT('',(250.7,30.0870857505902,50.9787234713502));
#953=CARTESIAN_POINT('Origin',(230.,30.0870857505902,50.9787234713502));
#954=CARTESIAN_POINT('',(250.7,30.0870857505902,48.9787234713502));
#955=CARTESIAN_POINT('',(250.7,30.0870857505902,48.9787234713502));
#956=CARTESIAN_POINT('Origin',(230.,30.0870857505902,48.9787234713502));
#957=CARTESIAN_POINT('Origin',(230.,30.0870857505902,50.9787234713502));
#958=CARTESIAN_POINT('Origin',(230.,30.0870857505902,48.9787234713502));
#959=UNCERTAINTY_MEASURE_WITH_UNIT(LENGTH_MEASURE(0.01),#963,
'DISTANCE_ACCURACY_VALUE',
'Maximum model space distance between geometric entities at asserted c
onnectivities');
#960=UNCERTAINTY_MEASURE_WITH_UNIT(LENGTH_MEASURE(0.01),#963,
'DISTANCE_ACCURACY_VALUE',
'Maximum model space distance between geometric entities at asserted c
onnectivities');
#961=(
GEOMETRIC_REPRESENTATION_CONTEXT(3)
GLOBAL_UNCERTAINTY_ASSIGNED_CONTEXT((#959))
GLOBAL_UNIT_ASSIGNED_CONTEXT((#963,#965,#966))
REPRESENTATION_CONTEXT('','3D')
);
#962=(
GEOMETRIC_REPRESENTATION_CONTEXT(3)
GLOBAL_UNCERTAINTY_ASSIGNED_CONTEXT((#960))
GLOBAL_UNIT_ASSIGNED_CONTEXT((#963,#965,#966))
REPRESENTATION_CONTEXT('','3D')
);
#963=(
LENGTH_UNIT()
NAMED_UNIT(*)
SI_UNIT(.MILLI.,.METRE.)
);
#964=(
LENGTH_UNIT()
NAMED_UNIT(*)
SI_UNIT($,.METRE.)
);
#965=(
NAMED_UNIT(*)
PLANE_ANGLE_UNIT()
SI_UNIT($,.RADIAN.)
);
#966=(
NAMED_UNIT(*)
SI_UNIT($,.STERADIAN.)
SOLID_ANGLE_UNIT()
);
#967=SHAPE_DEFINITION_REPRESENTATION(#968,#969);
#968=PRODUCT_DEFINITION_SHAPE('',$,#971);
#969=SHAPE_REPRESENTATION('',(#539),#961);
#970=PRODUCT_DEFINITION_CONTEXT('part definition',#975,'design');
#971=PRODUCT_DEFINITION('2026-08-17-19-32-29-619','FusionComponent',#972,
#970);
#972=PRODUCT_DEFINITION_FORMATION('',$,#977);
#973=PRODUCT_RELATED_PRODUCT_CATEGORY('FusionComponent',
'FusionComponent',(#977));
#974=APPLICATION_PROTOCOL_DEFINITION('international standard',
'automotive_design',2009,#975);
#975=APPLICATION_CONTEXT(
'Core Data for Automotive Mechanical Design Process');
#976=PRODUCT_CONTEXT('part definition',#975,'mechanical');
#977=PRODUCT('2026-08-17-19-32-29-619','FusionComponent',$,(#976));
#978=PRESENTATION_STYLE_ASSIGNMENT((#980));
#979=PRESENTATION_STYLE_ASSIGNMENT((#981));
#980=SURFACE_STYLE_USAGE(.BOTH.,#982);
#981=SURFACE_STYLE_USAGE(.BOTH.,#983);
#982=SURFACE_SIDE_STYLE('',(#984));
#983=SURFACE_SIDE_STYLE('',(#985));
#984=SURFACE_STYLE_FILL_AREA(#986);
#985=SURFACE_STYLE_FILL_AREA(#987);
#986=FILL_AREA_STYLE('Steel - Satin',(#988));
#987=FILL_AREA_STYLE('Rubber - Soft',(#989));
#988=FILL_AREA_STYLE_COLOUR('Steel - Satin',#990);
#989=FILL_AREA_STYLE_COLOUR('Rubber - Soft',#991);
#990=COLOUR_RGB('Steel - Satin',0.627450980392157,0.627450980392157,0.627450980392157);
#991=COLOUR_RGB('Rubber - Soft',0.152941176470588,0.152941176470588,0.152941176470588);
ENDSEC;
END-ISO-10303-21;
