ISO-10303-21;
HEADER;
/* Generated by software containing ST-Developer
 * from STEP Tools, Inc. (www.steptools.com) 
 */

FILE_DESCRIPTION(
/* description */ (''),
/* implementation_level */ '2;1');

FILE_NAME(
/* name */ 'Main Orion Gasket.step',
/* time_stamp */ '2026-08-17T19:32:18+05:30',
/* author */ (''),
/* organization */ (''),
/* preprocessor_version */ 'ST-DEVELOPER v20.1',
/* originating_system */ 'Autodesk Translation Framework v15.8.0.0',
/* authorisation */ '');

FILE_SCHEMA (('AUTOMOTIVE_DESIGN { 1 0 10303 214 3 1 1 }'));
ENDSEC;

DATA;
#10=MECHANICAL_DESIGN_GEOMETRIC_PRESENTATION_REPRESENTATION('',(#13),#583);
#11=SHAPE_REPRESENTATION_RELATIONSHIP('SRR','None',#590,#12);
#12=ADVANCED_BREP_SHAPE_REPRESENTATION('',(#14),#582);
#13=STYLED_ITEM('',(#600),#14);
#14=MANIFOLD_SOLID_BREP('Body1',#363);
#15=FACE_BOUND('',#36,.T.);
#16=FACE_BOUND('',#54,.T.);
#17=FACE_OUTER_BOUND('',#35,.T.);
#18=FACE_OUTER_BOUND('',#37,.T.);
#19=FACE_OUTER_BOUND('',#38,.T.);
#20=FACE_OUTER_BOUND('',#39,.T.);
#21=FACE_OUTER_BOUND('',#40,.T.);
#22=FACE_OUTER_BOUND('',#41,.T.);
#23=FACE_OUTER_BOUND('',#42,.T.);
#24=FACE_OUTER_BOUND('',#43,.T.);
#25=FACE_OUTER_BOUND('',#44,.T.);
#26=FACE_OUTER_BOUND('',#45,.T.);
#27=FACE_OUTER_BOUND('',#46,.T.);
#28=FACE_OUTER_BOUND('',#47,.T.);
#29=FACE_OUTER_BOUND('',#48,.T.);
#30=FACE_OUTER_BOUND('',#49,.T.);
#31=FACE_OUTER_BOUND('',#50,.T.);
#32=FACE_OUTER_BOUND('',#51,.T.);
#33=FACE_OUTER_BOUND('',#52,.T.);
#34=FACE_OUTER_BOUND('',#53,.T.);
#35=EDGE_LOOP('',(#231,#232,#233,#234,#235,#236,#237,#238));
#36=EDGE_LOOP('',(#239,#240,#241,#242,#243,#244,#245,#246));
#37=EDGE_LOOP('',(#247,#248,#249,#250));
#38=EDGE_LOOP('',(#251,#252,#253,#254));
#39=EDGE_LOOP('',(#255,#256,#257,#258));
#40=EDGE_LOOP('',(#259,#260,#261,#262));
#41=EDGE_LOOP('',(#263,#264,#265,#266));
#42=EDGE_LOOP('',(#267,#268,#269,#270));
#43=EDGE_LOOP('',(#271,#272,#273,#274));
#44=EDGE_LOOP('',(#275,#276,#277,#278));
#45=EDGE_LOOP('',(#279,#280,#281,#282));
#46=EDGE_LOOP('',(#283,#284,#285,#286));
#47=EDGE_LOOP('',(#287,#288,#289,#290));
#48=EDGE_LOOP('',(#291,#292,#293,#294));
#49=EDGE_LOOP('',(#295,#296,#297,#298));
#50=EDGE_LOOP('',(#299,#300,#301,#302));
#51=EDGE_LOOP('',(#303,#304,#305,#306));
#52=EDGE_LOOP('',(#307,#308,#309,#310));
#53=EDGE_LOOP('',(#311,#312,#313,#314,#315,#316,#317,#318));
#54=EDGE_LOOP('',(#319,#320,#321,#322,#323,#324,#325,#326));
#55=LINE('',#485,#103);
#56=LINE('',#487,#104);
#57=LINE('',#489,#105);
#58=LINE('',#491,#106);
#59=LINE('',#493,#107);
#60=LINE('',#495,#108);
#61=LINE('',#497,#109);
#62=LINE('',#498,#110);
#63=LINE('',#501,#111);
#64=LINE('',#503,#112);
#65=LINE('',#505,#113);
#66=LINE('',#507,#114);
#67=LINE('',#509,#115);
#68=LINE('',#511,#116);
#69=LINE('',#513,#117);
#70=LINE('',#514,#118);
#71=LINE('',#517,#119);
#72=LINE('',#519,#120);
#73=LINE('',#520,#121);
#74=LINE('',#523,#122);
#75=LINE('',#524,#123);
#76=LINE('',#527,#124);
#77=LINE('',#528,#125);
#78=LINE('',#531,#126);
#79=LINE('',#532,#127);
#80=LINE('',#535,#128);
#81=LINE('',#537,#129);
#82=LINE('',#538,#130);
#83=LINE('',#541,#131);
#84=LINE('',#542,#132);
#85=LINE('',#545,#133);
#86=LINE('',#546,#134);
#87=LINE('',#549,#135);
#88=LINE('',#550,#136);
#89=LINE('',#553,#137);
#90=LINE('',#554,#138);
#91=LINE('',#557,#139);
#92=LINE('',#558,#140);
#93=LINE('',#561,#141);
#94=LINE('',#562,#142);
#95=LINE('',#564,#143);
#96=LINE('',#567,#144);
#97=LINE('',#568,#145);
#98=LINE('',#571,#146);
#99=LINE('',#572,#147);
#100=LINE('',#575,#148);
#101=LINE('',#576,#149);
#102=LINE('',#578,#150);
#103=VECTOR('',#399,10.);
#104=VECTOR('',#400,10.);
#105=VECTOR('',#401,10.);
#106=VECTOR('',#402,10.);
#107=VECTOR('',#403,10.);
#108=VECTOR('',#404,10.);
#109=VECTOR('',#405,10.);
#110=VECTOR('',#406,10.);
#111=VECTOR('',#407,10.);
#112=VECTOR('',#408,10.);
#113=VECTOR('',#409,10.);
#114=VECTOR('',#410,10.);
#115=VECTOR('',#411,10.);
#116=VECTOR('',#412,10.);
#117=VECTOR('',#413,10.);
#118=VECTOR('',#414,10.);
#119=VECTOR('',#417,10.);
#120=VECTOR('',#418,10.);
#121=VECTOR('',#419,10.);
#122=VECTOR('',#422,10.);
#123=VECTOR('',#423,10.);
#124=VECTOR('',#426,10.);
#125=VECTOR('',#427,10.);
#126=VECTOR('',#430,10.);
#127=VECTOR('',#431,10.);
#128=VECTOR('',#434,10.);
#129=VECTOR('',#435,10.);
#130=VECTOR('',#436,10.);
#131=VECTOR('',#439,10.);
#132=VECTOR('',#440,10.);
#133=VECTOR('',#443,10.);
#134=VECTOR('',#444,10.);
#135=VECTOR('',#447,10.);
#136=VECTOR('',#448,10.);
#137=VECTOR('',#451,10.);
#138=VECTOR('',#452,10.);
#139=VECTOR('',#455,10.);
#140=VECTOR('',#456,10.);
#141=VECTOR('',#459,10.);
#142=VECTOR('',#460,10.);
#143=VECTOR('',#463,10.);
#144=VECTOR('',#466,10.);
#145=VECTOR('',#467,10.);
#146=VECTOR('',#470,10.);
#147=VECTOR('',#471,10.);
#148=VECTOR('',#474,10.);
#149=VECTOR('',#475,10.);
#150=VECTOR('',#478,10.);
#151=VERTEX_POINT('',#483);
#152=VERTEX_POINT('',#484);
#153=VERTEX_POINT('',#486);
#154=VERTEX_POINT('',#488);
#155=VERTEX_POINT('',#490);
#156=VERTEX_POINT('',#492);
#157=VERTEX_POINT('',#494);
#158=VERTEX_POINT('',#496);
#159=VERTEX_POINT('',#499);
#160=VERTEX_POINT('',#500);
#161=VERTEX_POINT('',#502);
#162=VERTEX_POINT('',#504);
#163=VERTEX_POINT('',#506);
#164=VERTEX_POINT('',#508);
#165=VERTEX_POINT('',#510);
#166=VERTEX_POINT('',#512);
#167=VERTEX_POINT('',#516);
#168=VERTEX_POINT('',#518);
#169=VERTEX_POINT('',#522);
#170=VERTEX_POINT('',#526);
#171=VERTEX_POINT('',#530);
#172=VERTEX_POINT('',#534);
#173=VERTEX_POINT('',#536);
#174=VERTEX_POINT('',#540);
#175=VERTEX_POINT('',#544);
#176=VERTEX_POINT('',#548);
#177=VERTEX_POINT('',#552);
#178=VERTEX_POINT('',#556);
#179=VERTEX_POINT('',#560);
#180=VERTEX_POINT('',#566);
#181=VERTEX_POINT('',#570);
#182=VERTEX_POINT('',#574);
#183=EDGE_CURVE('',#151,#152,#55,.T.);
#184=EDGE_CURVE('',#153,#151,#56,.T.);
#185=EDGE_CURVE('',#154,#153,#57,.T.);
#186=EDGE_CURVE('',#155,#154,#58,.T.);
#187=EDGE_CURVE('',#156,#155,#59,.T.);
#188=EDGE_CURVE('',#157,#156,#60,.T.);
#189=EDGE_CURVE('',#158,#157,#61,.T.);
#190=EDGE_CURVE('',#152,#158,#62,.T.);
#191=EDGE_CURVE('',#159,#160,#63,.T.);
#192=EDGE_CURVE('',#161,#159,#64,.T.);
#193=EDGE_CURVE('',#162,#161,#65,.T.);
#194=EDGE_CURVE('',#163,#162,#66,.T.);
#195=EDGE_CURVE('',#164,#163,#67,.T.);
#196=EDGE_CURVE('',#165,#164,#68,.T.);
#197=EDGE_CURVE('',#166,#165,#69,.T.);
#198=EDGE_CURVE('',#160,#166,#70,.T.);
#199=EDGE_CURVE('',#167,#163,#71,.T.);
#200=EDGE_CURVE('',#168,#167,#72,.T.);
#201=EDGE_CURVE('',#168,#164,#73,.T.);
#202=EDGE_CURVE('',#169,#162,#74,.T.);
#203=EDGE_CURVE('',#167,#169,#75,.T.);
#204=EDGE_CURVE('',#170,#161,#76,.T.);
#205=EDGE_CURVE('',#169,#170,#77,.T.);
#206=EDGE_CURVE('',#171,#159,#78,.T.);
#207=EDGE_CURVE('',#170,#171,#79,.T.);
#208=EDGE_CURVE('',#172,#155,#80,.T.);
#209=EDGE_CURVE('',#173,#172,#81,.T.);
#210=EDGE_CURVE('',#173,#156,#82,.T.);
#211=EDGE_CURVE('',#174,#154,#83,.T.);
#212=EDGE_CURVE('',#172,#174,#84,.T.);
#213=EDGE_CURVE('',#175,#153,#85,.T.);
#214=EDGE_CURVE('',#174,#175,#86,.T.);
#215=EDGE_CURVE('',#176,#151,#87,.T.);
#216=EDGE_CURVE('',#175,#176,#88,.T.);
#217=EDGE_CURVE('',#177,#160,#89,.T.);
#218=EDGE_CURVE('',#171,#177,#90,.T.);
#219=EDGE_CURVE('',#178,#168,#91,.T.);
#220=EDGE_CURVE('',#178,#165,#92,.T.);
#221=EDGE_CURVE('',#179,#178,#93,.T.);
#222=EDGE_CURVE('',#179,#166,#94,.T.);
#223=EDGE_CURVE('',#177,#179,#95,.T.);
#224=EDGE_CURVE('',#180,#152,#96,.T.);
#225=EDGE_CURVE('',#176,#180,#97,.T.);
#226=EDGE_CURVE('',#181,#158,#98,.T.);
#227=EDGE_CURVE('',#180,#181,#99,.T.);
#228=EDGE_CURVE('',#182,#157,#100,.T.);
#229=EDGE_CURVE('',#181,#182,#101,.T.);
#230=EDGE_CURVE('',#182,#173,#102,.T.);
#231=ORIENTED_EDGE('',*,*,#183,.F.);
#232=ORIENTED_EDGE('',*,*,#184,.F.);
#233=ORIENTED_EDGE('',*,*,#185,.F.);
#234=ORIENTED_EDGE('',*,*,#186,.F.);
#235=ORIENTED_EDGE('',*,*,#187,.F.);
#236=ORIENTED_EDGE('',*,*,#188,.F.);
#237=ORIENTED_EDGE('',*,*,#189,.F.);
#238=ORIENTED_EDGE('',*,*,#190,.F.);
#239=ORIENTED_EDGE('',*,*,#191,.F.);
#240=ORIENTED_EDGE('',*,*,#192,.F.);
#241=ORIENTED_EDGE('',*,*,#193,.F.);
#242=ORIENTED_EDGE('',*,*,#194,.F.);
#243=ORIENTED_EDGE('',*,*,#195,.F.);
#244=ORIENTED_EDGE('',*,*,#196,.F.);
#245=ORIENTED_EDGE('',*,*,#197,.F.);
#246=ORIENTED_EDGE('',*,*,#198,.F.);
#247=ORIENTED_EDGE('',*,*,#195,.T.);
#248=ORIENTED_EDGE('',*,*,#199,.F.);
#249=ORIENTED_EDGE('',*,*,#200,.F.);
#250=ORIENTED_EDGE('',*,*,#201,.T.);
#251=ORIENTED_EDGE('',*,*,#194,.T.);
#252=ORIENTED_EDGE('',*,*,#202,.F.);
#253=ORIENTED_EDGE('',*,*,#203,.F.);
#254=ORIENTED_EDGE('',*,*,#199,.T.);
#255=ORIENTED_EDGE('',*,*,#193,.T.);
#256=ORIENTED_EDGE('',*,*,#204,.F.);
#257=ORIENTED_EDGE('',*,*,#205,.F.);
#258=ORIENTED_EDGE('',*,*,#202,.T.);
#259=ORIENTED_EDGE('',*,*,#192,.T.);
#260=ORIENTED_EDGE('',*,*,#206,.F.);
#261=ORIENTED_EDGE('',*,*,#207,.F.);
#262=ORIENTED_EDGE('',*,*,#204,.T.);
#263=ORIENTED_EDGE('',*,*,#187,.T.);
#264=ORIENTED_EDGE('',*,*,#208,.F.);
#265=ORIENTED_EDGE('',*,*,#209,.F.);
#266=ORIENTED_EDGE('',*,*,#210,.T.);
#267=ORIENTED_EDGE('',*,*,#186,.T.);
#268=ORIENTED_EDGE('',*,*,#211,.F.);
#269=ORIENTED_EDGE('',*,*,#212,.F.);
#270=ORIENTED_EDGE('',*,*,#208,.T.);
#271=ORIENTED_EDGE('',*,*,#185,.T.);
#272=ORIENTED_EDGE('',*,*,#213,.F.);
#273=ORIENTED_EDGE('',*,*,#214,.F.);
#274=ORIENTED_EDGE('',*,*,#211,.T.);
#275=ORIENTED_EDGE('',*,*,#184,.T.);
#276=ORIENTED_EDGE('',*,*,#215,.F.);
#277=ORIENTED_EDGE('',*,*,#216,.F.);
#278=ORIENTED_EDGE('',*,*,#213,.T.);
#279=ORIENTED_EDGE('',*,*,#191,.T.);
#280=ORIENTED_EDGE('',*,*,#217,.F.);
#281=ORIENTED_EDGE('',*,*,#218,.F.);
#282=ORIENTED_EDGE('',*,*,#206,.T.);
#283=ORIENTED_EDGE('',*,*,#196,.T.);
#284=ORIENTED_EDGE('',*,*,#201,.F.);
#285=ORIENTED_EDGE('',*,*,#219,.F.);
#286=ORIENTED_EDGE('',*,*,#220,.T.);
#287=ORIENTED_EDGE('',*,*,#197,.T.);
#288=ORIENTED_EDGE('',*,*,#220,.F.);
#289=ORIENTED_EDGE('',*,*,#221,.F.);
#290=ORIENTED_EDGE('',*,*,#222,.T.);
#291=ORIENTED_EDGE('',*,*,#198,.T.);
#292=ORIENTED_EDGE('',*,*,#222,.F.);
#293=ORIENTED_EDGE('',*,*,#223,.F.);
#294=ORIENTED_EDGE('',*,*,#217,.T.);
#295=ORIENTED_EDGE('',*,*,#183,.T.);
#296=ORIENTED_EDGE('',*,*,#224,.F.);
#297=ORIENTED_EDGE('',*,*,#225,.F.);
#298=ORIENTED_EDGE('',*,*,#215,.T.);
#299=ORIENTED_EDGE('',*,*,#190,.T.);
#300=ORIENTED_EDGE('',*,*,#226,.F.);
#301=ORIENTED_EDGE('',*,*,#227,.F.);
#302=ORIENTED_EDGE('',*,*,#224,.T.);
#303=ORIENTED_EDGE('',*,*,#189,.T.);
#304=ORIENTED_EDGE('',*,*,#228,.F.);
#305=ORIENTED_EDGE('',*,*,#229,.F.);
#306=ORIENTED_EDGE('',*,*,#226,.T.);
#307=ORIENTED_EDGE('',*,*,#188,.T.);
#308=ORIENTED_EDGE('',*,*,#210,.F.);
#309=ORIENTED_EDGE('',*,*,#230,.F.);
#310=ORIENTED_EDGE('',*,*,#228,.T.);
#311=ORIENTED_EDGE('',*,*,#216,.T.);
#312=ORIENTED_EDGE('',*,*,#225,.T.);
#313=ORIENTED_EDGE('',*,*,#227,.T.);
#314=ORIENTED_EDGE('',*,*,#229,.T.);
#315=ORIENTED_EDGE('',*,*,#230,.T.);
#316=ORIENTED_EDGE('',*,*,#209,.T.);
#317=ORIENTED_EDGE('',*,*,#212,.T.);
#318=ORIENTED_EDGE('',*,*,#214,.T.);
#319=ORIENTED_EDGE('',*,*,#218,.T.);
#320=ORIENTED_EDGE('',*,*,#223,.T.);
#321=ORIENTED_EDGE('',*,*,#221,.T.);
#322=ORIENTED_EDGE('',*,*,#219,.T.);
#323=ORIENTED_EDGE('',*,*,#200,.T.);
#324=ORIENTED_EDGE('',*,*,#203,.T.);
#325=ORIENTED_EDGE('',*,*,#205,.T.);
#326=ORIENTED_EDGE('',*,*,#207,.T.);
#327=PLANE('',#377);
#328=PLANE('',#378);
#329=PLANE('',#379);
#330=PLANE('',#380);
#331=PLANE('',#381);
#332=PLANE('',#382);
#333=PLANE('',#383);
#334=PLANE('',#384);
#335=PLANE('',#385);
#336=PLANE('',#386);
#337=PLANE('',#387);
#338=PLANE('',#388);
#339=PLANE('',#389);
#340=PLANE('',#390);
#341=PLANE('',#391);
#342=PLANE('',#392);
#343=PLANE('',#393);
#344=PLANE('',#394);
#345=ADVANCED_FACE('',(#17,#15),#327,.F.);
#346=ADVANCED_FACE('',(#18),#328,.F.);
#347=ADVANCED_FACE('',(#19),#329,.F.);
#348=ADVANCED_FACE('',(#20),#330,.F.);
#349=ADVANCED_FACE('',(#21),#331,.F.);
#350=ADVANCED_FACE('',(#22),#332,.T.);
#351=ADVANCED_FACE('',(#23),#333,.T.);
#352=ADVANCED_FACE('',(#24),#334,.T.);
#353=ADVANCED_FACE('',(#25),#335,.T.);
#354=ADVANCED_FACE('',(#26),#336,.F.);
#355=ADVANCED_FACE('',(#27),#337,.F.);
#356=ADVANCED_FACE('',(#28),#338,.F.);
#357=ADVANCED_FACE('',(#29),#339,.F.);
#358=ADVANCED_FACE('',(#30),#340,.T.);
#359=ADVANCED_FACE('',(#31),#341,.T.);
#360=ADVANCED_FACE('',(#32),#342,.T.);
#361=ADVANCED_FACE('',(#33),#343,.T.);
#362=ADVANCED_FACE('',(#34,#16),#344,.T.);
#363=CLOSED_SHELL('',(#345,#346,#347,#348,#349,#350,#351,#352,#353,#354,
#355,#356,#357,#358,#359,#360,#361,#362));
#364=DERIVED_UNIT_ELEMENT(#366,1.);
#365=DERIVED_UNIT_ELEMENT(#585,-3.);
#366=(
MASS_UNIT()
NAMED_UNIT(*)
SI_UNIT(.KILO.,.GRAM.)
);
#367=DERIVED_UNIT((#364,#365));
#368=MEASURE_REPRESENTATION_ITEM('density measure',
POSITIVE_RATIO_MEASURE(7850.),#367);
#369=PROPERTY_DEFINITION_REPRESENTATION(#374,#371);
#370=PROPERTY_DEFINITION_REPRESENTATION(#375,#372);
#371=REPRESENTATION('material name',(#373),#582);
#372=REPRESENTATION('density',(#368),#582);
#373=DESCRIPTIVE_REPRESENTATION_ITEM('Steel','Steel');
#374=PROPERTY_DEFINITION('material property','material name',#592);
#375=PROPERTY_DEFINITION('material property','density of part',#592);
#376=AXIS2_PLACEMENT_3D('',#481,#395,#396);
#377=AXIS2_PLACEMENT_3D('',#482,#397,#398);
#378=AXIS2_PLACEMENT_3D('',#515,#415,#416);
#379=AXIS2_PLACEMENT_3D('',#521,#420,#421);
#380=AXIS2_PLACEMENT_3D('',#525,#424,#425);
#381=AXIS2_PLACEMENT_3D('',#529,#428,#429);
#382=AXIS2_PLACEMENT_3D('',#533,#432,#433);
#383=AXIS2_PLACEMENT_3D('',#539,#437,#438);
#384=AXIS2_PLACEMENT_3D('',#543,#441,#442);
#385=AXIS2_PLACEMENT_3D('',#547,#445,#446);
#386=AXIS2_PLACEMENT_3D('',#551,#449,#450);
#387=AXIS2_PLACEMENT_3D('',#555,#453,#454);
#388=AXIS2_PLACEMENT_3D('',#559,#457,#458);
#389=AXIS2_PLACEMENT_3D('',#563,#461,#462);
#390=AXIS2_PLACEMENT_3D('',#565,#464,#465);
#391=AXIS2_PLACEMENT_3D('',#569,#468,#469);
#392=AXIS2_PLACEMENT_3D('',#573,#472,#473);
#393=AXIS2_PLACEMENT_3D('',#577,#476,#477);
#394=AXIS2_PLACEMENT_3D('',#579,#479,#480);
#395=DIRECTION('axis',(0.,0.,1.));
#396=DIRECTION('refdir',(1.,0.,0.));
#397=DIRECTION('center_axis',(0.,1.,0.));
#398=DIRECTION('ref_axis',(0.,0.,1.));
#399=DIRECTION('',(1.,0.,6.43036688678845E-16));
#400=DIRECTION('',(0.707106781186547,0.,0.707106781186548));
#401=DIRECTION('',(-3.1813397742995E-16,0.,1.));
#402=DIRECTION('',(-0.707106781186548,0.,0.707106781186547));
#403=DIRECTION('',(-1.,0.,-1.07172781446474E-16));
#404=DIRECTION('',(-0.707106781186547,0.,-0.707106781186548));
#405=DIRECTION('',(3.1813397742995E-16,0.,-1.));
#406=DIRECTION('',(0.707106781186547,0.,-0.707106781186548));
#407=DIRECTION('',(-0.707106781186547,0.,-0.707106781186548));
#408=DIRECTION('',(-1.,0.,-6.74092320545673E-16));
#409=DIRECTION('',(-0.707106781186548,0.,0.707106781186547));
#410=DIRECTION('',(-2.36882177042725E-16,0.,1.));
#411=DIRECTION('',(0.707106781186547,0.,0.707106781186548));
#412=DIRECTION('',(1.,0.,1.12400175418352E-16));
#413=DIRECTION('',(0.707106781186548,0.,-0.707106781186547));
#414=DIRECTION('',(3.29418834225532E-16,0.,-1.));
#415=DIRECTION('center_axis',(0.701836114466191,-0.121869343405147,-0.70183611446619));
#416=DIRECTION('ref_axis',(0.707106781186547,-4.82106136958708E-16,0.707106781186548));
#417=DIRECTION('',(-0.121714364351112,-0.991283948536189,0.0504157404498524));
#418=DIRECTION('',(0.707106781186547,0.,0.707106781186548));
#419=DIRECTION('',(-0.0504157404498512,-0.991283948536189,0.121714364351114));
#420=DIRECTION('center_axis',(0.992546151641322,-0.121869343405147,2.35116493216175E-16));
#421=DIRECTION('ref_axis',(-2.47030180867857E-16,-8.26488587042822E-17,
1.));
#422=DIRECTION('',(-0.121714364351112,-0.991283948536189,-0.0504157404498525));
#423=DIRECTION('',(-2.36882177042725E-16,0.,1.));
#424=DIRECTION('center_axis',(0.70183611446619,-0.121869343405147,0.701836114466191));
#425=DIRECTION('ref_axis',(-0.707106781186548,4.81734766456438E-16,0.707106781186547));
#426=DIRECTION('',(-0.0504157404498524,-0.991283948536189,-0.121714364351113));
#427=DIRECTION('',(-0.707106781186548,0.,0.707106781186547));
#428=DIRECTION('center_axis',(-6.69067738608576E-16,-0.121869343405147,
0.992546151641322));
#429=DIRECTION('ref_axis',(-1.,5.02884014354763E-19,-6.74030574152785E-16));
#430=DIRECTION('',(0.0504157404498519,-0.991283948536189,-0.121714364351112));
#431=DIRECTION('',(-1.,0.,-6.74092320545673E-16));
#432=DIRECTION('center_axis',(1.06373931785394E-16,0.121869343405146,-0.992546151641322));
#433=DIRECTION('ref_axis',(1.,1.49441518614219E-33,1.07172781446474E-16));
#434=DIRECTION('',(-0.0504157404498543,-0.991283948536189,-0.121714364351112));
#435=DIRECTION('',(-1.,-1.49441518614219E-33,-1.07172781446474E-16));
#436=DIRECTION('',(0.0504157404498518,-0.991283948536189,-0.121714364351112));
#437=DIRECTION('center_axis',(-0.70183611446619,0.121869343405149,-0.70183611446619));
#438=DIRECTION('ref_axis',(0.707106781186548,-5.58543555608225E-33,-0.707106781186547));
#439=DIRECTION('',(-0.121714364351114,-0.991283948536189,-0.0504157404498531));
#440=DIRECTION('',(-0.707106781186548,5.58543555608225E-33,0.707106781186547));
#441=DIRECTION('center_axis',(-0.992546151641322,0.121869343405148,-3.15762655004444E-16));
#442=DIRECTION('ref_axis',(3.1813397742995E-16,0.,-1.));
#443=DIRECTION('',(-0.121714364351114,-0.991283948536189,0.0504157404498505));
#444=DIRECTION('',(-3.1813397742995E-16,0.,1.));
#445=DIRECTION('center_axis',(-0.70183611446619,0.121869343405147,0.70183611446619));
#446=DIRECTION('ref_axis',(-0.707106781186547,-8.23730110623439E-48,-0.707106781186548));
#447=DIRECTION('',(-0.0504157404498518,-0.991283948536189,0.121714364351112));
#448=DIRECTION('',(0.707106781186547,8.23730110623439E-48,0.707106781186548));
#449=DIRECTION('center_axis',(-0.701836114466191,-0.121869343405147,0.70183611446619));
#450=DIRECTION('ref_axis',(-0.707106781186547,4.44635785935911E-47,-0.707106781186548));
#451=DIRECTION('',(0.121714364351114,-0.991283948536189,-0.0504157404498505));
#452=DIRECTION('',(-0.707106781186547,0.,-0.707106781186548));
#453=DIRECTION('center_axis',(1.11562361555295E-16,-0.121869343405148,-0.992546151641322));
#454=DIRECTION('ref_axis',(1.,5.02884014354713E-19,1.12338429025464E-16));
#455=DIRECTION('',(1.,0.,1.12400175418352E-16));
#456=DIRECTION('',(0.0504157404498524,-0.991283948536189,0.121714364351114));
#457=DIRECTION('center_axis',(-0.70183611446619,-0.121869343405148,-0.701836114466191));
#458=DIRECTION('ref_axis',(0.707106781186548,4.79938279955151E-16,-0.707106781186547));
#459=DIRECTION('',(0.707106781186548,0.,-0.707106781186547));
#460=DIRECTION('',(0.121714364351114,-0.991283948536189,0.0504157404498525));
#461=DIRECTION('center_axis',(-0.992546151641322,-0.121869343405148,-3.26963396188722E-16));
#462=DIRECTION('ref_axis',(3.29373574490476E-16,3.68610961536136E-19,-1.));
#463=DIRECTION('',(3.29418834225532E-16,0.,-1.));
#464=DIRECTION('center_axis',(-6.38243590712366E-16,0.121869343405147,0.992546151641322));
#465=DIRECTION('ref_axis',(-1.,2.20863937782412E-45,-6.43036688678845E-16));
#466=DIRECTION('',(0.050415740449853,-0.991283948536189,0.121714364351112));
#467=DIRECTION('',(1.,-2.20863937782412E-45,6.43036688678845E-16));
#468=DIRECTION('center_axis',(0.701836114466191,0.121869343405148,0.70183611446619));
#469=DIRECTION('ref_axis',(-0.707106781186547,-8.25487657369704E-45,0.707106781186548));
#470=DIRECTION('',(0.121714364351114,-0.991283948536189,0.0504157404498517));
#471=DIRECTION('',(0.707106781186547,8.25487657369704E-45,-0.707106781186548));
#472=DIRECTION('center_axis',(0.992546151641322,0.121869343405148,3.15762655004444E-16));
#473=DIRECTION('ref_axis',(-3.1813397742995E-16,0.,1.));
#474=DIRECTION('',(0.121714364351114,-0.991283948536189,-0.0504157404498505));
#475=DIRECTION('',(3.1813397742995E-16,0.,-1.));
#476=DIRECTION('center_axis',(0.70183611446619,0.121869343405147,-0.70183611446619));
#477=DIRECTION('ref_axis',(0.707106781186547,-5.57354359864301E-36,0.707106781186548));
#478=DIRECTION('',(-0.707106781186547,5.57354359864301E-36,-0.707106781186548));
#479=DIRECTION('center_axis',(0.,1.,0.));
#480=DIRECTION('ref_axis',(0.,0.,1.));
#481=CARTESIAN_POINT('',(0.,0.,0.));
#482=CARTESIAN_POINT('Origin',(0.249999999999986,45.8332,19.4462000000002));
#483=CARTESIAN_POINT('',(-41.4892118904609,45.8332,91.6763997836897));
#484=CARTESIAN_POINT('',(41.9892118904609,45.8332,91.6763997836898));
#485=CARTESIAN_POINT('',(-20.4683766184074,45.8332,91.6763997836897));
#486=CARTESIAN_POINT('',(-57.5801997836896,45.8332,75.585411890461));
#487=CARTESIAN_POINT('',(-57.0505175278716,45.8332,76.1150941462791));
#488=CARTESIAN_POINT('',(-57.5801997836896,45.8332,-36.6930118904607));
#489=CARTESIAN_POINT('',(-57.5801997836896,45.8332,-8.47217661840717));
#490=CARTESIAN_POINT('',(-41.4892118904609,45.8332,-52.7839997836894));
#491=CARTESIAN_POINT('',(-49.2188941462789,45.8332,-45.0543175278713));
#492=CARTESIAN_POINT('',(41.9892118904609,45.8332,-52.7839997836894));
#493=CARTESIAN_POINT('',(20.9683766184074,45.8332,-52.7839997836894));
#494=CARTESIAN_POINT('',(58.0801997836896,45.8332,-36.6930118904606));
#495=CARTESIAN_POINT('',(57.5505175278715,45.8332,-37.2226941462787));
#496=CARTESIAN_POINT('',(58.0801997836895,45.8332,75.5854118904611));
#497=CARTESIAN_POINT('',(58.0801997836896,45.8332,47.3645766184076));
#498=CARTESIAN_POINT('',(49.7188941462789,45.8332,83.9467175278717));
#499=CARTESIAN_POINT('',(-38.9789121962524,45.8332,85.6160002163106));
#500=CARTESIAN_POINT('',(-51.5198002163105,45.8332,73.0751121962525));
#501=CARTESIAN_POINT('',(-52.0915134938068,45.8332,72.5033989187562));
#502=CARTESIAN_POINT('',(39.4789121962523,45.8332,85.6160002163107));
#503=CARTESIAN_POINT('',(-19.5156854249493,45.8332,85.6160002163106));
#504=CARTESIAN_POINT('',(52.0198002163104,45.8332,73.0751121962526));
#505=CARTESIAN_POINT('',(46.107198918756,45.8332,78.987713493807));
#506=CARTESIAN_POINT('',(52.0198002163104,45.8332,-34.1827121962522));
#507=CARTESIAN_POINT('',(52.0198002163104,45.8332,46.4118854249495));
#508=CARTESIAN_POINT('',(39.4789121962524,45.8332,-46.7236002163102));
#509=CARTESIAN_POINT('',(52.5915134938068,45.8332,-33.6109989187558));
#510=CARTESIAN_POINT('',(-38.9789121962524,45.8332,-46.7236002163102));
#511=CARTESIAN_POINT('',(20.0156854249493,45.8332,-46.7236002163102));
#512=CARTESIAN_POINT('',(-51.5198002163105,45.8332,-34.1827121962522));
#513=CARTESIAN_POINT('',(-45.607198918756,45.8332,-40.0953134938066));
#514=CARTESIAN_POINT('',(-51.5198002163105,45.8332,-7.51948542494906));
#515=CARTESIAN_POINT('Origin',(52.75,51.7802,-34.4851708498983));
#516=CARTESIAN_POINT('',(52.75,51.7802,-34.4851708498983));
#517=CARTESIAN_POINT('',(52.419059861097,49.0849088618517,-34.3480909560311));
#518=CARTESIAN_POINT('',(39.7813708498985,51.7802,-47.4537999999998));
#519=CARTESIAN_POINT('',(53.1078427124746,51.7802,-34.1273281374237));
#520=CARTESIAN_POINT('',(39.7580625083415,51.3219069223557,-47.3975286856964));
#521=CARTESIAN_POINT('Origin',(52.75,51.7802,73.3775708498987));
#522=CARTESIAN_POINT('',(52.75,51.7802,73.3775708498987));
#523=CARTESIAN_POINT('',(52.6937286856966,51.3219069223557,73.3542625083417));
#524=CARTESIAN_POINT('',(52.75,51.7802,46.4118854249494));
#525=CARTESIAN_POINT('Origin',(39.7813708498985,51.7802,86.3462000000002));
#526=CARTESIAN_POINT('',(39.7813708498985,51.7802,86.3462000000002));
#527=CARTESIAN_POINT('',(39.6808921111767,49.8045677872174,86.1036228662481));
#528=CARTESIAN_POINT('',(46.6235281374238,51.7802,79.5040427124749));
#529=CARTESIAN_POINT('Origin',(-39.2813708498986,51.7802,86.3462000000002));
#530=CARTESIAN_POINT('',(-39.2813708498986,51.7802,86.3462000000002));
#531=CARTESIAN_POINT('',(-39.2580625083415,51.3219069223557,86.2899286856968));
#532=CARTESIAN_POINT('',(-19.5156854249493,51.7802,86.3462000000002));
#533=CARTESIAN_POINT('Origin',(41.6867532368147,51.7802,-52.0537999999998));
#534=CARTESIAN_POINT('',(-41.1867532368147,51.7802,-52.0537999999998));
#535=CARTESIAN_POINT('',(-41.0814314983461,53.8510562017396,-51.7995308305762));
#536=CARTESIAN_POINT('',(41.6867532368147,51.7802,-52.0537999999998));
#537=CARTESIAN_POINT('',(41.6867532368147,51.7802,-52.0537999999998));
#538=CARTESIAN_POINT('',(41.6586018955108,52.3337170666013,-51.9858366500249));
#539=CARTESIAN_POINT('Origin',(-41.1867532368147,51.7802,-52.0537999999998));
#540=CARTESIAN_POINT('',(-56.85,51.7802,-36.3905532368145));
#541=CARTESIAN_POINT('',(-56.7820366500251,52.3337170666013,-36.3624018955106));
#542=CARTESIAN_POINT('',(-41.1867532368147,51.7802,-52.0537999999998));
#543=CARTESIAN_POINT('Origin',(-56.85,51.7802,-36.3905532368145));
#544=CARTESIAN_POINT('',(-56.8500000000001,51.7802,75.2829532368149));
#545=CARTESIAN_POINT('',(-56.5073678254256,54.5707151271051,75.1410303432007));
#546=CARTESIAN_POINT('',(-56.85,51.7802,-36.3905532368145));
#547=CARTESIAN_POINT('Origin',(-56.8500000000001,51.7802,75.2829532368149));
#548=CARTESIAN_POINT('',(-41.1867532368148,51.7802,90.9462000000002));
#549=CARTESIAN_POINT('',(-41.1586018955109,52.3337170666013,90.8782366500253));
#550=CARTESIAN_POINT('',(-56.8500000000001,51.7802,75.2829532368149));
#551=CARTESIAN_POINT('Origin',(-52.2500000000001,51.7802,73.3775708498987));
#552=CARTESIAN_POINT('',(-52.2500000000001,51.7802,73.3775708498987));
#553=CARTESIAN_POINT('',(-51.919059861097,49.0849088618518,73.2404909560314));
#554=CARTESIAN_POINT('',(-52.6078427124747,51.7802,73.019728137424));
#555=CARTESIAN_POINT('Origin',(39.7813708498985,51.7802,-47.4537999999998));
#556=CARTESIAN_POINT('',(-39.2813708498985,51.7802,-47.4537999999998));
#557=CARTESIAN_POINT('',(20.0156854249492,51.7802,-47.4537999999998));
#558=CARTESIAN_POINT('',(-39.1808921111768,49.8045677872174,-47.2112228662477));
#559=CARTESIAN_POINT('Origin',(-39.2813708498985,51.7802,-47.4537999999998));
#560=CARTESIAN_POINT('',(-52.25,51.7802,-34.4851708498983));
#561=CARTESIAN_POINT('',(-46.1235281374239,51.7802,-40.6116427124745));
#562=CARTESIAN_POINT('',(-52.1937286856966,51.3219069223557,-34.4618625083413));
#563=CARTESIAN_POINT('Origin',(-52.25,51.7802,-34.4851708498983));
#564=CARTESIAN_POINT('',(-52.25,51.7802,-7.51948542494908));
#565=CARTESIAN_POINT('Origin',(-41.1867532368148,51.7802,90.9462000000002));
#566=CARTESIAN_POINT('',(41.6867532368147,51.7802,90.9462000000002));
#567=CARTESIAN_POINT('',(41.5814314983461,53.8510562017396,90.6919308305766));
#568=CARTESIAN_POINT('',(-41.1867532368148,51.7802,90.9462000000002));
#569=CARTESIAN_POINT('Origin',(41.6867532368147,51.7802,90.9462000000002));
#570=CARTESIAN_POINT('',(57.35,51.7802,75.282953236815));
#571=CARTESIAN_POINT('',(57.2820366500251,52.3337170666013,75.2548018955111));
#572=CARTESIAN_POINT('',(41.6867532368147,51.7802,90.9462000000002));
#573=CARTESIAN_POINT('Origin',(57.35,51.7802,75.282953236815));
#574=CARTESIAN_POINT('',(57.35,51.7802,-36.3905532368145));
#575=CARTESIAN_POINT('',(57.0073678254255,54.5707151271051,-36.2486303432004));
#576=CARTESIAN_POINT('',(57.35,51.7802,75.282953236815));
#577=CARTESIAN_POINT('Origin',(57.35,51.7802,-36.3905532368145));
#578=CARTESIAN_POINT('',(57.35,51.7802,-36.3905532368145));
#579=CARTESIAN_POINT('Origin',(0.249999999999968,51.7802,19.4462000000001));
#580=UNCERTAINTY_MEASURE_WITH_UNIT(LENGTH_MEASURE(0.01),#584,
'DISTANCE_ACCURACY_VALUE',
'Maximum model space distance between geometric entities at asserted c
onnectivities');
#581=UNCERTAINTY_MEASURE_WITH_UNIT(LENGTH_MEASURE(0.01),#584,
'DISTANCE_ACCURACY_VALUE',
'Maximum model space distance between geometric entities at asserted c
onnectivities');
#582=(
GEOMETRIC_REPRESENTATION_CONTEXT(3)
GLOBAL_UNCERTAINTY_ASSIGNED_CONTEXT((#580))
GLOBAL_UNIT_ASSIGNED_CONTEXT((#584,#586,#587))
REPRESENTATION_CONTEXT('','3D')
);
#583=(
GEOMETRIC_REPRESENTATION_CONTEXT(3)
GLOBAL_UNCERTAINTY_ASSIGNED_CONTEXT((#581))
GLOBAL_UNIT_ASSIGNED_CONTEXT((#584,#586,#587))
REPRESENTATION_CONTEXT('','3D')
);
#584=(
LENGTH_UNIT()
NAMED_UNIT(*)
SI_UNIT(.MILLI.,.METRE.)
);
#585=(
LENGTH_UNIT()
NAMED_UNIT(*)
SI_UNIT($,.METRE.)
);
#586=(
NAMED_UNIT(*)
PLANE_ANGLE_UNIT()
SI_UNIT($,.RADIAN.)
);
#587=(
NAMED_UNIT(*)
SI_UNIT($,.STERADIAN.)
SOLID_ANGLE_UNIT()
);
#588=SHAPE_DEFINITION_REPRESENTATION(#589,#590);
#589=PRODUCT_DEFINITION_SHAPE('',$,#592);
#590=SHAPE_REPRESENTATION('',(#376),#582);
#591=PRODUCT_DEFINITION_CONTEXT('part definition',#596,'design');
#592=PRODUCT_DEFINITION('2026-08-17-19-32-18-031','FusionComponent',#593,
#591);
#593=PRODUCT_DEFINITION_FORMATION('',$,#598);
#594=PRODUCT_RELATED_PRODUCT_CATEGORY('FusionComponent',
'FusionComponent',(#598));
#595=APPLICATION_PROTOCOL_DEFINITION('international standard',
'automotive_design',2009,#596);
#596=APPLICATION_CONTEXT(
'Core Data for Automotive Mechanical Design Process');
#597=PRODUCT_CONTEXT('part definition',#596,'mechanical');
#598=PRODUCT('2026-08-17-19-32-18-031','FusionComponent',$,(#597));
#599=PRESENTATION_STYLE_ASSIGNMENT((#601));
#600=PRESENTATION_STYLE_ASSIGNMENT((#602));
#601=SURFACE_STYLE_USAGE(.BOTH.,#603);
#602=SURFACE_STYLE_USAGE(.BOTH.,#604);
#603=SURFACE_SIDE_STYLE('',(#605));
#604=SURFACE_SIDE_STYLE('',(#606));
#605=SURFACE_STYLE_FILL_AREA(#607);
#606=SURFACE_STYLE_FILL_AREA(#608);
#607=FILL_AREA_STYLE('Steel - Satin',(#609));
#608=FILL_AREA_STYLE('Rubber - Soft',(#610));
#609=FILL_AREA_STYLE_COLOUR('Steel - Satin',#611);
#610=FILL_AREA_STYLE_COLOUR('Rubber - Soft',#612);
#611=COLOUR_RGB('Steel - Satin',0.627450980392157,0.627450980392157,0.627450980392157);
#612=COLOUR_RGB('Rubber - Soft',0.152941176470588,0.152941176470588,0.152941176470588);
ENDSEC;
END-ISO-10303-21;
