ISO-10303-21;
HEADER;
/* Generated by software containing ST-Developer
 * from STEP Tools, Inc. (www.steptools.com) 
 */

FILE_DESCRIPTION(
/* description */ (''),
/* implementation_level */ '2;1');

FILE_NAME(
/* name */ 'Orion T-Mount Plate.step',
/* time_stamp */ '2026-08-17T19:33:55+05:30',
/* author */ (''),
/* organization */ (''),
/* preprocessor_version */ 'ST-DEVELOPER v20.1',
/* originating_system */ 'Autodesk Translation Framework v15.8.0.0',
/* authorisation */ '');

FILE_SCHEMA (('AUTOMOTIVE_DESIGN { 1 0 10303 214 3 1 1 }'));
ENDSEC;

DATA;
#10=MECHANICAL_DESIGN_GEOMETRIC_PRESENTATION_REPRESENTATION('',(#13),#968);
#11=SHAPE_REPRESENTATION_RELATIONSHIP('SRR','None',#975,#12);
#12=ADVANCED_BREP_SHAPE_REPRESENTATION('',(#14),#967);
#13=STYLED_ITEM('',(#985),#14);
#14=MANIFOLD_SOLID_BREP('Orion Top Mount',#560);
#15=FACE_BOUND('',#77,.T.);
#16=FACE_BOUND('',#80,.T.);
#17=FACE_BOUND('',#86,.T.);
#18=FACE_BOUND('',#87,.T.);
#19=FACE_BOUND('',#88,.T.);
#20=FACE_BOUND('',#89,.T.);
#21=FACE_BOUND('',#90,.T.);
#22=FACE_BOUND('',#91,.T.);
#23=FACE_BOUND('',#97,.T.);
#24=FACE_BOUND('',#98,.T.);
#25=FACE_BOUND('',#99,.T.);
#26=FACE_BOUND('',#102,.T.);
#27=FACE_BOUND('',#103,.T.);
#28=FACE_BOUND('',#104,.T.);
#29=FACE_BOUND('',#111,.T.);
#30=FACE_BOUND('',#112,.T.);
#31=FACE_BOUND('',#113,.T.);
#32=FACE_BOUND('',#114,.T.);
#33=FACE_BOUND('',#115,.T.);
#34=FACE_BOUND('',#116,.T.);
#35=PLANE('',#577);
#36=PLANE('',#582);
#37=PLANE('',#591);
#38=PLANE('',#594);
#39=PLANE('',#602);
#40=PLANE('',#605);
#41=PLANE('',#607);
#42=PLANE('',#615);
#43=PLANE('',#622);
#44=PLANE('',#624);
#45=PLANE('',#627);
#46=FACE_OUTER_BOUND('',#75,.T.);
#47=FACE_OUTER_BOUND('',#76,.T.);
#48=FACE_OUTER_BOUND('',#78,.T.);
#49=FACE_OUTER_BOUND('',#79,.T.);
#50=FACE_OUTER_BOUND('',#81,.T.);
#51=FACE_OUTER_BOUND('',#82,.T.);
#52=FACE_OUTER_BOUND('',#83,.T.);
#53=FACE_OUTER_BOUND('',#84,.T.);
#54=FACE_OUTER_BOUND('',#85,.T.);
#55=FACE_OUTER_BOUND('',#92,.T.);
#56=FACE_OUTER_BOUND('',#93,.T.);
#57=FACE_OUTER_BOUND('',#94,.T.);
#58=FACE_OUTER_BOUND('',#95,.T.);
#59=FACE_OUTER_BOUND('',#96,.T.);
#60=FACE_OUTER_BOUND('',#100,.T.);
#61=FACE_OUTER_BOUND('',#101,.T.);
#62=FACE_OUTER_BOUND('',#105,.T.);
#63=FACE_OUTER_BOUND('',#106,.T.);
#64=FACE_OUTER_BOUND('',#107,.T.);
#65=FACE_OUTER_BOUND('',#108,.T.);
#66=FACE_OUTER_BOUND('',#109,.T.);
#67=FACE_OUTER_BOUND('',#110,.T.);
#68=FACE_OUTER_BOUND('',#117,.T.);
#69=FACE_OUTER_BOUND('',#118,.T.);
#70=FACE_OUTER_BOUND('',#119,.T.);
#71=FACE_OUTER_BOUND('',#120,.T.);
#72=FACE_OUTER_BOUND('',#121,.T.);
#73=FACE_OUTER_BOUND('',#122,.T.);
#74=FACE_OUTER_BOUND('',#123,.T.);
#75=EDGE_LOOP('',(#363,#364,#365,#366));
#76=EDGE_LOOP('',(#367));
#77=EDGE_LOOP('',(#368));
#78=EDGE_LOOP('',(#369,#370,#371,#372));
#79=EDGE_LOOP('',(#373));
#80=EDGE_LOOP('',(#374));
#81=EDGE_LOOP('',(#375,#376,#377,#378));
#82=EDGE_LOOP('',(#379,#380,#381,#382));
#83=EDGE_LOOP('',(#383,#384,#385,#386));
#84=EDGE_LOOP('',(#387,#388,#389,#390,#391,#392,#393,#394));
#85=EDGE_LOOP('',(#395,#396,#397,#398,#399,#400));
#86=EDGE_LOOP('',(#401));
#87=EDGE_LOOP('',(#402));
#88=EDGE_LOOP('',(#403));
#89=EDGE_LOOP('',(#404));
#90=EDGE_LOOP('',(#405));
#91=EDGE_LOOP('',(#406));
#92=EDGE_LOOP('',(#407,#408,#409,#410));
#93=EDGE_LOOP('',(#411,#412,#413,#414,#415,#416,#417,#418));
#94=EDGE_LOOP('',(#419,#420,#421,#422));
#95=EDGE_LOOP('',(#423,#424,#425,#426));
#96=EDGE_LOOP('',(#427,#428,#429,#430,#431,#432,#433,#434));
#97=EDGE_LOOP('',(#435));
#98=EDGE_LOOP('',(#436));
#99=EDGE_LOOP('',(#437));
#100=EDGE_LOOP('',(#438,#439,#440,#441));
#101=EDGE_LOOP('',(#442,#443,#444,#445,#446,#447,#448,#449));
#102=EDGE_LOOP('',(#450));
#103=EDGE_LOOP('',(#451));
#104=EDGE_LOOP('',(#452));
#105=EDGE_LOOP('',(#453,#454,#455,#456));
#106=EDGE_LOOP('',(#457,#458,#459,#460));
#107=EDGE_LOOP('',(#461,#462,#463,#464));
#108=EDGE_LOOP('',(#465,#466,#467,#468));
#109=EDGE_LOOP('',(#469,#470,#471,#472));
#110=EDGE_LOOP('',(#473,#474,#475,#476,#477,#478));
#111=EDGE_LOOP('',(#479));
#112=EDGE_LOOP('',(#480));
#113=EDGE_LOOP('',(#481));
#114=EDGE_LOOP('',(#482));
#115=EDGE_LOOP('',(#483));
#116=EDGE_LOOP('',(#484));
#117=EDGE_LOOP('',(#485,#486,#487,#488));
#118=EDGE_LOOP('',(#489,#490,#491,#492));
#119=EDGE_LOOP('',(#493,#494,#495,#496));
#120=EDGE_LOOP('',(#497,#498,#499,#500));
#121=EDGE_LOOP('',(#501,#502,#503,#504));
#122=EDGE_LOOP('',(#505,#506,#507,#508));
#123=EDGE_LOOP('',(#509,#510,#511,#512));
#124=LINE('',#815,#163);
#125=LINE('',#824,#164);
#126=LINE('',#831,#165);
#127=LINE('',#835,#166);
#128=LINE('',#842,#167);
#129=LINE('',#845,#168);
#130=LINE('',#848,#169);
#131=LINE('',#852,#170);
#132=LINE('',#854,#171);
#133=LINE('',#856,#172);
#134=LINE('',#859,#173);
#135=LINE('',#862,#174);
#136=LINE('',#866,#175);
#137=LINE('',#867,#176);
#138=LINE('',#880,#177);
#139=LINE('',#881,#178);
#140=LINE('',#884,#179);
#141=LINE('',#888,#180);
#142=LINE('',#890,#181);
#143=LINE('',#892,#182);
#144=LINE('',#895,#183);
#145=LINE('',#897,#184);
#146=LINE('',#902,#185);
#147=LINE('',#906,#186);
#148=LINE('',#915,#187);
#149=LINE('',#916,#188);
#150=LINE('',#921,#189);
#151=LINE('',#925,#190);
#152=LINE('',#934,#191);
#153=LINE('',#935,#192);
#154=LINE('',#937,#193);
#155=LINE('',#939,#194);
#156=LINE('',#952,#195);
#157=LINE('',#954,#196);
#158=LINE('',#956,#197);
#159=LINE('',#958,#198);
#160=LINE('',#960,#199);
#161=LINE('',#962,#200);
#162=LINE('',#964,#201);
#163=VECTOR('',#645,4.);
#164=VECTOR('',#656,4.);
#165=VECTOR('',#665,2.25);
#166=VECTOR('',#670,2.25);
#167=VECTOR('',#677,10.);
#168=VECTOR('',#680,10.);
#169=VECTOR('',#683,10.);
#170=VECTOR('',#686,10.);
#171=VECTOR('',#687,10.);
#172=VECTOR('',#688,10.);
#173=VECTOR('',#691,10.);
#174=VECTOR('',#694,10.);
#175=VECTOR('',#697,10.);
#176=VECTOR('',#698,10.);
#177=VECTOR('',#711,10.);
#178=VECTOR('',#712,10.);
#179=VECTOR('',#715,10.);
#180=VECTOR('',#718,10.);
#181=VECTOR('',#719,10.);
#182=VECTOR('',#720,10.);
#183=VECTOR('',#725,10.);
#184=VECTOR('',#728,10.);
#185=VECTOR('',#733,10.);
#186=VECTOR('',#736,10.);
#187=VECTOR('',#747,10.);
#188=VECTOR('',#748,10.);
#189=VECTOR('',#753,10.);
#190=VECTOR('',#756,10.);
#191=VECTOR('',#767,10.);
#192=VECTOR('',#768,10.);
#193=VECTOR('',#771,10.);
#194=VECTOR('',#774,10.);
#195=VECTOR('',#791,1.7);
#196=VECTOR('',#794,1.7);
#197=VECTOR('',#797,1.7);
#198=VECTOR('',#800,1.7);
#199=VECTOR('',#803,2.25);
#200=VECTOR('',#806,2.25);
#201=VECTOR('',#809,2.25);
#202=CIRCLE('',#575,4.);
#203=CIRCLE('',#576,4.);
#204=CIRCLE('',#578,2.25);
#205=CIRCLE('',#580,4.);
#206=CIRCLE('',#581,4.);
#207=CIRCLE('',#583,2.25);
#208=CIRCLE('',#585,2.25);
#209=CIRCLE('',#587,2.25);
#210=CIRCLE('',#589,10.);
#211=CIRCLE('',#590,10.);
#212=CIRCLE('',#592,2.);
#213=CIRCLE('',#593,1.);
#214=CIRCLE('',#595,10.);
#215=CIRCLE('',#596,1.7);
#216=CIRCLE('',#597,1.7);
#217=CIRCLE('',#598,1.7);
#218=CIRCLE('',#599,1.7);
#219=CIRCLE('',#601,10.);
#220=CIRCLE('',#603,1.);
#221=CIRCLE('',#604,2.);
#222=CIRCLE('',#608,10.);
#223=CIRCLE('',#609,5.);
#224=CIRCLE('',#610,10.);
#225=CIRCLE('',#611,2.25);
#226=CIRCLE('',#612,2.25);
#227=CIRCLE('',#613,2.25);
#228=CIRCLE('',#616,10.);
#229=CIRCLE('',#617,5.);
#230=CIRCLE('',#618,10.);
#231=CIRCLE('',#619,2.25);
#232=CIRCLE('',#620,2.25);
#233=CIRCLE('',#621,2.25);
#234=CIRCLE('',#628,1.7);
#235=CIRCLE('',#629,1.7);
#236=CIRCLE('',#630,1.7);
#237=CIRCLE('',#631,1.7);
#238=VERTEX_POINT('',#812);
#239=VERTEX_POINT('',#814);
#240=VERTEX_POINT('',#818);
#241=VERTEX_POINT('',#821);
#242=VERTEX_POINT('',#823);
#243=VERTEX_POINT('',#827);
#244=VERTEX_POINT('',#830);
#245=VERTEX_POINT('',#834);
#246=VERTEX_POINT('',#838);
#247=VERTEX_POINT('',#839);
#248=VERTEX_POINT('',#841);
#249=VERTEX_POINT('',#843);
#250=VERTEX_POINT('',#847);
#251=VERTEX_POINT('',#849);
#252=VERTEX_POINT('',#851);
#253=VERTEX_POINT('',#853);
#254=VERTEX_POINT('',#855);
#255=VERTEX_POINT('',#857);
#256=VERTEX_POINT('',#861);
#257=VERTEX_POINT('',#863);
#258=VERTEX_POINT('',#865);
#259=VERTEX_POINT('',#868);
#260=VERTEX_POINT('',#870);
#261=VERTEX_POINT('',#872);
#262=VERTEX_POINT('',#874);
#263=VERTEX_POINT('',#877);
#264=VERTEX_POINT('',#878);
#265=VERTEX_POINT('',#883);
#266=VERTEX_POINT('',#885);
#267=VERTEX_POINT('',#887);
#268=VERTEX_POINT('',#889);
#269=VERTEX_POINT('',#891);
#270=VERTEX_POINT('',#899);
#271=VERTEX_POINT('',#901);
#272=VERTEX_POINT('',#903);
#273=VERTEX_POINT('',#905);
#274=VERTEX_POINT('',#908);
#275=VERTEX_POINT('',#910);
#276=VERTEX_POINT('',#912);
#277=VERTEX_POINT('',#918);
#278=VERTEX_POINT('',#920);
#279=VERTEX_POINT('',#922);
#280=VERTEX_POINT('',#924);
#281=VERTEX_POINT('',#927);
#282=VERTEX_POINT('',#929);
#283=VERTEX_POINT('',#931);
#284=VERTEX_POINT('',#943);
#285=VERTEX_POINT('',#945);
#286=VERTEX_POINT('',#947);
#287=VERTEX_POINT('',#949);
#288=EDGE_CURVE('',#238,#238,#202,.T.);
#289=EDGE_CURVE('',#238,#239,#124,.T.);
#290=EDGE_CURVE('',#239,#239,#203,.T.);
#291=EDGE_CURVE('',#240,#240,#204,.T.);
#292=EDGE_CURVE('',#241,#241,#205,.T.);
#293=EDGE_CURVE('',#241,#242,#125,.T.);
#294=EDGE_CURVE('',#242,#242,#206,.T.);
#295=EDGE_CURVE('',#243,#243,#207,.T.);
#296=EDGE_CURVE('',#243,#244,#126,.T.);
#297=EDGE_CURVE('',#244,#244,#208,.T.);
#298=EDGE_CURVE('',#240,#245,#127,.T.);
#299=EDGE_CURVE('',#245,#245,#209,.T.);
#300=EDGE_CURVE('',#246,#247,#210,.T.);
#301=EDGE_CURVE('',#247,#248,#128,.T.);
#302=EDGE_CURVE('',#248,#249,#211,.T.);
#303=EDGE_CURVE('',#249,#246,#129,.T.);
#304=EDGE_CURVE('',#250,#249,#130,.T.);
#305=EDGE_CURVE('',#251,#250,#212,.T.);
#306=EDGE_CURVE('',#251,#252,#131,.T.);
#307=EDGE_CURVE('',#253,#252,#132,.T.);
#308=EDGE_CURVE('',#253,#254,#133,.T.);
#309=EDGE_CURVE('',#255,#254,#213,.T.);
#310=EDGE_CURVE('',#255,#246,#134,.T.);
#311=EDGE_CURVE('',#248,#256,#135,.T.);
#312=EDGE_CURVE('',#257,#256,#214,.T.);
#313=EDGE_CURVE('',#257,#258,#136,.T.);
#314=EDGE_CURVE('',#250,#258,#137,.T.);
#315=EDGE_CURVE('',#259,#259,#215,.T.);
#316=EDGE_CURVE('',#260,#260,#216,.T.);
#317=EDGE_CURVE('',#261,#261,#217,.T.);
#318=EDGE_CURVE('',#262,#262,#218,.T.);
#319=EDGE_CURVE('',#263,#264,#219,.T.);
#320=EDGE_CURVE('',#264,#257,#138,.T.);
#321=EDGE_CURVE('',#256,#263,#139,.T.);
#322=EDGE_CURVE('',#264,#265,#140,.T.);
#323=EDGE_CURVE('',#266,#265,#220,.T.);
#324=EDGE_CURVE('',#266,#267,#141,.T.);
#325=EDGE_CURVE('',#268,#267,#142,.T.);
#326=EDGE_CURVE('',#268,#269,#143,.T.);
#327=EDGE_CURVE('',#258,#269,#221,.T.);
#328=EDGE_CURVE('',#263,#247,#144,.T.);
#329=EDGE_CURVE('',#269,#251,#145,.T.);
#330=EDGE_CURVE('',#270,#268,#222,.T.);
#331=EDGE_CURVE('',#271,#270,#146,.T.);
#332=EDGE_CURVE('',#272,#271,#223,.T.);
#333=EDGE_CURVE('',#273,#272,#147,.T.);
#334=EDGE_CURVE('',#252,#273,#224,.T.);
#335=EDGE_CURVE('',#274,#274,#225,.T.);
#336=EDGE_CURVE('',#275,#275,#226,.T.);
#337=EDGE_CURVE('',#276,#276,#227,.T.);
#338=EDGE_CURVE('',#254,#266,#148,.T.);
#339=EDGE_CURVE('',#265,#255,#149,.T.);
#340=EDGE_CURVE('',#277,#253,#228,.T.);
#341=EDGE_CURVE('',#278,#277,#150,.T.);
#342=EDGE_CURVE('',#279,#278,#229,.T.);
#343=EDGE_CURVE('',#280,#279,#151,.T.);
#344=EDGE_CURVE('',#267,#280,#230,.T.);
#345=EDGE_CURVE('',#281,#281,#231,.T.);
#346=EDGE_CURVE('',#282,#282,#232,.T.);
#347=EDGE_CURVE('',#283,#283,#233,.T.);
#348=EDGE_CURVE('',#278,#272,#152,.T.);
#349=EDGE_CURVE('',#273,#277,#153,.T.);
#350=EDGE_CURVE('',#271,#279,#154,.T.);
#351=EDGE_CURVE('',#280,#270,#155,.T.);
#352=EDGE_CURVE('',#284,#284,#234,.T.);
#353=EDGE_CURVE('',#285,#285,#235,.T.);
#354=EDGE_CURVE('',#286,#286,#236,.T.);
#355=EDGE_CURVE('',#287,#287,#237,.T.);
#356=EDGE_CURVE('',#260,#284,#156,.T.);
#357=EDGE_CURVE('',#259,#285,#157,.T.);
#358=EDGE_CURVE('',#261,#286,#158,.T.);
#359=EDGE_CURVE('',#262,#287,#159,.T.);
#360=EDGE_CURVE('',#274,#281,#160,.T.);
#361=EDGE_CURVE('',#275,#282,#161,.T.);
#362=EDGE_CURVE('',#276,#283,#162,.T.);
#363=ORIENTED_EDGE('',*,*,#288,.F.);
#364=ORIENTED_EDGE('',*,*,#289,.T.);
#365=ORIENTED_EDGE('',*,*,#290,.T.);
#366=ORIENTED_EDGE('',*,*,#289,.F.);
#367=ORIENTED_EDGE('',*,*,#290,.F.);
#368=ORIENTED_EDGE('',*,*,#291,.F.);
#369=ORIENTED_EDGE('',*,*,#292,.F.);
#370=ORIENTED_EDGE('',*,*,#293,.T.);
#371=ORIENTED_EDGE('',*,*,#294,.T.);
#372=ORIENTED_EDGE('',*,*,#293,.F.);
#373=ORIENTED_EDGE('',*,*,#294,.F.);
#374=ORIENTED_EDGE('',*,*,#295,.F.);
#375=ORIENTED_EDGE('',*,*,#295,.T.);
#376=ORIENTED_EDGE('',*,*,#296,.T.);
#377=ORIENTED_EDGE('',*,*,#297,.F.);
#378=ORIENTED_EDGE('',*,*,#296,.F.);
#379=ORIENTED_EDGE('',*,*,#291,.T.);
#380=ORIENTED_EDGE('',*,*,#298,.T.);
#381=ORIENTED_EDGE('',*,*,#299,.F.);
#382=ORIENTED_EDGE('',*,*,#298,.F.);
#383=ORIENTED_EDGE('',*,*,#300,.T.);
#384=ORIENTED_EDGE('',*,*,#301,.T.);
#385=ORIENTED_EDGE('',*,*,#302,.T.);
#386=ORIENTED_EDGE('',*,*,#303,.T.);
#387=ORIENTED_EDGE('',*,*,#303,.F.);
#388=ORIENTED_EDGE('',*,*,#304,.F.);
#389=ORIENTED_EDGE('',*,*,#305,.F.);
#390=ORIENTED_EDGE('',*,*,#306,.T.);
#391=ORIENTED_EDGE('',*,*,#307,.F.);
#392=ORIENTED_EDGE('',*,*,#308,.T.);
#393=ORIENTED_EDGE('',*,*,#309,.F.);
#394=ORIENTED_EDGE('',*,*,#310,.T.);
#395=ORIENTED_EDGE('',*,*,#302,.F.);
#396=ORIENTED_EDGE('',*,*,#311,.T.);
#397=ORIENTED_EDGE('',*,*,#312,.F.);
#398=ORIENTED_EDGE('',*,*,#313,.T.);
#399=ORIENTED_EDGE('',*,*,#314,.F.);
#400=ORIENTED_EDGE('',*,*,#304,.T.);
#401=ORIENTED_EDGE('',*,*,#315,.T.);
#402=ORIENTED_EDGE('',*,*,#316,.T.);
#403=ORIENTED_EDGE('',*,*,#317,.T.);
#404=ORIENTED_EDGE('',*,*,#318,.T.);
#405=ORIENTED_EDGE('',*,*,#292,.T.);
#406=ORIENTED_EDGE('',*,*,#288,.T.);
#407=ORIENTED_EDGE('',*,*,#319,.T.);
#408=ORIENTED_EDGE('',*,*,#320,.T.);
#409=ORIENTED_EDGE('',*,*,#312,.T.);
#410=ORIENTED_EDGE('',*,*,#321,.T.);
#411=ORIENTED_EDGE('',*,*,#320,.F.);
#412=ORIENTED_EDGE('',*,*,#322,.T.);
#413=ORIENTED_EDGE('',*,*,#323,.F.);
#414=ORIENTED_EDGE('',*,*,#324,.T.);
#415=ORIENTED_EDGE('',*,*,#325,.F.);
#416=ORIENTED_EDGE('',*,*,#326,.T.);
#417=ORIENTED_EDGE('',*,*,#327,.F.);
#418=ORIENTED_EDGE('',*,*,#313,.F.);
#419=ORIENTED_EDGE('',*,*,#301,.F.);
#420=ORIENTED_EDGE('',*,*,#328,.F.);
#421=ORIENTED_EDGE('',*,*,#321,.F.);
#422=ORIENTED_EDGE('',*,*,#311,.F.);
#423=ORIENTED_EDGE('',*,*,#305,.T.);
#424=ORIENTED_EDGE('',*,*,#314,.T.);
#425=ORIENTED_EDGE('',*,*,#327,.T.);
#426=ORIENTED_EDGE('',*,*,#329,.T.);
#427=ORIENTED_EDGE('',*,*,#329,.F.);
#428=ORIENTED_EDGE('',*,*,#326,.F.);
#429=ORIENTED_EDGE('',*,*,#330,.F.);
#430=ORIENTED_EDGE('',*,*,#331,.F.);
#431=ORIENTED_EDGE('',*,*,#332,.F.);
#432=ORIENTED_EDGE('',*,*,#333,.F.);
#433=ORIENTED_EDGE('',*,*,#334,.F.);
#434=ORIENTED_EDGE('',*,*,#306,.F.);
#435=ORIENTED_EDGE('',*,*,#335,.F.);
#436=ORIENTED_EDGE('',*,*,#336,.F.);
#437=ORIENTED_EDGE('',*,*,#337,.F.);
#438=ORIENTED_EDGE('',*,*,#309,.T.);
#439=ORIENTED_EDGE('',*,*,#338,.T.);
#440=ORIENTED_EDGE('',*,*,#323,.T.);
#441=ORIENTED_EDGE('',*,*,#339,.T.);
#442=ORIENTED_EDGE('',*,*,#338,.F.);
#443=ORIENTED_EDGE('',*,*,#308,.F.);
#444=ORIENTED_EDGE('',*,*,#340,.F.);
#445=ORIENTED_EDGE('',*,*,#341,.F.);
#446=ORIENTED_EDGE('',*,*,#342,.F.);
#447=ORIENTED_EDGE('',*,*,#343,.F.);
#448=ORIENTED_EDGE('',*,*,#344,.F.);
#449=ORIENTED_EDGE('',*,*,#324,.F.);
#450=ORIENTED_EDGE('',*,*,#345,.F.);
#451=ORIENTED_EDGE('',*,*,#346,.F.);
#452=ORIENTED_EDGE('',*,*,#347,.F.);
#453=ORIENTED_EDGE('',*,*,#333,.T.);
#454=ORIENTED_EDGE('',*,*,#348,.F.);
#455=ORIENTED_EDGE('',*,*,#341,.T.);
#456=ORIENTED_EDGE('',*,*,#349,.F.);
#457=ORIENTED_EDGE('',*,*,#332,.T.);
#458=ORIENTED_EDGE('',*,*,#350,.T.);
#459=ORIENTED_EDGE('',*,*,#342,.T.);
#460=ORIENTED_EDGE('',*,*,#348,.T.);
#461=ORIENTED_EDGE('',*,*,#331,.T.);
#462=ORIENTED_EDGE('',*,*,#351,.F.);
#463=ORIENTED_EDGE('',*,*,#343,.T.);
#464=ORIENTED_EDGE('',*,*,#350,.F.);
#465=ORIENTED_EDGE('',*,*,#330,.T.);
#466=ORIENTED_EDGE('',*,*,#325,.T.);
#467=ORIENTED_EDGE('',*,*,#344,.T.);
#468=ORIENTED_EDGE('',*,*,#351,.T.);
#469=ORIENTED_EDGE('',*,*,#334,.T.);
#470=ORIENTED_EDGE('',*,*,#349,.T.);
#471=ORIENTED_EDGE('',*,*,#340,.T.);
#472=ORIENTED_EDGE('',*,*,#307,.T.);
#473=ORIENTED_EDGE('',*,*,#300,.F.);
#474=ORIENTED_EDGE('',*,*,#310,.F.);
#475=ORIENTED_EDGE('',*,*,#339,.F.);
#476=ORIENTED_EDGE('',*,*,#322,.F.);
#477=ORIENTED_EDGE('',*,*,#319,.F.);
#478=ORIENTED_EDGE('',*,*,#328,.T.);
#479=ORIENTED_EDGE('',*,*,#352,.F.);
#480=ORIENTED_EDGE('',*,*,#353,.T.);
#481=ORIENTED_EDGE('',*,*,#354,.T.);
#482=ORIENTED_EDGE('',*,*,#355,.F.);
#483=ORIENTED_EDGE('',*,*,#299,.T.);
#484=ORIENTED_EDGE('',*,*,#297,.T.);
#485=ORIENTED_EDGE('',*,*,#316,.F.);
#486=ORIENTED_EDGE('',*,*,#356,.T.);
#487=ORIENTED_EDGE('',*,*,#352,.T.);
#488=ORIENTED_EDGE('',*,*,#356,.F.);
#489=ORIENTED_EDGE('',*,*,#315,.F.);
#490=ORIENTED_EDGE('',*,*,#357,.T.);
#491=ORIENTED_EDGE('',*,*,#353,.F.);
#492=ORIENTED_EDGE('',*,*,#357,.F.);
#493=ORIENTED_EDGE('',*,*,#317,.F.);
#494=ORIENTED_EDGE('',*,*,#358,.T.);
#495=ORIENTED_EDGE('',*,*,#354,.F.);
#496=ORIENTED_EDGE('',*,*,#358,.F.);
#497=ORIENTED_EDGE('',*,*,#318,.F.);
#498=ORIENTED_EDGE('',*,*,#359,.T.);
#499=ORIENTED_EDGE('',*,*,#355,.T.);
#500=ORIENTED_EDGE('',*,*,#359,.F.);
#501=ORIENTED_EDGE('',*,*,#335,.T.);
#502=ORIENTED_EDGE('',*,*,#360,.T.);
#503=ORIENTED_EDGE('',*,*,#345,.T.);
#504=ORIENTED_EDGE('',*,*,#360,.F.);
#505=ORIENTED_EDGE('',*,*,#336,.T.);
#506=ORIENTED_EDGE('',*,*,#361,.T.);
#507=ORIENTED_EDGE('',*,*,#346,.T.);
#508=ORIENTED_EDGE('',*,*,#361,.F.);
#509=ORIENTED_EDGE('',*,*,#337,.T.);
#510=ORIENTED_EDGE('',*,*,#362,.T.);
#511=ORIENTED_EDGE('',*,*,#347,.T.);
#512=ORIENTED_EDGE('',*,*,#362,.F.);
#513=CYLINDRICAL_SURFACE('',#574,4.);
#514=CYLINDRICAL_SURFACE('',#579,4.);
#515=CYLINDRICAL_SURFACE('',#584,2.25);
#516=CYLINDRICAL_SURFACE('',#586,2.25);
#517=CYLINDRICAL_SURFACE('',#588,10.);
#518=CYLINDRICAL_SURFACE('',#600,10.);
#519=CYLINDRICAL_SURFACE('',#606,2.);
#520=CYLINDRICAL_SURFACE('',#614,1.);
#521=CYLINDRICAL_SURFACE('',#623,5.);
#522=CYLINDRICAL_SURFACE('',#625,10.);
#523=CYLINDRICAL_SURFACE('',#626,10.);
#524=CYLINDRICAL_SURFACE('',#632,1.7);
#525=CYLINDRICAL_SURFACE('',#633,1.7);
#526=CYLINDRICAL_SURFACE('',#634,1.7);
#527=CYLINDRICAL_SURFACE('',#635,1.7);
#528=CYLINDRICAL_SURFACE('',#636,2.25);
#529=CYLINDRICAL_SURFACE('',#637,2.25);
#530=CYLINDRICAL_SURFACE('',#638,2.25);
#531=ADVANCED_FACE('',(#46),#513,.F.);
#532=ADVANCED_FACE('',(#47,#15),#35,.T.);
#533=ADVANCED_FACE('',(#48),#514,.F.);
#534=ADVANCED_FACE('',(#49,#16),#36,.T.);
#535=ADVANCED_FACE('',(#50),#515,.F.);
#536=ADVANCED_FACE('',(#51),#516,.F.);
#537=ADVANCED_FACE('',(#52),#517,.T.);
#538=ADVANCED_FACE('',(#53),#37,.T.);
#539=ADVANCED_FACE('',(#54,#17,#18,#19,#20,#21,#22),#38,.T.);
#540=ADVANCED_FACE('',(#55),#518,.T.);
#541=ADVANCED_FACE('',(#56),#39,.T.);
#542=ADVANCED_FACE('',(#57),#40,.F.);
#543=ADVANCED_FACE('',(#58),#519,.T.);
#544=ADVANCED_FACE('',(#59,#23,#24,#25),#41,.F.);
#545=ADVANCED_FACE('',(#60),#520,.F.);
#546=ADVANCED_FACE('',(#61,#26,#27,#28),#42,.T.);
#547=ADVANCED_FACE('',(#62),#43,.T.);
#548=ADVANCED_FACE('',(#63),#521,.T.);
#549=ADVANCED_FACE('',(#64),#44,.T.);
#550=ADVANCED_FACE('',(#65),#522,.T.);
#551=ADVANCED_FACE('',(#66),#523,.T.);
#552=ADVANCED_FACE('',(#67,#29,#30,#31,#32,#33,#34),#45,.T.);
#553=ADVANCED_FACE('',(#68),#524,.F.);
#554=ADVANCED_FACE('',(#69),#525,.F.);
#555=ADVANCED_FACE('',(#70),#526,.F.);
#556=ADVANCED_FACE('',(#71),#527,.F.);
#557=ADVANCED_FACE('',(#72),#528,.F.);
#558=ADVANCED_FACE('',(#73),#529,.F.);
#559=ADVANCED_FACE('',(#74),#530,.F.);
#560=CLOSED_SHELL('',(#531,#532,#533,#534,#535,#536,#537,#538,#539,#540,
#541,#542,#543,#544,#545,#546,#547,#548,#549,#550,#551,#552,#553,#554,#555,
#556,#557,#558,#559));
#561=DERIVED_UNIT_ELEMENT(#563,1.);
#562=DERIVED_UNIT_ELEMENT(#970,-3.);
#563=(
MASS_UNIT()
NAMED_UNIT(*)
SI_UNIT(.KILO.,.GRAM.)
);
#564=DERIVED_UNIT((#561,#562));
#565=MEASURE_REPRESENTATION_ITEM('density measure',
POSITIVE_RATIO_MEASURE(7850.),#564);
#566=PROPERTY_DEFINITION_REPRESENTATION(#571,#568);
#567=PROPERTY_DEFINITION_REPRESENTATION(#572,#569);
#568=REPRESENTATION('material name',(#570),#967);
#569=REPRESENTATION('density',(#565),#967);
#570=DESCRIPTIVE_REPRESENTATION_ITEM('Steel','Steel');
#571=PROPERTY_DEFINITION('material property','material name',#977);
#572=PROPERTY_DEFINITION('material property','density of part',#977);
#573=AXIS2_PLACEMENT_3D('',#810,#639,#640);
#574=AXIS2_PLACEMENT_3D('',#811,#641,#642);
#575=AXIS2_PLACEMENT_3D('',#813,#643,#644);
#576=AXIS2_PLACEMENT_3D('',#816,#646,#647);
#577=AXIS2_PLACEMENT_3D('',#817,#648,#649);
#578=AXIS2_PLACEMENT_3D('',#819,#650,#651);
#579=AXIS2_PLACEMENT_3D('',#820,#652,#653);
#580=AXIS2_PLACEMENT_3D('',#822,#654,#655);
#581=AXIS2_PLACEMENT_3D('',#825,#657,#658);
#582=AXIS2_PLACEMENT_3D('',#826,#659,#660);
#583=AXIS2_PLACEMENT_3D('',#828,#661,#662);
#584=AXIS2_PLACEMENT_3D('',#829,#663,#664);
#585=AXIS2_PLACEMENT_3D('',#832,#666,#667);
#586=AXIS2_PLACEMENT_3D('',#833,#668,#669);
#587=AXIS2_PLACEMENT_3D('',#836,#671,#672);
#588=AXIS2_PLACEMENT_3D('',#837,#673,#674);
#589=AXIS2_PLACEMENT_3D('',#840,#675,#676);
#590=AXIS2_PLACEMENT_3D('',#844,#678,#679);
#591=AXIS2_PLACEMENT_3D('',#846,#681,#682);
#592=AXIS2_PLACEMENT_3D('',#850,#684,#685);
#593=AXIS2_PLACEMENT_3D('',#858,#689,#690);
#594=AXIS2_PLACEMENT_3D('',#860,#692,#693);
#595=AXIS2_PLACEMENT_3D('',#864,#695,#696);
#596=AXIS2_PLACEMENT_3D('',#869,#699,#700);
#597=AXIS2_PLACEMENT_3D('',#871,#701,#702);
#598=AXIS2_PLACEMENT_3D('',#873,#703,#704);
#599=AXIS2_PLACEMENT_3D('',#875,#705,#706);
#600=AXIS2_PLACEMENT_3D('',#876,#707,#708);
#601=AXIS2_PLACEMENT_3D('',#879,#709,#710);
#602=AXIS2_PLACEMENT_3D('',#882,#713,#714);
#603=AXIS2_PLACEMENT_3D('',#886,#716,#717);
#604=AXIS2_PLACEMENT_3D('',#893,#721,#722);
#605=AXIS2_PLACEMENT_3D('',#894,#723,#724);
#606=AXIS2_PLACEMENT_3D('',#896,#726,#727);
#607=AXIS2_PLACEMENT_3D('',#898,#729,#730);
#608=AXIS2_PLACEMENT_3D('',#900,#731,#732);
#609=AXIS2_PLACEMENT_3D('',#904,#734,#735);
#610=AXIS2_PLACEMENT_3D('',#907,#737,#738);
#611=AXIS2_PLACEMENT_3D('',#909,#739,#740);
#612=AXIS2_PLACEMENT_3D('',#911,#741,#742);
#613=AXIS2_PLACEMENT_3D('',#913,#743,#744);
#614=AXIS2_PLACEMENT_3D('',#914,#745,#746);
#615=AXIS2_PLACEMENT_3D('',#917,#749,#750);
#616=AXIS2_PLACEMENT_3D('',#919,#751,#752);
#617=AXIS2_PLACEMENT_3D('',#923,#754,#755);
#618=AXIS2_PLACEMENT_3D('',#926,#757,#758);
#619=AXIS2_PLACEMENT_3D('',#928,#759,#760);
#620=AXIS2_PLACEMENT_3D('',#930,#761,#762);
#621=AXIS2_PLACEMENT_3D('',#932,#763,#764);
#622=AXIS2_PLACEMENT_3D('',#933,#765,#766);
#623=AXIS2_PLACEMENT_3D('',#936,#769,#770);
#624=AXIS2_PLACEMENT_3D('',#938,#772,#773);
#625=AXIS2_PLACEMENT_3D('',#940,#775,#776);
#626=AXIS2_PLACEMENT_3D('',#941,#777,#778);
#627=AXIS2_PLACEMENT_3D('',#942,#779,#780);
#628=AXIS2_PLACEMENT_3D('',#944,#781,#782);
#629=AXIS2_PLACEMENT_3D('',#946,#783,#784);
#630=AXIS2_PLACEMENT_3D('',#948,#785,#786);
#631=AXIS2_PLACEMENT_3D('',#950,#787,#788);
#632=AXIS2_PLACEMENT_3D('',#951,#789,#790);
#633=AXIS2_PLACEMENT_3D('',#953,#792,#793);
#634=AXIS2_PLACEMENT_3D('',#955,#795,#796);
#635=AXIS2_PLACEMENT_3D('',#957,#798,#799);
#636=AXIS2_PLACEMENT_3D('',#959,#801,#802);
#637=AXIS2_PLACEMENT_3D('',#961,#804,#805);
#638=AXIS2_PLACEMENT_3D('',#963,#807,#808);
#639=DIRECTION('axis',(0.,0.,1.));
#640=DIRECTION('refdir',(1.,0.,0.));
#641=DIRECTION('center_axis',(0.,0.,1.));
#642=DIRECTION('ref_axis',(-1.,0.,0.));
#643=DIRECTION('center_axis',(0.,0.,1.));
#644=DIRECTION('ref_axis',(-1.,0.,0.));
#645=DIRECTION('',(0.,0.,1.));
#646=DIRECTION('center_axis',(0.,0.,1.));
#647=DIRECTION('ref_axis',(-1.,0.,0.));
#648=DIRECTION('center_axis',(0.,0.,-1.));
#649=DIRECTION('ref_axis',(-1.,0.,0.));
#650=DIRECTION('center_axis',(0.,0.,-1.));
#651=DIRECTION('ref_axis',(-1.,0.,0.));
#652=DIRECTION('center_axis',(0.,0.,1.));
#653=DIRECTION('ref_axis',(-1.,0.,0.));
#654=DIRECTION('center_axis',(0.,0.,1.));
#655=DIRECTION('ref_axis',(-1.,0.,0.));
#656=DIRECTION('',(0.,0.,1.));
#657=DIRECTION('center_axis',(0.,0.,1.));
#658=DIRECTION('ref_axis',(-1.,0.,0.));
#659=DIRECTION('center_axis',(0.,0.,-1.));
#660=DIRECTION('ref_axis',(-1.,0.,0.));
#661=DIRECTION('center_axis',(0.,0.,-1.));
#662=DIRECTION('ref_axis',(-1.,0.,0.));
#663=DIRECTION('center_axis',(0.,0.,1.));
#664=DIRECTION('ref_axis',(-1.,0.,0.));
#665=DIRECTION('',(0.,0.,1.));
#666=DIRECTION('center_axis',(0.,0.,-1.));
#667=DIRECTION('ref_axis',(-1.,0.,0.));
#668=DIRECTION('center_axis',(0.,0.,1.));
#669=DIRECTION('ref_axis',(-1.,0.,0.));
#670=DIRECTION('',(0.,0.,1.));
#671=DIRECTION('center_axis',(0.,0.,-1.));
#672=DIRECTION('ref_axis',(-1.,0.,0.));
#673=DIRECTION('center_axis',(0.,0.,1.));
#674=DIRECTION('ref_axis',(0.707106781186548,-0.707106781186547,0.));
#675=DIRECTION('center_axis',(0.,0.,-1.));
#676=DIRECTION('ref_axis',(0.707106781186548,-0.707106781186547,0.));
#677=DIRECTION('',(0.,0.,-1.));
#678=DIRECTION('center_axis',(0.,0.,1.));
#679=DIRECTION('ref_axis',(0.707106781186548,-0.707106781186547,0.));
#680=DIRECTION('',(0.,0.,1.));
#681=DIRECTION('center_axis',(1.,0.,0.));
#682=DIRECTION('ref_axis',(0.,0.,-1.));
#683=DIRECTION('',(0.,-1.,0.));
#684=DIRECTION('center_axis',(-1.,0.,0.));
#685=DIRECTION('ref_axis',(0.,0.707106781186544,-0.707106781186551));
#686=DIRECTION('',(0.,0.,1.));
#687=DIRECTION('',(0.,1.,0.));
#688=DIRECTION('',(0.,0.,-1.));
#689=DIRECTION('center_axis',(1.,0.,0.));
#690=DIRECTION('ref_axis',(0.,0.707106781186548,-0.707106781186548));
#691=DIRECTION('',(0.,-1.,0.));
#692=DIRECTION('center_axis',(0.,0.,-1.));
#693=DIRECTION('ref_axis',(1.,0.,0.));
#694=DIRECTION('',(-1.,0.,0.));
#695=DIRECTION('center_axis',(0.,0.,1.));
#696=DIRECTION('ref_axis',(-0.707106781186548,-0.707106781186547,2.51214793389404E-15));
#697=DIRECTION('',(0.,1.,0.));
#698=DIRECTION('',(-1.,0.,0.));
#699=DIRECTION('center_axis',(0.,0.,1.));
#700=DIRECTION('ref_axis',(-1.,0.,0.));
#701=DIRECTION('center_axis',(0.,0.,1.));
#702=DIRECTION('ref_axis',(-1.,0.,0.));
#703=DIRECTION('center_axis',(0.,0.,1.));
#704=DIRECTION('ref_axis',(-1.,0.,0.));
#705=DIRECTION('center_axis',(0.,0.,1.));
#706=DIRECTION('ref_axis',(-1.,0.,0.));
#707=DIRECTION('center_axis',(4.57920294047542E-15,0.,1.));
#708=DIRECTION('ref_axis',(-0.707106781186548,-0.707106781186547,2.51214793389404E-15));
#709=DIRECTION('center_axis',(0.,0.,-1.));
#710=DIRECTION('ref_axis',(-0.707106781186548,-0.707106781186547,2.51214793389404E-15));
#711=DIRECTION('',(-4.57920294047542E-15,0.,-1.));
#712=DIRECTION('',(4.57920294047542E-15,0.,1.));
#713=DIRECTION('center_axis',(-1.,0.,4.57920294047542E-15));
#714=DIRECTION('ref_axis',(4.57920294047542E-15,0.,1.));
#715=DIRECTION('',(0.,1.,0.));
#716=DIRECTION('center_axis',(-1.,0.,4.57920294047542E-15));
#717=DIRECTION('ref_axis',(0.,0.707106781186548,-0.707106781186548));
#718=DIRECTION('',(4.57920294047542E-15,0.,1.));
#719=DIRECTION('',(0.,-1.,0.));
#720=DIRECTION('',(0.,0.,-1.));
#721=DIRECTION('center_axis',(1.,0.,-4.57920294047542E-15));
#722=DIRECTION('ref_axis',(0.,0.707106781186544,-0.707106781186551));
#723=DIRECTION('center_axis',(0.,1.,0.));
#724=DIRECTION('ref_axis',(0.,0.,1.));
#725=DIRECTION('',(1.,0.,0.));
#726=DIRECTION('center_axis',(1.,0.,0.));
#727=DIRECTION('ref_axis',(0.,0.707106781186544,-0.707106781186551));
#728=DIRECTION('',(1.,0.,0.));
#729=DIRECTION('center_axis',(0.,-1.,0.));
#730=DIRECTION('ref_axis',(0.,0.,1.));
#731=DIRECTION('center_axis',(0.,-1.,0.));
#732=DIRECTION('ref_axis',(-0.923879532511286,0.,0.382683432365092));
#733=DIRECTION('',(-0.707106781186547,0.,-0.707106781186548));
#734=DIRECTION('center_axis',(0.,-1.,0.));
#735=DIRECTION('ref_axis',(-5.49532360539321E-16,0.,1.));
#736=DIRECTION('',(-0.707106781186548,0.,0.707106781186547));
#737=DIRECTION('center_axis',(0.,-1.,0.));
#738=DIRECTION('ref_axis',(0.923879532511287,0.,0.382683432365089));
#739=DIRECTION('center_axis',(0.,1.,0.));
#740=DIRECTION('ref_axis',(-1.,0.,0.));
#741=DIRECTION('center_axis',(0.,1.,0.));
#742=DIRECTION('ref_axis',(-1.,0.,0.));
#743=DIRECTION('center_axis',(0.,1.,0.));
#744=DIRECTION('ref_axis',(-1.,0.,0.));
#745=DIRECTION('center_axis',(-1.,0.,0.));
#746=DIRECTION('ref_axis',(0.,0.707106781186548,-0.707106781186548));
#747=DIRECTION('',(-1.,0.,0.));
#748=DIRECTION('',(1.,0.,0.));
#749=DIRECTION('center_axis',(0.,-1.,0.));
#750=DIRECTION('ref_axis',(-1.,0.,0.));
#751=DIRECTION('center_axis',(0.,1.,0.));
#752=DIRECTION('ref_axis',(0.923879532511287,0.,0.382683432365089));
#753=DIRECTION('',(0.707106781186548,0.,-0.707106781186547));
#754=DIRECTION('center_axis',(0.,1.,0.));
#755=DIRECTION('ref_axis',(-5.49532360539321E-16,0.,1.));
#756=DIRECTION('',(0.707106781186547,0.,0.707106781186548));
#757=DIRECTION('center_axis',(0.,1.,0.));
#758=DIRECTION('ref_axis',(-0.923879532511286,0.,0.382683432365092));
#759=DIRECTION('center_axis',(0.,-1.,0.));
#760=DIRECTION('ref_axis',(-1.,0.,0.));
#761=DIRECTION('center_axis',(0.,-1.,0.));
#762=DIRECTION('ref_axis',(-1.,0.,0.));
#763=DIRECTION('center_axis',(0.,-1.,0.));
#764=DIRECTION('ref_axis',(-1.,0.,0.));
#765=DIRECTION('center_axis',(0.707106781186547,0.,0.707106781186548));
#766=DIRECTION('ref_axis',(0.707106781186548,0.,-0.707106781186547));
#767=DIRECTION('',(0.,1.,0.));
#768=DIRECTION('',(0.,-1.,0.));
#769=DIRECTION('center_axis',(0.,1.,0.));
#770=DIRECTION('ref_axis',(-5.49532360539321E-16,0.,1.));
#771=DIRECTION('',(0.,-1.,0.));
#772=DIRECTION('center_axis',(-0.707106781186548,0.,0.707106781186547));
#773=DIRECTION('ref_axis',(0.707106781186547,0.,0.707106781186548));
#774=DIRECTION('',(0.,1.,0.));
#775=DIRECTION('center_axis',(0.,1.,0.));
#776=DIRECTION('ref_axis',(-0.923879532511286,0.,0.382683432365092));
#777=DIRECTION('center_axis',(0.,1.,0.));
#778=DIRECTION('ref_axis',(0.923879532511287,0.,0.382683432365089));
#779=DIRECTION('center_axis',(0.,0.,1.));
#780=DIRECTION('ref_axis',(-1.,0.,0.));
#781=DIRECTION('center_axis',(0.,0.,1.));
#782=DIRECTION('ref_axis',(-1.,0.,0.));
#783=DIRECTION('center_axis',(0.,0.,-1.));
#784=DIRECTION('ref_axis',(-1.,0.,0.));
#785=DIRECTION('center_axis',(0.,0.,-1.));
#786=DIRECTION('ref_axis',(-1.,0.,0.));
#787=DIRECTION('center_axis',(0.,0.,1.));
#788=DIRECTION('ref_axis',(-1.,0.,0.));
#789=DIRECTION('center_axis',(0.,0.,1.));
#790=DIRECTION('ref_axis',(-1.,0.,0.));
#791=DIRECTION('',(0.,0.,1.));
#792=DIRECTION('center_axis',(0.,0.,1.));
#793=DIRECTION('ref_axis',(-1.,0.,0.));
#794=DIRECTION('',(0.,0.,1.));
#795=DIRECTION('center_axis',(0.,0.,1.));
#796=DIRECTION('ref_axis',(-1.,0.,0.));
#797=DIRECTION('',(0.,0.,1.));
#798=DIRECTION('center_axis',(0.,0.,1.));
#799=DIRECTION('ref_axis',(-1.,0.,0.));
#800=DIRECTION('',(0.,0.,1.));
#801=DIRECTION('center_axis',(0.,-1.,0.));
#802=DIRECTION('ref_axis',(-1.,0.,0.));
#803=DIRECTION('',(0.,-1.,0.));
#804=DIRECTION('center_axis',(0.,-1.,0.));
#805=DIRECTION('ref_axis',(-1.,0.,0.));
#806=DIRECTION('',(0.,-1.,0.));
#807=DIRECTION('center_axis',(0.,-1.,0.));
#808=DIRECTION('ref_axis',(-1.,0.,0.));
#809=DIRECTION('',(0.,-1.,0.));
#810=CARTESIAN_POINT('',(0.,0.,0.));
#811=CARTESIAN_POINT('Origin',(-19.4625566823703,14.1801999999999,-69.8614106038164));
#812=CARTESIAN_POINT('',(-15.4625566823703,14.1801999999999,-69.8614106038164));
#813=CARTESIAN_POINT('Origin',(-19.4625566823703,14.1801999999999,-69.8614106038164));
#814=CARTESIAN_POINT('',(-15.4625566823703,14.1801999999999,-67.3614106038164));
#815=CARTESIAN_POINT('',(-15.4625566823703,14.1801999999999,-69.8614106038164));
#816=CARTESIAN_POINT('Origin',(-19.4625566823703,14.1801999999999,-67.3614106038164));
#817=CARTESIAN_POINT('Origin',(-19.4625566823703,14.1801999999999,-67.3614106038164));
#818=CARTESIAN_POINT('',(-17.2125566823703,14.1801999999999,-67.3614106038164));
#819=CARTESIAN_POINT('Origin',(-19.4625566823703,14.1801999999999,-67.3614106038164));
#820=CARTESIAN_POINT('Origin',(19.9625566823704,14.1801999999999,-69.8614106038164));
#821=CARTESIAN_POINT('',(23.9625566823704,14.1801999999999,-69.8614106038164));
#822=CARTESIAN_POINT('Origin',(19.9625566823704,14.1801999999999,-69.8614106038164));
#823=CARTESIAN_POINT('',(23.9625566823704,14.1801999999999,-67.3614106038164));
#824=CARTESIAN_POINT('',(23.9625566823704,14.1801999999999,-69.8614106038164));
#825=CARTESIAN_POINT('Origin',(19.9625566823704,14.1801999999999,-67.3614106038164));
#826=CARTESIAN_POINT('Origin',(19.9625566823704,14.1801999999999,-67.3614106038164));
#827=CARTESIAN_POINT('',(22.2125566823704,14.1801999999999,-67.3614106038164));
#828=CARTESIAN_POINT('Origin',(19.9625566823704,14.1801999999999,-67.3614106038164));
#829=CARTESIAN_POINT('Origin',(19.9625566823704,14.1801999999999,-69.8614106038164));
#830=CARTESIAN_POINT('',(22.2125566823704,14.1801999999999,-63.8614106038165));
#831=CARTESIAN_POINT('',(22.2125566823704,14.1801999999999,-69.8614106038164));
#832=CARTESIAN_POINT('Origin',(19.9625566823704,14.1801999999999,-63.8614106038165));
#833=CARTESIAN_POINT('Origin',(-19.4625566823703,14.1801999999999,-69.8614106038164));
#834=CARTESIAN_POINT('',(-17.2125566823703,14.1801999999999,-63.8614106038165));
#835=CARTESIAN_POINT('',(-17.2125566823703,14.1801999999999,-69.8614106038164));
#836=CARTESIAN_POINT('Origin',(-19.4625566823703,14.1801999999999,-63.8614106038165));
#837=CARTESIAN_POINT('Origin',(37.45,7.18020000000006,-55.6718188642813));
#838=CARTESIAN_POINT('',(47.45,7.18020000000006,-63.8614106038165));
#839=CARTESIAN_POINT('',(37.45,-2.81979999999994,-63.8614106038165));
#840=CARTESIAN_POINT('Origin',(37.45,7.18020000000006,-63.8614106038165));
#841=CARTESIAN_POINT('',(37.45,-2.81979999999994,-69.8614106038164));
#842=CARTESIAN_POINT('',(37.45,-2.81979999999993,-55.6718188642813));
#843=CARTESIAN_POINT('',(47.45,7.18020000000006,-69.8614106038164));
#844=CARTESIAN_POINT('Origin',(37.45,7.18020000000006,-69.8614106038164));
#845=CARTESIAN_POINT('',(47.45,7.18020000000006,-55.6718188642813));
#846=CARTESIAN_POINT('Origin',(47.45,64.9462000000001,-44.9822271247461));
#847=CARTESIAN_POINT('',(47.45,70.9459089884691,-69.8614106038164));
#848=CARTESIAN_POINT('',(47.45,69.9462000000001,-69.8614106038164));
#849=CARTESIAN_POINT('',(47.45,72.9459089884691,-67.8614106038164));
#850=CARTESIAN_POINT('Origin',(47.45,70.9459089884691,-67.8614106038164));
#851=CARTESIAN_POINT('',(47.45,72.9459089884691,-49.1243627484771));
#852=CARTESIAN_POINT('',(47.45,72.9459089884691,-56.9218188642813));
#853=CARTESIAN_POINT('',(47.45,66.9462000000001,-49.1243627484771));
#854=CARTESIAN_POINT('',(47.45,64.9462000000001,-49.1243627484771));
#855=CARTESIAN_POINT('',(47.45,66.9462000000001,-62.8614106038165));
#856=CARTESIAN_POINT('',(47.45,66.9462000000001,-46.9218188642813));
#857=CARTESIAN_POINT('',(47.45,65.9462000000001,-63.8614106038165));
#858=CARTESIAN_POINT('Origin',(47.45,65.9462000000001,-62.8614106038165));
#859=CARTESIAN_POINT('',(47.45,64.9462000000001,-63.8614106038165));
#860=CARTESIAN_POINT('Origin',(-46.95,69.9462000000001,-69.8614106038164));
#861=CARTESIAN_POINT('',(-36.9500000000001,-2.81979999999994,-69.8614106038164));
#862=CARTESIAN_POINT('',(-23.35,-2.81979999999994,-69.8614106038164));
#863=CARTESIAN_POINT('',(-46.9500000000001,7.18020000000006,-69.8614106038164));
#864=CARTESIAN_POINT('Origin',(-36.9500000000001,7.18020000000006,-69.8614106038165));
#865=CARTESIAN_POINT('',(-46.9500000000001,70.9459089884691,-69.8614106038164));
#866=CARTESIAN_POINT('',(-46.9500000000001,19.9462000000001,-69.8614106038164));
#867=CARTESIAN_POINT('',(0.249999999999995,70.9459089884691,-69.8614106038164));
#868=CARTESIAN_POINT('',(-21.6500000000001,4.53705449423458,-69.8614106038164));
#869=CARTESIAN_POINT('Origin',(-23.3500000000001,4.53705449423458,-69.8614106038164));
#870=CARTESIAN_POINT('',(25.55,63.0370544942346,-69.8614106038164));
#871=CARTESIAN_POINT('Origin',(23.85,63.0370544942346,-69.8614106038164));
#872=CARTESIAN_POINT('',(25.55,4.53705449423458,-69.8614106038164));
#873=CARTESIAN_POINT('Origin',(23.85,4.53705449423458,-69.8614106038164));
#874=CARTESIAN_POINT('',(-21.6500000000001,63.0370544942346,-69.8614106038164));
#875=CARTESIAN_POINT('Origin',(-23.3500000000001,63.0370544942346,-69.8614106038164));
#876=CARTESIAN_POINT('Origin',(-36.9500000000001,7.18020000000006,-57.6114106038164));
#877=CARTESIAN_POINT('',(-36.9500000000001,-2.81979999999994,-63.8614106038165));
#878=CARTESIAN_POINT('',(-46.9500000000001,7.18020000000006,-63.8614106038165));
#879=CARTESIAN_POINT('Origin',(-36.9500000000001,7.18020000000006,-63.8614106038161));
#880=CARTESIAN_POINT('',(-46.9500000000001,7.18020000000006,-57.6114106038163));
#881=CARTESIAN_POINT('',(-36.9500000000001,-2.81979999999993,-57.6114106038164));
#882=CARTESIAN_POINT('Origin',(-46.95,64.9462000000001,-48.8614106038165));
#883=CARTESIAN_POINT('',(-46.9500000000001,65.9462000000001,-63.8614106038165));
#884=CARTESIAN_POINT('',(-46.9500000000001,64.9462000000001,-63.8614106038165));
#885=CARTESIAN_POINT('',(-46.9500000000001,66.9462000000001,-62.8614106038165));
#886=CARTESIAN_POINT('Origin',(-46.95,65.9462000000001,-62.8614106038165));
#887=CARTESIAN_POINT('',(-46.95,66.9462000000001,-49.124362748477));
#888=CARTESIAN_POINT('',(-46.95,66.9462000000001,-48.8614106038162));
#889=CARTESIAN_POINT('',(-46.95,72.9459089884691,-49.124362748477));
#890=CARTESIAN_POINT('',(-46.95,64.9462000000001,-49.124362748477));
#891=CARTESIAN_POINT('',(-46.9500000000001,72.9459089884691,-67.8614106038164));
#892=CARTESIAN_POINT('',(-46.9500000000001,72.9459089884691,-68.8614106038165));
#893=CARTESIAN_POINT('Origin',(-46.95,70.9459089884691,-67.8614106038164));
#894=CARTESIAN_POINT('Origin',(0.249999999999995,-2.81979999999993,-66.3614106038165));
#895=CARTESIAN_POINT('',(23.85,-2.81979999999994,-63.8614106038165));
#896=CARTESIAN_POINT('Origin',(0.249999999999995,70.9459089884691,-67.8614106038164));
#897=CARTESIAN_POINT('',(0.249999999999995,72.9459089884691,-67.8614106038164));
#898=CARTESIAN_POINT('Origin',(47.45,72.9459089884691,-68.8614106038165));
#899=CARTESIAN_POINT('',(-44.0210678118655,72.9459089884691,-42.0532949366116));
#900=CARTESIAN_POINT('Origin',(-36.95,72.9459089884691,-49.1243627484771));
#901=CARTESIAN_POINT('',(-3.28553390593275,72.9459089884691,-1.31776103067884));
#902=CARTESIAN_POINT('',(-29.3197958697676,72.9459089884691,-27.3520229945137));
#903=CARTESIAN_POINT('',(3.78553390593273,72.9459089884691,-1.31776103067884));
#904=CARTESIAN_POINT('Origin',(0.24999999999999,72.9459089884691,-4.85329493661158));
#905=CARTESIAN_POINT('',(44.5210678118655,72.9459089884691,-42.0532949366116));
#906=CARTESIAN_POINT('',(29.8197958697676,72.9459089884691,-27.3520229945137));
#907=CARTESIAN_POINT('Origin',(37.45,72.9459089884691,-49.1243627484771));
#908=CARTESIAN_POINT('',(34.2473069297861,72.9459089884691,-39.9973069297861));
#909=CARTESIAN_POINT('Origin',(31.9973069297861,72.9459089884691,-39.9973069297861));
#910=CARTESIAN_POINT('',(-29.747306929786,72.9459089884691,-39.997306929786));
#911=CARTESIAN_POINT('Origin',(-31.997306929786,72.9459089884691,-39.997306929786));
#912=CARTESIAN_POINT('',(2.25,72.9459089884691,-4.));
#913=CARTESIAN_POINT('Origin',(0.,72.9459089884691,-4.));
#914=CARTESIAN_POINT('Origin',(47.45,65.9462000000001,-62.8614106038165));
#915=CARTESIAN_POINT('',(47.45,66.9462000000001,-62.8614106038165));
#916=CARTESIAN_POINT('',(47.45,65.9462000000001,-63.8614106038165));
#917=CARTESIAN_POINT('Origin',(47.45,66.9462000000001,-48.8614106038165));
#918=CARTESIAN_POINT('',(44.5210678118655,66.9462000000001,-42.0532949366116));
#919=CARTESIAN_POINT('Origin',(37.45,66.9462000000001,-49.1243627484771));
#920=CARTESIAN_POINT('',(3.78553390593273,66.9462000000001,-1.31776103067884));
#921=CARTESIAN_POINT('',(24.8197958697676,66.9462000000001,-22.3520229945137));
#922=CARTESIAN_POINT('',(-3.28553390593274,66.9462000000001,-1.31776103067884));
#923=CARTESIAN_POINT('Origin',(0.24999999999999,66.9462000000001,-4.85329493661158));
#924=CARTESIAN_POINT('',(-44.0210678118655,66.9462000000001,-42.0532949366116));
#925=CARTESIAN_POINT('',(-24.3197958697676,66.9462000000001,-22.3520229945137));
#926=CARTESIAN_POINT('Origin',(-36.95,66.9462000000001,-49.1243627484771));
#927=CARTESIAN_POINT('',(34.2473069297861,66.9462000000001,-39.9973069297861));
#928=CARTESIAN_POINT('Origin',(31.9973069297861,66.9462000000001,-39.9973069297861));
#929=CARTESIAN_POINT('',(-29.747306929786,66.9462000000001,-39.997306929786));
#930=CARTESIAN_POINT('Origin',(-31.997306929786,66.9462000000001,-39.997306929786));
#931=CARTESIAN_POINT('',(2.25,66.9462000000001,-4.));
#932=CARTESIAN_POINT('Origin',(0.,66.9462000000001,-4.));
#933=CARTESIAN_POINT('Origin',(0.249999999999986,64.9462000000001,2.2177728752539));
#934=CARTESIAN_POINT('',(3.78553390593273,64.9462000000001,-1.31776103067884));
#935=CARTESIAN_POINT('',(44.5210678118655,64.9462000000001,-42.0532949366116));
#936=CARTESIAN_POINT('Origin',(0.24999999999999,64.9462000000001,-4.85329493661158));
#937=CARTESIAN_POINT('',(-3.28553390593275,64.9462000000001,-1.31776103067884));
#938=CARTESIAN_POINT('Origin',(-46.95,64.9462000000001,-44.9822271247461));
#939=CARTESIAN_POINT('',(-44.0210678118655,71.3939089884691,-42.0532949366116));
#940=CARTESIAN_POINT('Origin',(-36.95,64.9462000000001,-49.1243627484771));
#941=CARTESIAN_POINT('Origin',(37.45,64.9462000000001,-49.1243627484771));
#942=CARTESIAN_POINT('Origin',(47.45,69.9462000000001,-63.8614106038165));
#943=CARTESIAN_POINT('',(25.55,63.0370544942346,-63.8614106038165));
#944=CARTESIAN_POINT('Origin',(23.85,63.0370544942346,-63.8614106038165));
#945=CARTESIAN_POINT('',(-21.6500000000001,4.53705449423458,-63.8614106038165));
#946=CARTESIAN_POINT('Origin',(-23.3500000000001,4.53705449423458,-63.8614106038165));
#947=CARTESIAN_POINT('',(25.55,4.53705449423458,-63.8614106038165));
#948=CARTESIAN_POINT('Origin',(23.85,4.53705449423458,-63.8614106038165));
#949=CARTESIAN_POINT('',(-21.6500000000001,63.0370544942346,-63.8614106038165));
#950=CARTESIAN_POINT('Origin',(-23.3500000000001,63.0370544942346,-63.8614106038165));
#951=CARTESIAN_POINT('Origin',(23.85,63.0370544942346,-68.8614106038165));
#952=CARTESIAN_POINT('',(25.55,63.0370544942346,-68.8614106038165));
#953=CARTESIAN_POINT('Origin',(-23.3500000000001,4.53705449423458,-68.8614106038165));
#954=CARTESIAN_POINT('',(-21.6500000000001,4.53705449423458,-68.8614106038165));
#955=CARTESIAN_POINT('Origin',(23.85,4.53705449423458,-68.8614106038165));
#956=CARTESIAN_POINT('',(25.55,4.53705449423458,-68.8614106038165));
#957=CARTESIAN_POINT('Origin',(-23.3500000000001,63.0370544942346,-68.8614106038165));
#958=CARTESIAN_POINT('',(-21.6500000000001,63.0370544942346,-68.8614106038165));
#959=CARTESIAN_POINT('Origin',(31.9973069297861,64.9462000000001,-39.9973069297861));
#960=CARTESIAN_POINT('',(34.2473069297861,64.9462000000001,-39.9973069297861));
#961=CARTESIAN_POINT('Origin',(-31.997306929786,64.9462000000001,-39.997306929786));
#962=CARTESIAN_POINT('',(-29.747306929786,64.9462000000001,-39.997306929786));
#963=CARTESIAN_POINT('Origin',(0.,64.9462000000001,-4.));
#964=CARTESIAN_POINT('',(2.25,64.9462000000001,-4.));
#965=UNCERTAINTY_MEASURE_WITH_UNIT(LENGTH_MEASURE(0.01),#969,
'DISTANCE_ACCURACY_VALUE',
'Maximum model space distance between geometric entities at asserted c
onnectivities');
#966=UNCERTAINTY_MEASURE_WITH_UNIT(LENGTH_MEASURE(0.01),#969,
'DISTANCE_ACCURACY_VALUE',
'Maximum model space distance between geometric entities at asserted c
onnectivities');
#967=(
GEOMETRIC_REPRESENTATION_CONTEXT(3)
GLOBAL_UNCERTAINTY_ASSIGNED_CONTEXT((#965))
GLOBAL_UNIT_ASSIGNED_CONTEXT((#969,#971,#972))
REPRESENTATION_CONTEXT('','3D')
);
#968=(
GEOMETRIC_REPRESENTATION_CONTEXT(3)
GLOBAL_UNCERTAINTY_ASSIGNED_CONTEXT((#966))
GLOBAL_UNIT_ASSIGNED_CONTEXT((#969,#971,#972))
REPRESENTATION_CONTEXT('','3D')
);
#969=(
LENGTH_UNIT()
NAMED_UNIT(*)
SI_UNIT(.MILLI.,.METRE.)
);
#970=(
LENGTH_UNIT()
NAMED_UNIT(*)
SI_UNIT($,.METRE.)
);
#971=(
NAMED_UNIT(*)
PLANE_ANGLE_UNIT()
SI_UNIT($,.RADIAN.)
);
#972=(
NAMED_UNIT(*)
SI_UNIT($,.STERADIAN.)
SOLID_ANGLE_UNIT()
);
#973=SHAPE_DEFINITION_REPRESENTATION(#974,#975);
#974=PRODUCT_DEFINITION_SHAPE('',$,#977);
#975=SHAPE_REPRESENTATION('',(#573),#967);
#976=PRODUCT_DEFINITION_CONTEXT('part definition',#981,'design');
#977=PRODUCT_DEFINITION('2026-08-17-19-33-55-220','Orion Top Mount',#978,
#976);
#978=PRODUCT_DEFINITION_FORMATION('',$,#983);
#979=PRODUCT_RELATED_PRODUCT_CATEGORY('Orion Top Mount',
'Orion Top Mount',(#983));
#980=APPLICATION_PROTOCOL_DEFINITION('international standard',
'automotive_design',2009,#981);
#981=APPLICATION_CONTEXT(
'Core Data for Automotive Mechanical Design Process');
#982=PRODUCT_CONTEXT('part definition',#981,'mechanical');
#983=PRODUCT('2026-08-17-19-33-55-220','Orion Top Mount',$,(#982));
#984=PRESENTATION_STYLE_ASSIGNMENT((#986));
#985=PRESENTATION_STYLE_ASSIGNMENT((#987));
#986=SURFACE_STYLE_USAGE(.BOTH.,#988);
#987=SURFACE_STYLE_USAGE(.BOTH.,#989);
#988=SURFACE_SIDE_STYLE('',(#990));
#989=SURFACE_SIDE_STYLE('',(#991));
#990=SURFACE_STYLE_FILL_AREA(#992);
#991=SURFACE_STYLE_FILL_AREA(#993);
#992=FILL_AREA_STYLE('Steel - Satin',(#994));
#993=FILL_AREA_STYLE('ABS (White)',(#995));
#994=FILL_AREA_STYLE_COLOUR('Steel - Satin',#996);
#995=FILL_AREA_STYLE_COLOUR('ABS (White)',#997);
#996=COLOUR_RGB('Steel - Satin',0.627450980392157,0.627450980392157,0.627450980392157);
#997=COLOUR_RGB('ABS (White)',0.964705882352941,0.964705882352941,0.952941176470588);
ENDSEC;
END-ISO-10303-21;
