ISO-10303-21;
HEADER;
/* Generated by software containing ST-Developer
 * from STEP Tools, Inc. (www.steptools.com) 
 */

FILE_DESCRIPTION(
/* description */ (''),
/* implementation_level */ '2;1');

FILE_NAME(
/* name */ 'Orion Run-off Slope.step',
/* time_stamp */ '2026-08-17T19:34:07+05:30',
/* author */ (''),
/* organization */ (''),
/* preprocessor_version */ 'ST-DEVELOPER v20.1',
/* originating_system */ 'Autodesk Translation Framework v15.8.0.0',
/* authorisation */ '');

FILE_SCHEMA (('AUTOMOTIVE_DESIGN { 1 0 10303 214 3 1 1 }'));
ENDSEC;

DATA;
#10=MECHANICAL_DESIGN_GEOMETRIC_PRESENTATION_REPRESENTATION('',(#13),#596);
#11=SHAPE_REPRESENTATION_RELATIONSHIP('SRR','None',#603,#12);
#12=ADVANCED_BREP_SHAPE_REPRESENTATION('',(#14),#595);
#13=STYLED_ITEM('',(#612),#14);
#14=MANIFOLD_SOLID_BREP('Orion Top Slope',#354);
#15=PLANE('',#371);
#16=PLANE('',#375);
#17=PLANE('',#379);
#18=PLANE('',#381);
#19=PLANE('',#383);
#20=PLANE('',#385);
#21=PLANE('',#388);
#22=PLANE('',#389);
#23=PLANE('',#390);
#24=PLANE('',#391);
#25=PLANE('',#392);
#26=PLANE('',#393);
#27=PLANE('',#395);
#28=FACE_OUTER_BOUND('',#49,.T.);
#29=FACE_OUTER_BOUND('',#50,.T.);
#30=FACE_OUTER_BOUND('',#51,.T.);
#31=FACE_OUTER_BOUND('',#52,.T.);
#32=FACE_OUTER_BOUND('',#53,.T.);
#33=FACE_OUTER_BOUND('',#54,.T.);
#34=FACE_OUTER_BOUND('',#55,.T.);
#35=FACE_OUTER_BOUND('',#56,.T.);
#36=FACE_OUTER_BOUND('',#57,.T.);
#37=FACE_OUTER_BOUND('',#58,.T.);
#38=FACE_OUTER_BOUND('',#59,.T.);
#39=FACE_OUTER_BOUND('',#60,.T.);
#40=FACE_OUTER_BOUND('',#61,.T.);
#41=FACE_OUTER_BOUND('',#62,.T.);
#42=FACE_OUTER_BOUND('',#63,.T.);
#43=FACE_OUTER_BOUND('',#64,.T.);
#44=FACE_OUTER_BOUND('',#65,.T.);
#45=FACE_OUTER_BOUND('',#66,.T.);
#46=FACE_OUTER_BOUND('',#67,.T.);
#47=FACE_OUTER_BOUND('',#68,.T.);
#48=FACE_OUTER_BOUND('',#69,.T.);
#49=EDGE_LOOP('',(#231,#232,#233,#234));
#50=EDGE_LOOP('',(#235,#236,#237,#238));
#51=EDGE_LOOP('',(#239,#240,#241,#242));
#52=EDGE_LOOP('',(#243,#244,#245,#246));
#53=EDGE_LOOP('',(#247,#248,#249,#250));
#54=EDGE_LOOP('',(#251,#252,#253,#254));
#55=EDGE_LOOP('',(#255,#256,#257));
#56=EDGE_LOOP('',(#258,#259,#260,#261,#262,#263));
#57=EDGE_LOOP('',(#264,#265,#266));
#58=EDGE_LOOP('',(#267,#268,#269,#270,#271,#272));
#59=EDGE_LOOP('',(#273,#274,#275));
#60=EDGE_LOOP('',(#276,#277,#278,#279,#280,#281));
#61=EDGE_LOOP('',(#282,#283,#284));
#62=EDGE_LOOP('',(#285,#286,#287,#288));
#63=EDGE_LOOP('',(#289,#290,#291,#292));
#64=EDGE_LOOP('',(#293,#294,#295,#296));
#65=EDGE_LOOP('',(#297,#298,#299,#300));
#66=EDGE_LOOP('',(#301,#302,#303,#304));
#67=EDGE_LOOP('',(#305,#306,#307,#308,#309,#310,#311,#312,#313,#314,#315,
#316));
#68=EDGE_LOOP('',(#317,#318,#319,#320));
#69=EDGE_LOOP('',(#321,#322,#323,#324));
#70=LINE('',#502,#109);
#71=LINE('',#505,#110);
#72=LINE('',#508,#111);
#73=LINE('',#510,#112);
#74=LINE('',#511,#113);
#75=LINE('',#517,#114);
#76=LINE('',#520,#115);
#77=LINE('',#522,#116);
#78=LINE('',#523,#117);
#79=LINE('',#529,#118);
#80=LINE('',#533,#119);
#81=LINE('',#535,#120);
#82=LINE('',#537,#121);
#83=LINE('',#538,#122);
#84=LINE('',#541,#123);
#85=LINE('',#542,#124);
#86=LINE('',#545,#125);
#87=LINE('',#546,#126);
#88=LINE('',#547,#127);
#89=LINE('',#549,#128);
#90=LINE('',#552,#129);
#91=LINE('',#553,#130);
#92=LINE('',#555,#131);
#93=LINE('',#558,#132);
#94=LINE('',#560,#133);
#95=LINE('',#561,#134);
#96=LINE('',#565,#135);
#97=LINE('',#568,#136);
#98=LINE('',#570,#137);
#99=LINE('',#571,#138);
#100=LINE('',#574,#139);
#101=LINE('',#575,#140);
#102=LINE('',#578,#141);
#103=LINE('',#579,#142);
#104=LINE('',#581,#143);
#105=LINE('',#584,#144);
#106=LINE('',#585,#145);
#107=LINE('',#588,#146);
#108=LINE('',#591,#147);
#109=VECTOR('',#403,10.);
#110=VECTOR('',#406,10.);
#111=VECTOR('',#409,10.);
#112=VECTOR('',#410,10.);
#113=VECTOR('',#411,10.);
#114=VECTOR('',#418,10.);
#115=VECTOR('',#421,10.);
#116=VECTOR('',#422,10.);
#117=VECTOR('',#423,10.);
#118=VECTOR('',#430,10.);
#119=VECTOR('',#433,10.);
#120=VECTOR('',#434,10.);
#121=VECTOR('',#435,10.);
#122=VECTOR('',#436,10.);
#123=VECTOR('',#439,10.);
#124=VECTOR('',#440,10.);
#125=VECTOR('',#443,10.);
#126=VECTOR('',#444,10.);
#127=VECTOR('',#445,10.);
#128=VECTOR('',#448,10.);
#129=VECTOR('',#451,10.);
#130=VECTOR('',#452,10.);
#131=VECTOR('',#455,10.);
#132=VECTOR('',#458,10.);
#133=VECTOR('',#459,10.);
#134=VECTOR('',#460,10.);
#135=VECTOR('',#465,10.);
#136=VECTOR('',#468,10.);
#137=VECTOR('',#469,10.);
#138=VECTOR('',#470,10.);
#139=VECTOR('',#473,10.);
#140=VECTOR('',#474,10.);
#141=VECTOR('',#477,10.);
#142=VECTOR('',#478,10.);
#143=VECTOR('',#481,10.);
#144=VECTOR('',#484,10.);
#145=VECTOR('',#485,10.);
#146=VECTOR('',#488,10.);
#147=VECTOR('',#493,10.);
#148=CIRCLE('',#369,6.86733765196515);
#149=CIRCLE('',#370,6.70761060381651);
#150=CIRCLE('',#373,4.36733765196513);
#151=CIRCLE('',#374,4.20761060381649);
#152=CIRCLE('',#377,4.36733765196512);
#153=CIRCLE('',#378,4.20761060381648);
#154=CIRCLE('',#387,6.70761060381651);
#155=CIRCLE('',#394,6.86733765196515);
#156=VERTEX_POINT('',#498);
#157=VERTEX_POINT('',#499);
#158=VERTEX_POINT('',#501);
#159=VERTEX_POINT('',#503);
#160=VERTEX_POINT('',#507);
#161=VERTEX_POINT('',#509);
#162=VERTEX_POINT('',#513);
#163=VERTEX_POINT('',#515);
#164=VERTEX_POINT('',#519);
#165=VERTEX_POINT('',#521);
#166=VERTEX_POINT('',#525);
#167=VERTEX_POINT('',#527);
#168=VERTEX_POINT('',#531);
#169=VERTEX_POINT('',#532);
#170=VERTEX_POINT('',#534);
#171=VERTEX_POINT('',#536);
#172=VERTEX_POINT('',#540);
#173=VERTEX_POINT('',#544);
#174=VERTEX_POINT('',#551);
#175=VERTEX_POINT('',#557);
#176=VERTEX_POINT('',#559);
#177=VERTEX_POINT('',#563);
#178=VERTEX_POINT('',#567);
#179=VERTEX_POINT('',#569);
#180=VERTEX_POINT('',#573);
#181=VERTEX_POINT('',#577);
#182=VERTEX_POINT('',#583);
#183=VERTEX_POINT('',#587);
#184=EDGE_CURVE('',#156,#157,#148,.T.);
#185=EDGE_CURVE('',#157,#158,#70,.T.);
#186=EDGE_CURVE('',#158,#159,#149,.T.);
#187=EDGE_CURVE('',#156,#159,#71,.T.);
#188=EDGE_CURVE('',#160,#156,#72,.T.);
#189=EDGE_CURVE('',#159,#161,#73,.T.);
#190=EDGE_CURVE('',#160,#161,#74,.T.);
#191=EDGE_CURVE('',#162,#160,#150,.T.);
#192=EDGE_CURVE('',#161,#163,#151,.T.);
#193=EDGE_CURVE('',#162,#163,#75,.T.);
#194=EDGE_CURVE('',#164,#162,#76,.T.);
#195=EDGE_CURVE('',#163,#165,#77,.T.);
#196=EDGE_CURVE('',#165,#164,#78,.T.);
#197=EDGE_CURVE('',#166,#164,#152,.T.);
#198=EDGE_CURVE('',#165,#167,#153,.T.);
#199=EDGE_CURVE('',#166,#167,#79,.T.);
#200=EDGE_CURVE('',#168,#169,#80,.T.);
#201=EDGE_CURVE('',#170,#168,#81,.T.);
#202=EDGE_CURVE('',#171,#170,#82,.T.);
#203=EDGE_CURVE('',#169,#171,#83,.T.);
#204=EDGE_CURVE('',#161,#172,#84,.T.);
#205=EDGE_CURVE('',#163,#172,#85,.T.);
#206=EDGE_CURVE('',#159,#173,#86,.T.);
#207=EDGE_CURVE('',#173,#169,#87,.T.);
#208=EDGE_CURVE('',#172,#171,#88,.T.);
#209=EDGE_CURVE('',#158,#173,#89,.T.);
#210=EDGE_CURVE('',#174,#170,#90,.T.);
#211=EDGE_CURVE('',#165,#174,#91,.T.);
#212=EDGE_CURVE('',#167,#174,#92,.T.);
#213=EDGE_CURVE('',#167,#175,#93,.T.);
#214=EDGE_CURVE('',#176,#168,#94,.T.);
#215=EDGE_CURVE('',#175,#176,#95,.T.);
#216=EDGE_CURVE('',#175,#177,#154,.T.);
#217=EDGE_CURVE('',#177,#176,#96,.T.);
#218=EDGE_CURVE('',#178,#168,#97,.T.);
#219=EDGE_CURVE('',#179,#178,#98,.T.);
#220=EDGE_CURVE('',#179,#176,#99,.T.);
#221=EDGE_CURVE('',#180,#169,#100,.T.);
#222=EDGE_CURVE('',#178,#180,#101,.T.);
#223=EDGE_CURVE('',#181,#173,#102,.T.);
#224=EDGE_CURVE('',#180,#181,#103,.T.);
#225=EDGE_CURVE('',#181,#157,#104,.T.);
#226=EDGE_CURVE('',#182,#179,#105,.T.);
#227=EDGE_CURVE('',#182,#177,#106,.T.);
#228=EDGE_CURVE('',#183,#166,#107,.T.);
#229=EDGE_CURVE('',#182,#183,#155,.T.);
#230=EDGE_CURVE('',#183,#175,#108,.T.);
#231=ORIENTED_EDGE('',*,*,#184,.T.);
#232=ORIENTED_EDGE('',*,*,#185,.T.);
#233=ORIENTED_EDGE('',*,*,#186,.T.);
#234=ORIENTED_EDGE('',*,*,#187,.F.);
#235=ORIENTED_EDGE('',*,*,#188,.T.);
#236=ORIENTED_EDGE('',*,*,#187,.T.);
#237=ORIENTED_EDGE('',*,*,#189,.T.);
#238=ORIENTED_EDGE('',*,*,#190,.F.);
#239=ORIENTED_EDGE('',*,*,#191,.T.);
#240=ORIENTED_EDGE('',*,*,#190,.T.);
#241=ORIENTED_EDGE('',*,*,#192,.T.);
#242=ORIENTED_EDGE('',*,*,#193,.F.);
#243=ORIENTED_EDGE('',*,*,#194,.T.);
#244=ORIENTED_EDGE('',*,*,#193,.T.);
#245=ORIENTED_EDGE('',*,*,#195,.T.);
#246=ORIENTED_EDGE('',*,*,#196,.T.);
#247=ORIENTED_EDGE('',*,*,#197,.T.);
#248=ORIENTED_EDGE('',*,*,#196,.F.);
#249=ORIENTED_EDGE('',*,*,#198,.T.);
#250=ORIENTED_EDGE('',*,*,#199,.F.);
#251=ORIENTED_EDGE('',*,*,#200,.F.);
#252=ORIENTED_EDGE('',*,*,#201,.F.);
#253=ORIENTED_EDGE('',*,*,#202,.F.);
#254=ORIENTED_EDGE('',*,*,#203,.F.);
#255=ORIENTED_EDGE('',*,*,#192,.F.);
#256=ORIENTED_EDGE('',*,*,#204,.T.);
#257=ORIENTED_EDGE('',*,*,#205,.F.);
#258=ORIENTED_EDGE('',*,*,#189,.F.);
#259=ORIENTED_EDGE('',*,*,#206,.T.);
#260=ORIENTED_EDGE('',*,*,#207,.T.);
#261=ORIENTED_EDGE('',*,*,#203,.T.);
#262=ORIENTED_EDGE('',*,*,#208,.F.);
#263=ORIENTED_EDGE('',*,*,#204,.F.);
#264=ORIENTED_EDGE('',*,*,#186,.F.);
#265=ORIENTED_EDGE('',*,*,#209,.T.);
#266=ORIENTED_EDGE('',*,*,#206,.F.);
#267=ORIENTED_EDGE('',*,*,#195,.F.);
#268=ORIENTED_EDGE('',*,*,#205,.T.);
#269=ORIENTED_EDGE('',*,*,#208,.T.);
#270=ORIENTED_EDGE('',*,*,#202,.T.);
#271=ORIENTED_EDGE('',*,*,#210,.F.);
#272=ORIENTED_EDGE('',*,*,#211,.F.);
#273=ORIENTED_EDGE('',*,*,#198,.F.);
#274=ORIENTED_EDGE('',*,*,#211,.T.);
#275=ORIENTED_EDGE('',*,*,#212,.F.);
#276=ORIENTED_EDGE('',*,*,#213,.F.);
#277=ORIENTED_EDGE('',*,*,#212,.T.);
#278=ORIENTED_EDGE('',*,*,#210,.T.);
#279=ORIENTED_EDGE('',*,*,#201,.T.);
#280=ORIENTED_EDGE('',*,*,#214,.F.);
#281=ORIENTED_EDGE('',*,*,#215,.F.);
#282=ORIENTED_EDGE('',*,*,#216,.F.);
#283=ORIENTED_EDGE('',*,*,#215,.T.);
#284=ORIENTED_EDGE('',*,*,#217,.F.);
#285=ORIENTED_EDGE('',*,*,#214,.T.);
#286=ORIENTED_EDGE('',*,*,#218,.F.);
#287=ORIENTED_EDGE('',*,*,#219,.F.);
#288=ORIENTED_EDGE('',*,*,#220,.T.);
#289=ORIENTED_EDGE('',*,*,#200,.T.);
#290=ORIENTED_EDGE('',*,*,#221,.F.);
#291=ORIENTED_EDGE('',*,*,#222,.F.);
#292=ORIENTED_EDGE('',*,*,#218,.T.);
#293=ORIENTED_EDGE('',*,*,#207,.F.);
#294=ORIENTED_EDGE('',*,*,#223,.F.);
#295=ORIENTED_EDGE('',*,*,#224,.F.);
#296=ORIENTED_EDGE('',*,*,#221,.T.);
#297=ORIENTED_EDGE('',*,*,#209,.F.);
#298=ORIENTED_EDGE('',*,*,#185,.F.);
#299=ORIENTED_EDGE('',*,*,#225,.F.);
#300=ORIENTED_EDGE('',*,*,#223,.T.);
#301=ORIENTED_EDGE('',*,*,#217,.T.);
#302=ORIENTED_EDGE('',*,*,#220,.F.);
#303=ORIENTED_EDGE('',*,*,#226,.F.);
#304=ORIENTED_EDGE('',*,*,#227,.T.);
#305=ORIENTED_EDGE('',*,*,#225,.T.);
#306=ORIENTED_EDGE('',*,*,#184,.F.);
#307=ORIENTED_EDGE('',*,*,#188,.F.);
#308=ORIENTED_EDGE('',*,*,#191,.F.);
#309=ORIENTED_EDGE('',*,*,#194,.F.);
#310=ORIENTED_EDGE('',*,*,#197,.F.);
#311=ORIENTED_EDGE('',*,*,#228,.F.);
#312=ORIENTED_EDGE('',*,*,#229,.F.);
#313=ORIENTED_EDGE('',*,*,#226,.T.);
#314=ORIENTED_EDGE('',*,*,#219,.T.);
#315=ORIENTED_EDGE('',*,*,#222,.T.);
#316=ORIENTED_EDGE('',*,*,#224,.T.);
#317=ORIENTED_EDGE('',*,*,#228,.T.);
#318=ORIENTED_EDGE('',*,*,#199,.T.);
#319=ORIENTED_EDGE('',*,*,#213,.T.);
#320=ORIENTED_EDGE('',*,*,#230,.F.);
#321=ORIENTED_EDGE('',*,*,#229,.T.);
#322=ORIENTED_EDGE('',*,*,#230,.T.);
#323=ORIENTED_EDGE('',*,*,#216,.T.);
#324=ORIENTED_EDGE('',*,*,#227,.F.);
#325=CONICAL_SURFACE('',#368,7.70380530190825,0.741764932097589);
#326=CONICAL_SURFACE('',#372,5.20380530190824,0.74176493209759);
#327=CONICAL_SURFACE('',#376,5.20380530190822,0.741764932097588);
#328=CONICAL_SURFACE('',#380,6.19999999999999,1.48352986419518);
#329=CONICAL_SURFACE('',#382,8.7,1.48352986419518);
#330=CONICAL_SURFACE('',#384,6.19999999999997,1.48352986419518);
#331=CONICAL_SURFACE('',#386,8.69999999999998,1.48352986419518);
#332=CONICAL_SURFACE('',#396,7.70380530190825,0.741764932097593);
#333=ADVANCED_FACE('',(#28),#325,.T.);
#334=ADVANCED_FACE('',(#29),#15,.T.);
#335=ADVANCED_FACE('',(#30),#326,.T.);
#336=ADVANCED_FACE('',(#31),#16,.T.);
#337=ADVANCED_FACE('',(#32),#327,.T.);
#338=ADVANCED_FACE('',(#33),#17,.T.);
#339=ADVANCED_FACE('',(#34),#328,.T.);
#340=ADVANCED_FACE('',(#35),#18,.T.);
#341=ADVANCED_FACE('',(#36),#329,.T.);
#342=ADVANCED_FACE('',(#37),#19,.T.);
#343=ADVANCED_FACE('',(#38),#330,.T.);
#344=ADVANCED_FACE('',(#39),#20,.T.);
#345=ADVANCED_FACE('',(#40),#331,.T.);
#346=ADVANCED_FACE('',(#41),#21,.F.);
#347=ADVANCED_FACE('',(#42),#22,.F.);
#348=ADVANCED_FACE('',(#43),#23,.F.);
#349=ADVANCED_FACE('',(#44),#24,.F.);
#350=ADVANCED_FACE('',(#45),#25,.F.);
#351=ADVANCED_FACE('',(#46),#26,.T.);
#352=ADVANCED_FACE('',(#47),#27,.T.);
#353=ADVANCED_FACE('',(#48),#332,.T.);
#354=CLOSED_SHELL('',(#333,#334,#335,#336,#337,#338,#339,#340,#341,#342,
#343,#344,#345,#346,#347,#348,#349,#350,#351,#352,#353));
#355=DERIVED_UNIT_ELEMENT(#357,1.);
#356=DERIVED_UNIT_ELEMENT(#598,-3.);
#357=(
MASS_UNIT()
NAMED_UNIT(*)
SI_UNIT(.KILO.,.GRAM.)
);
#358=DERIVED_UNIT((#355,#356));
#359=MEASURE_REPRESENTATION_ITEM('density measure',
POSITIVE_RATIO_MEASURE(1060.),#358);
#360=PROPERTY_DEFINITION_REPRESENTATION(#365,#362);
#361=PROPERTY_DEFINITION_REPRESENTATION(#366,#363);
#362=REPRESENTATION('material name',(#364),#595);
#363=REPRESENTATION('density',(#359),#595);
#364=DESCRIPTIVE_REPRESENTATION_ITEM('ABS Plastic','ABS Plastic');
#365=PROPERTY_DEFINITION('material property','material name',#605);
#366=PROPERTY_DEFINITION('material property','density of part',#605);
#367=AXIS2_PLACEMENT_3D('',#496,#397,#398);
#368=AXIS2_PLACEMENT_3D('',#497,#399,#400);
#369=AXIS2_PLACEMENT_3D('',#500,#401,#402);
#370=AXIS2_PLACEMENT_3D('',#504,#404,#405);
#371=AXIS2_PLACEMENT_3D('',#506,#407,#408);
#372=AXIS2_PLACEMENT_3D('',#512,#412,#413);
#373=AXIS2_PLACEMENT_3D('',#514,#414,#415);
#374=AXIS2_PLACEMENT_3D('',#516,#416,#417);
#375=AXIS2_PLACEMENT_3D('',#518,#419,#420);
#376=AXIS2_PLACEMENT_3D('',#524,#424,#425);
#377=AXIS2_PLACEMENT_3D('',#526,#426,#427);
#378=AXIS2_PLACEMENT_3D('',#528,#428,#429);
#379=AXIS2_PLACEMENT_3D('',#530,#431,#432);
#380=AXIS2_PLACEMENT_3D('',#539,#437,#438);
#381=AXIS2_PLACEMENT_3D('',#543,#441,#442);
#382=AXIS2_PLACEMENT_3D('',#548,#446,#447);
#383=AXIS2_PLACEMENT_3D('',#550,#449,#450);
#384=AXIS2_PLACEMENT_3D('',#554,#453,#454);
#385=AXIS2_PLACEMENT_3D('',#556,#456,#457);
#386=AXIS2_PLACEMENT_3D('',#562,#461,#462);
#387=AXIS2_PLACEMENT_3D('',#564,#463,#464);
#388=AXIS2_PLACEMENT_3D('',#566,#466,#467);
#389=AXIS2_PLACEMENT_3D('',#572,#471,#472);
#390=AXIS2_PLACEMENT_3D('',#576,#475,#476);
#391=AXIS2_PLACEMENT_3D('',#580,#479,#480);
#392=AXIS2_PLACEMENT_3D('',#582,#482,#483);
#393=AXIS2_PLACEMENT_3D('',#586,#486,#487);
#394=AXIS2_PLACEMENT_3D('',#589,#489,#490);
#395=AXIS2_PLACEMENT_3D('',#590,#491,#492);
#396=AXIS2_PLACEMENT_3D('',#592,#494,#495);
#397=DIRECTION('axis',(0.,0.,1.));
#398=DIRECTION('refdir',(1.,0.,0.));
#399=DIRECTION('center_axis',(0.,-1.,0.));
#400=DIRECTION('ref_axis',(1.,8.52990530357969E-31,1.15290870536425E-15));
#401=DIRECTION('center_axis',(0.,1.,0.));
#402=DIRECTION('ref_axis',(1.,8.52990530357969E-31,1.15290870536425E-15));
#403=DIRECTION('',(-3.01168358009919E-15,0.737277336810128,0.675590207615655));
#404=DIRECTION('center_axis',(0.,-1.,0.));
#405=DIRECTION('ref_axis',(1.,0.,1.32413533247557E-15));
#406=DIRECTION('',(-0.675590207615661,0.737277336810123,0.));
#407=DIRECTION('center_axis',(0.737277336810123,0.675590207615661,-7.41682680369322E-17));
#408=DIRECTION('ref_axis',(-1.00597515119379E-16,0.,-1.));
#409=DIRECTION('',(-1.00597515119379E-16,0.,-1.));
#410=DIRECTION('',(1.03396789254962E-16,-3.05487166098478E-18,1.));
#411=DIRECTION('',(-0.675590207615662,0.737277336810123,-6.02336716019836E-15));
#412=DIRECTION('center_axis',(0.,-1.,0.));
#413=DIRECTION('ref_axis',(-2.56017962290335E-15,8.8183964788893E-16,1.));
#414=DIRECTION('center_axis',(0.,1.,0.));
#415=DIRECTION('ref_axis',(-2.56017962290335E-15,8.8183964788893E-16,1.));
#416=DIRECTION('center_axis',(0.,-1.,0.));
#417=DIRECTION('ref_axis',(-2.11088549614004E-15,0.,1.));
#418=DIRECTION('',(0.,0.737277336810127,-0.675590207615657));
#419=DIRECTION('center_axis',(-1.16506134626662E-16,0.675590207615657,0.737277336810127));
#420=DIRECTION('ref_axis',(1.,0.,1.58022129271913E-16));
#421=DIRECTION('',(1.,0.,1.58022129271913E-16));
#422=DIRECTION('',(-1.,1.50300856696577E-17,-1.71794665319173E-16));
#423=DIRECTION('',(3.0116835800992E-15,-0.737277336810125,0.675590207615659));
#424=DIRECTION('center_axis',(0.,-1.,0.));
#425=DIRECTION('ref_axis',(-1.,-2.52704490220914E-30,-3.41357283053781E-15));
#426=DIRECTION('center_axis',(0.,1.,0.));
#427=DIRECTION('ref_axis',(-1.,-2.52704490220914E-30,-3.41357283053781E-15));
#428=DIRECTION('center_axis',(0.,-1.,0.));
#429=DIRECTION('ref_axis',(-1.,0.,-4.22177099228009E-15));
#430=DIRECTION('',(0.675590207615659,0.737277336810125,0.));
#431=DIRECTION('center_axis',(0.,1.,0.));
#432=DIRECTION('ref_axis',(0.,0.,1.));
#433=DIRECTION('',(1.,-1.1618038287542E-49,0.));
#434=DIRECTION('',(1.36958892783366E-16,6.17579426605334E-63,-1.));
#435=DIRECTION('',(-1.,0.,0.));
#436=DIRECTION('',(6.84794463916828E-17,0.,1.));
#437=DIRECTION('center_axis',(0.,-1.,0.));
#438=DIRECTION('ref_axis',(-1.43254583822601E-15,1.39897054514259E-18,1.));
#439=DIRECTION('',(-0.996194698091746,0.0871557427476575,2.85418913762829E-15));
#440=DIRECTION('',(1.42709456881415E-15,0.0871557427476575,-0.996194698091746));
#441=DIRECTION('center_axis',(0.0871557427476581,0.996194698091746,-5.96837701321554E-18));
#442=DIRECTION('ref_axis',(-6.84794463916828E-17,0.,-1.));
#443=DIRECTION('',(-0.996194698091746,0.0871557427476581,0.));
#444=DIRECTION('',(-0.705757556807952,0.0617457854184491,0.705757556807952));
#445=DIRECTION('',(-0.705757556807957,0.0617457854184498,-0.705757556807947));
#446=DIRECTION('center_axis',(0.,-1.,0.));
#447=DIRECTION('ref_axis',(1.,3.50224341322426E-49,0.));
#448=DIRECTION('',(-1.42709456881416E-15,0.0871557427476582,0.996194698091746));
#449=DIRECTION('center_axis',(0.,0.996194698091746,0.0871557427476575));
#450=DIRECTION('ref_axis',(1.,0.,0.));
#451=DIRECTION('',(0.705757556807956,0.0617457854184499,-0.705757556807948));
#452=DIRECTION('',(-4.28128370644245E-15,0.0871557427476577,-0.996194698091746));
#453=DIRECTION('center_axis',(0.,-1.,0.));
#454=DIRECTION('ref_axis',(-1.,-1.39897054514259E-18,-2.86509167645203E-15));
#455=DIRECTION('',(0.996194698091746,0.0871557427476578,2.85418913762831E-15));
#456=DIRECTION('center_axis',(-0.0871557427476578,0.996194698091746,-1.19367540264311E-17));
#457=DIRECTION('ref_axis',(-1.36958892783366E-16,-6.17579426605334E-63,
1.));
#458=DIRECTION('',(1.03396789254962E-16,-2.93630358281869E-18,-1.));
#459=DIRECTION('',(0.705757556807951,0.0617457854184491,0.705757556807952));
#460=DIRECTION('',(0.996194698091746,0.0871557427476581,0.));
#461=DIRECTION('center_axis',(0.,-1.,0.));
#462=DIRECTION('ref_axis',(1.0208947352875E-15,2.09067803012563E-48,-1.));
#463=DIRECTION('center_axis',(0.,-1.,0.));
#464=DIRECTION('ref_axis',(0.,0.,-1.));
#465=DIRECTION('',(0.,0.0871557427476581,0.996194698091746));
#466=DIRECTION('center_axis',(-0.707106781186548,0.,0.707106781186547));
#467=DIRECTION('ref_axis',(0.707106781186547,0.,0.707106781186548));
#468=DIRECTION('',(0.,1.,0.));
#469=DIRECTION('',(0.707106781186547,0.,0.707106781186548));
#470=DIRECTION('',(0.,1.,0.));
#471=DIRECTION('center_axis',(2.0731391853273E-14,0.,1.));
#472=DIRECTION('ref_axis',(1.,0.,-2.0731391853273E-14));
#473=DIRECTION('',(0.,1.,0.));
#474=DIRECTION('',(1.,0.,-2.0731391853273E-14));
#475=DIRECTION('center_axis',(0.707106781186548,0.,0.707106781186548));
#476=DIRECTION('ref_axis',(0.707106781186548,0.,-0.707106781186548));
#477=DIRECTION('',(0.,1.,0.));
#478=DIRECTION('',(0.707106781186548,0.,-0.707106781186548));
#479=DIRECTION('center_axis',(1.,0.,-1.32413533247557E-15));
#480=DIRECTION('ref_axis',(-1.32413533247557E-15,0.,-1.));
#481=DIRECTION('',(0.,0.,-1.));
#482=DIRECTION('center_axis',(-1.,0.,-2.64827066495115E-15));
#483=DIRECTION('ref_axis',(-2.64827066495115E-15,0.,1.));
#484=DIRECTION('',(0.,0.,1.));
#485=DIRECTION('',(0.,0.737277336810123,0.675590207615662));
#486=DIRECTION('center_axis',(0.,-1.,0.));
#487=DIRECTION('ref_axis',(-1.,0.,0.));
#488=DIRECTION('',(-1.06087415764278E-16,0.,1.));
#489=DIRECTION('center_axis',(0.,1.,0.));
#490=DIRECTION('ref_axis',(-1.09836280630926E-32,-8.35858811389078E-16,
-1.));
#491=DIRECTION('center_axis',(-0.737277336810125,0.675590207615659,-7.82158473637554E-17));
#492=DIRECTION('ref_axis',(-1.06087415764278E-16,0.,1.));
#493=DIRECTION('',(0.675590207615659,0.737277336810125,0.));
#494=DIRECTION('center_axis',(0.,-1.,0.));
#495=DIRECTION('ref_axis',(-1.09836280630926E-32,-8.35858811389077E-16,
-1.));
#496=CARTESIAN_POINT('',(0.,0.,0.));
#497=CARTESIAN_POINT('Origin',(49.45,64.0333557427477,-44.1537999999999));
#498=CARTESIAN_POINT('',(56.3173376519652,64.9462000000001,-44.1537999999999));
#499=CARTESIAN_POINT('',(49.45,64.9462000000001,-51.0211376519651));
#500=CARTESIAN_POINT('Origin',(49.45,64.9462000000001,-44.1537999999999));
#501=CARTESIAN_POINT('',(49.45,65.1205114854954,-50.8614106038165));
#502=CARTESIAN_POINT('',(49.45,62.9462,-52.8537999999999));
#503=CARTESIAN_POINT('',(56.1576106038165,65.1205114854954,-44.1537999999999));
#504=CARTESIAN_POINT('Origin',(49.45,65.1205114854954,-44.1537999999999));
#505=CARTESIAN_POINT('',(58.15,62.9462000000001,-44.1537999999999));
#506=CARTESIAN_POINT('Origin',(57.1538053019083,64.0333557427477,-44.1537999999999));
#507=CARTESIAN_POINT('',(56.3173376519652,64.9462000000001,85.5462));
#508=CARTESIAN_POINT('',(56.3173376519652,64.9462000000001,-15.9583728855512));
#509=CARTESIAN_POINT('',(56.1576106038165,65.1205114854954,85.5462));
#510=CARTESIAN_POINT('',(56.1576106038165,65.1205114854954,-44.1537999999999));
#511=CARTESIAN_POINT('',(58.15,62.9462000000001,85.5462));
#512=CARTESIAN_POINT('Origin',(51.95,64.0333557427477,85.5462000000001));
#513=CARTESIAN_POINT('',(51.95,64.9462000000001,89.9135376519652));
#514=CARTESIAN_POINT('Origin',(51.95,64.9462000000001,85.5462000000001));
#515=CARTESIAN_POINT('',(51.95,65.1205114854954,89.7538106038166));
#516=CARTESIAN_POINT('Origin',(51.95,65.1205114854954,85.5462000000001));
#517=CARTESIAN_POINT('',(51.95,62.9462000000001,91.7462));
#518=CARTESIAN_POINT('Origin',(51.95,64.0333557427477,90.7500053019083));
#519=CARTESIAN_POINT('',(-51.4500000000001,64.9462000000001,89.9135376519652));
#520=CARTESIAN_POINT('',(26.1,64.9462000000001,89.9135376519652));
#521=CARTESIAN_POINT('',(-51.4500000000001,65.1205114854954,89.7538106038166));
#522=CARTESIAN_POINT('',(51.95,65.1205114854954,89.7538106038166));
#523=CARTESIAN_POINT('',(-51.4500000000001,65.1205114854954,89.7538106038166));
#524=CARTESIAN_POINT('Origin',(-51.4500000000001,64.0333557427477,85.5462000000001));
#525=CARTESIAN_POINT('',(-55.8173376519652,64.9462000000001,85.5462000000001));
#526=CARTESIAN_POINT('Origin',(-51.4500000000001,64.9462000000001,85.5462000000001));
#527=CARTESIAN_POINT('',(-55.6576106038166,65.1205114854954,85.5462000000001));
#528=CARTESIAN_POINT('Origin',(-51.4500000000001,65.1205114854954,85.5462000000001));
#529=CARTESIAN_POINT('',(-57.65,62.9462000000001,85.5462000000001));
#530=CARTESIAN_POINT('Origin',(51.95,69.9462000000001,91.7462));
#531=CARTESIAN_POINT('',(-0.49973848619326,69.9462000000001,4.29646151380685));
#532=CARTESIAN_POINT('',(0.999738486193258,69.9462000000001,4.29646151380682));
#533=CARTESIAN_POINT('',(49.45,69.9462000000001,4.29646151380681));
#534=CARTESIAN_POINT('',(-0.499738486193269,69.9462000000001,34.5959384861933));
#535=CARTESIAN_POINT('',(-0.499738486193282,69.9462000000001,-44.1537999999999));
#536=CARTESIAN_POINT('',(0.999738486193289,69.9462000000001,34.5959384861933));
#537=CARTESIAN_POINT('',(-51.45,69.9462000000001,34.5959384861933));
#538=CARTESIAN_POINT('',(0.99973848619328,69.9462000000001,85.5462000000001));
#539=CARTESIAN_POINT('Origin',(51.95,64.9462000000001,85.5462000000001));
#540=CARTESIAN_POINT('',(51.95,65.4886297138608,85.5462000000001));
#541=CARTESIAN_POINT('',(58.15,64.9462000000001,85.5462));
#542=CARTESIAN_POINT('',(51.95,64.9462000000001,91.7462));
#543=CARTESIAN_POINT('Origin',(58.15,64.9462000000001,-44.1537999999999));
#544=CARTESIAN_POINT('',(49.45,65.7073513726756,-44.1537999999999));
#545=CARTESIAN_POINT('',(58.15,64.9462000000001,-44.1537999999999));
#546=CARTESIAN_POINT('',(24.9437885336167,67.8513670619531,-19.6475885336167));
#547=CARTESIAN_POINT('',(19.6486216748994,68.3146341335691,53.2448216748998));
#548=CARTESIAN_POINT('Origin',(49.45,64.9462000000001,-44.1537999999999));
#549=CARTESIAN_POINT('',(49.45,64.9462000000001,-52.8537999999999));
#550=CARTESIAN_POINT('Origin',(51.95,64.9462000000001,91.7462));
#551=CARTESIAN_POINT('',(-51.4500000000001,65.4886297138608,85.5462000000001));
#552=CARTESIAN_POINT('',(-25.6985542111377,67.7415892897886,59.794754211138));
#553=CARTESIAN_POINT('',(-51.45,64.9462000000001,91.7462));
#554=CARTESIAN_POINT('Origin',(-51.4500000000001,64.9462000000001,85.5462000000001));
#555=CARTESIAN_POINT('',(-57.65,64.9462000000001,85.5462000000001));
#556=CARTESIAN_POINT('Origin',(-57.65,64.9462000000001,85.5462000000001));
#557=CARTESIAN_POINT('',(-55.6576106038165,65.1205114854954,-44.1537999999999));
#558=CARTESIAN_POINT('',(-55.6576106038166,65.1205114854954,85.5462000000001));
#559=CARTESIAN_POINT('',(-48.95,65.7073513726756,-44.1537999999999));
#560=CARTESIAN_POINT('',(-17.2712388361387,68.4788838490588,-12.4750388361387));
#561=CARTESIAN_POINT('',(-57.65,64.9462000000001,-44.1537999999999));
#562=CARTESIAN_POINT('Origin',(-48.95,64.9462000000001,-44.1537999999999));
#563=CARTESIAN_POINT('',(-48.95,65.1205114854954,-50.8614106038164));
#564=CARTESIAN_POINT('Origin',(-48.95,65.1205114854954,-44.1537999999999));
#565=CARTESIAN_POINT('',(-48.95,64.9462000000001,-52.8537999999999));
#566=CARTESIAN_POINT('Origin',(-48.95,64.9462000000001,-44.1537999999999));
#567=CARTESIAN_POINT('',(-0.499738486193264,64.9462000000001,4.29646151380685));
#568=CARTESIAN_POINT('',(-0.499738486193264,64.9462000000001,4.29646151380685));
#569=CARTESIAN_POINT('',(-48.95,64.9462000000001,-44.1537999999999));
#570=CARTESIAN_POINT('',(-20.7500000000001,64.9462000000001,-15.9538));
#571=CARTESIAN_POINT('',(-48.95,64.9462000000001,-44.1537999999999));
#572=CARTESIAN_POINT('Origin',(-0.499738486193264,64.9462000000001,4.29646151380685));
#573=CARTESIAN_POINT('',(0.999738486193258,64.9462000000001,4.29646151380682));
#574=CARTESIAN_POINT('',(0.999738486193258,64.9462000000001,4.29646151380682));
#575=CARTESIAN_POINT('',(-0.124869243096747,64.9462000000001,4.29646151380684));
#576=CARTESIAN_POINT('Origin',(0.999738486193258,64.9462000000001,4.29646151380682));
#577=CARTESIAN_POINT('',(49.45,64.9462000000001,-44.1537999999999));
#578=CARTESIAN_POINT('',(49.45,64.9462000000001,-44.1537999999999));
#579=CARTESIAN_POINT('',(-2.9751307569033,64.9462000000001,8.27133075690337));
#580=CARTESIAN_POINT('Origin',(49.45,64.9462000000001,-44.1537999999999));
#581=CARTESIAN_POINT('',(49.45,64.9462000000001,-49.8614106038164));
#582=CARTESIAN_POINT('Origin',(-48.95,64.9462000000001,-50.8614106038164));
#583=CARTESIAN_POINT('',(-48.95,64.9462000000001,-51.0211376519651));
#584=CARTESIAN_POINT('',(-48.95,64.9462000000001,-49.8614106038164));
#585=CARTESIAN_POINT('',(-48.95,62.9462000000001,-52.8537999999999));
#586=CARTESIAN_POINT('Origin',(47.45,64.9462000000001,-48.8614106038165));
#587=CARTESIAN_POINT('',(-55.8173376519652,64.9462000000001,-44.1537999999999));
#588=CARTESIAN_POINT('',(-55.8173376519652,64.9462000000001,48.8916271144488));
#589=CARTESIAN_POINT('Origin',(-48.95,64.9462000000001,-44.1537999999999));
#590=CARTESIAN_POINT('Origin',(-56.6538053019083,64.0333557427477,85.5462000000001));
#591=CARTESIAN_POINT('',(-57.65,62.9462000000001,-44.1537999999999));
#592=CARTESIAN_POINT('Origin',(-48.95,64.0333557427477,-44.1537999999999));
#593=UNCERTAINTY_MEASURE_WITH_UNIT(LENGTH_MEASURE(0.01),#597,
'DISTANCE_ACCURACY_VALUE',
'Maximum model space distance between geometric entities at asserted c
onnectivities');
#594=UNCERTAINTY_MEASURE_WITH_UNIT(LENGTH_MEASURE(0.01),#597,
'DISTANCE_ACCURACY_VALUE',
'Maximum model space distance between geometric entities at asserted c
onnectivities');
#595=(
GEOMETRIC_REPRESENTATION_CONTEXT(3)
GLOBAL_UNCERTAINTY_ASSIGNED_CONTEXT((#593))
GLOBAL_UNIT_ASSIGNED_CONTEXT((#597,#599,#600))
REPRESENTATION_CONTEXT('','3D')
);
#596=(
GEOMETRIC_REPRESENTATION_CONTEXT(3)
GLOBAL_UNCERTAINTY_ASSIGNED_CONTEXT((#594))
GLOBAL_UNIT_ASSIGNED_CONTEXT((#597,#599,#600))
REPRESENTATION_CONTEXT('','3D')
);
#597=(
LENGTH_UNIT()
NAMED_UNIT(*)
SI_UNIT(.MILLI.,.METRE.)
);
#598=(
LENGTH_UNIT()
NAMED_UNIT(*)
SI_UNIT($,.METRE.)
);
#599=(
NAMED_UNIT(*)
PLANE_ANGLE_UNIT()
SI_UNIT($,.RADIAN.)
);
#600=(
NAMED_UNIT(*)
SI_UNIT($,.STERADIAN.)
SOLID_ANGLE_UNIT()
);
#601=SHAPE_DEFINITION_REPRESENTATION(#602,#603);
#602=PRODUCT_DEFINITION_SHAPE('',$,#605);
#603=SHAPE_REPRESENTATION('',(#367),#595);
#604=PRODUCT_DEFINITION_CONTEXT('part definition',#609,'design');
#605=PRODUCT_DEFINITION('2026-08-17-19-34-07-207','Orion Top Slope',#606,
#604);
#606=PRODUCT_DEFINITION_FORMATION('',$,#611);
#607=PRODUCT_RELATED_PRODUCT_CATEGORY('Orion Top Slope',
'Orion Top Slope',(#611));
#608=APPLICATION_PROTOCOL_DEFINITION('international standard',
'automotive_design',2009,#609);
#609=APPLICATION_CONTEXT(
'Core Data for Automotive Mechanical Design Process');
#610=PRODUCT_CONTEXT('part definition',#609,'mechanical');
#611=PRODUCT('2026-08-17-19-34-07-207','Orion Top Slope',$,(#610));
#612=PRESENTATION_STYLE_ASSIGNMENT((#613));
#613=SURFACE_STYLE_USAGE(.BOTH.,#614);
#614=SURFACE_SIDE_STYLE('',(#615));
#615=SURFACE_STYLE_FILL_AREA(#616);
#616=FILL_AREA_STYLE('ABS (White)',(#617));
#617=FILL_AREA_STYLE_COLOUR('ABS (White)',#618);
#618=COLOUR_RGB('ABS (White)',0.964705882352941,0.964705882352941,0.952941176470588);
ENDSEC;
END-ISO-10303-21;
