ISO-10303-21;
HEADER;
/* Generated by software containing ST-Developer
 * from STEP Tools, Inc. (www.steptools.com) 
 */

FILE_DESCRIPTION(
/* description */ ('STEP AP214'),
/* implementation_level */ '2;1');

FILE_NAME(
/* name */ 'Pivot Arm.step',
/* time_stamp */ '2026-08-17T19:33:06+05:30',
/* author */ (''),
/* organization */ (''),
/* preprocessor_version */ 'ST-DEVELOPER v20.1',
/* originating_system */ 'Autodesk Translation Framework v15.8.0.0',
/* authorisation */ '');

FILE_SCHEMA (('AUTOMOTIVE_DESIGN { 1 0 10303 214 3 1 1 }'));
ENDSEC;

DATA;
#10=MECHANICAL_DESIGN_GEOMETRIC_PRESENTATION_REPRESENTATION('',(#13),#809);
#11=SHAPE_REPRESENTATION_RELATIONSHIP('SRR','None',#816,#12);
#12=ADVANCED_BREP_SHAPE_REPRESENTATION('',(#452),#808);
#13=STYLED_ITEM('',(#826),#452);
#14=SPHERICAL_SURFACE('',#526,10.);
#15=TOROIDAL_SURFACE('',#474,4.50000000000001,1.5);
#16=TOROIDAL_SURFACE('',#504,7.50000000000001,1.5);
#17=TOROIDAL_SURFACE('',#520,7.35613248651737,3.2);
#18=TOROIDAL_SURFACE('',#523,9.,5.);
#19=ORIENTED_CLOSED_SHELL('',*,#450,.F.);
#20=LINE('',#687,#44);
#21=LINE('',#691,#45);
#22=LINE('',#706,#46);
#23=LINE('',#714,#47);
#24=LINE('',#720,#48);
#25=LINE('',#726,#49);
#26=LINE('',#732,#50);
#27=LINE('',#738,#51);
#28=LINE('',#745,#52);
#29=LINE('',#749,#53);
#30=LINE('',#753,#54);
#31=LINE('',#756,#55);
#32=LINE('',#766,#56);
#33=LINE('',#770,#57);
#34=LINE('',#774,#58);
#35=LINE('',#777,#59);
#36=LINE('',#779,#60);
#37=LINE('',#780,#61);
#38=LINE('',#782,#62);
#39=LINE('',#784,#63);
#40=LINE('',#786,#64);
#41=LINE('',#788,#65);
#42=LINE('',#790,#66);
#43=LINE('',#792,#67);
#44=VECTOR('',#540,6.00000000000001);
#45=VECTOR('',#545,4.43370135143714);
#46=VECTOR('',#564,6.00000000000001);
#47=VECTOR('',#573,4.43370135143714);
#48=VECTOR('',#580,3.00000004470352);
#49=VECTOR('',#587,3.00000004470352);
#50=VECTOR('',#594,3.00000004470348);
#51=VECTOR('',#601,3.00000004470349);
#52=VECTOR('',#608,10.);
#53=VECTOR('',#611,10.);
#54=VECTOR('',#614,10.);
#55=VECTOR('',#617,10.);
#56=VECTOR('',#628,10.);
#57=VECTOR('',#631,10.);
#58=VECTOR('',#634,10.);
#59=VECTOR('',#637,10.);
#60=VECTOR('',#640,10.);
#61=VECTOR('',#641,10.);
#62=VECTOR('',#644,10.);
#63=VECTOR('',#647,10.);
#64=VECTOR('',#650,10.);
#65=VECTOR('',#653,10.);
#66=VECTOR('',#656,10.);
#67=VECTOR('',#659,10.);
#68=CYLINDRICAL_SURFACE('',#469,6.00000000000001);
#69=CYLINDRICAL_SURFACE('',#471,4.43370135143714);
#70=CYLINDRICAL_SURFACE('',#479,6.00000000000001);
#71=CYLINDRICAL_SURFACE('',#484,4.43370135143714);
#72=CYLINDRICAL_SURFACE('',#487,3.00000004470352);
#73=CYLINDRICAL_SURFACE('',#490,3.00000004470352);
#74=CYLINDRICAL_SURFACE('',#493,3.00000004470348);
#75=CYLINDRICAL_SURFACE('',#496,3.00000004470349);
#76=CYLINDRICAL_SURFACE('',#512,5.);
#77=CYLINDRICAL_SURFACE('',#514,5.);
#78=CYLINDRICAL_SURFACE('',#516,5.);
#79=CYLINDRICAL_SURFACE('',#518,5.);
#80=FACE_BOUND('',#120,.T.);
#81=FACE_BOUND('',#124,.T.);
#82=FACE_BOUND('',#128,.T.);
#83=FACE_BOUND('',#135,.T.);
#84=FACE_BOUND('',#136,.T.);
#85=FACE_BOUND('',#137,.T.);
#86=FACE_BOUND('',#138,.T.);
#87=FACE_BOUND('',#141,.T.);
#88=FACE_BOUND('',#142,.T.);
#89=FACE_BOUND('',#143,.T.);
#90=FACE_BOUND('',#144,.T.);
#91=FACE_BOUND('',#145,.T.);
#92=FACE_BOUND('',#157,.T.);
#93=FACE_OUTER_BOUND('',#119,.T.);
#94=FACE_OUTER_BOUND('',#121,.T.);
#95=FACE_OUTER_BOUND('',#122,.T.);
#96=FACE_OUTER_BOUND('',#123,.T.);
#97=FACE_OUTER_BOUND('',#125,.T.);
#98=FACE_OUTER_BOUND('',#126,.T.);
#99=FACE_OUTER_BOUND('',#127,.T.);
#100=FACE_OUTER_BOUND('',#129,.T.);
#101=FACE_OUTER_BOUND('',#130,.T.);
#102=FACE_OUTER_BOUND('',#131,.T.);
#103=FACE_OUTER_BOUND('',#132,.T.);
#104=FACE_OUTER_BOUND('',#133,.T.);
#105=FACE_OUTER_BOUND('',#134,.T.);
#106=FACE_OUTER_BOUND('',#139,.T.);
#107=FACE_OUTER_BOUND('',#140,.T.);
#108=FACE_OUTER_BOUND('',#146,.T.);
#109=FACE_OUTER_BOUND('',#147,.T.);
#110=FACE_OUTER_BOUND('',#148,.T.);
#111=FACE_OUTER_BOUND('',#149,.T.);
#112=FACE_OUTER_BOUND('',#150,.T.);
#113=FACE_OUTER_BOUND('',#151,.T.);
#114=FACE_OUTER_BOUND('',#152,.T.);
#115=FACE_OUTER_BOUND('',#153,.T.);
#116=FACE_OUTER_BOUND('',#154,.T.);
#117=FACE_OUTER_BOUND('',#155,.T.);
#118=FACE_OUTER_BOUND('',#156,.T.);
#119=EDGE_LOOP('',(#295));
#120=EDGE_LOOP('',(#296));
#121=EDGE_LOOP('',(#297,#298,#299,#300));
#122=EDGE_LOOP('',(#301,#302,#303,#304));
#123=EDGE_LOOP('',(#305));
#124=EDGE_LOOP('',(#306));
#125=EDGE_LOOP('',(#307,#308,#309,#310,#311));
#126=EDGE_LOOP('',(#312,#313,#314,#315,#316,#317));
#127=EDGE_LOOP('',(#318));
#128=EDGE_LOOP('',(#319));
#129=EDGE_LOOP('',(#320,#321,#322,#323,#324));
#130=EDGE_LOOP('',(#325,#326,#327,#328));
#131=EDGE_LOOP('',(#329,#330,#331,#332));
#132=EDGE_LOOP('',(#333,#334,#335,#336));
#133=EDGE_LOOP('',(#337,#338,#339,#340));
#134=EDGE_LOOP('',(#341,#342,#343,#344,#345,#346,#347,#348));
#135=EDGE_LOOP('',(#349));
#136=EDGE_LOOP('',(#350));
#137=EDGE_LOOP('',(#351));
#138=EDGE_LOOP('',(#352));
#139=EDGE_LOOP('',(#353,#354,#355,#356,#357));
#140=EDGE_LOOP('',(#358,#359,#360,#361,#362,#363,#364,#365));
#141=EDGE_LOOP('',(#366));
#142=EDGE_LOOP('',(#367));
#143=EDGE_LOOP('',(#368));
#144=EDGE_LOOP('',(#369));
#145=EDGE_LOOP('',(#370));
#146=EDGE_LOOP('',(#371,#372,#373,#374));
#147=EDGE_LOOP('',(#375,#376,#377,#378));
#148=EDGE_LOOP('',(#379,#380,#381,#382));
#149=EDGE_LOOP('',(#383,#384,#385,#386));
#150=EDGE_LOOP('',(#387,#388,#389,#390));
#151=EDGE_LOOP('',(#391,#392,#393,#394));
#152=EDGE_LOOP('',(#395,#396,#397,#398));
#153=EDGE_LOOP('',(#399,#400,#401,#402));
#154=EDGE_LOOP('',(#403,#404,#405,#406,#407));
#155=EDGE_LOOP('',(#408,#409,#410,#411));
#156=EDGE_LOOP('',(#412,#413));
#157=EDGE_LOOP('',(#414));
#158=CIRCLE('',#467,6.00000000000001);
#159=CIRCLE('',#468,4.43370135143714);
#160=CIRCLE('',#470,6.00000000000001);
#161=CIRCLE('',#472,4.43370135143714);
#162=CIRCLE('',#475,6.00000000000001);
#163=CIRCLE('',#476,1.5);
#164=CIRCLE('',#477,4.50000000000001);
#165=CIRCLE('',#478,6.00000000000001);
#166=CIRCLE('',#480,6.00000000000001);
#167=CIRCLE('',#481,6.00000000000001);
#168=CIRCLE('',#483,4.43370135143714);
#169=CIRCLE('',#485,4.43370135143714);
#170=CIRCLE('',#486,4.43370135143714);
#171=CIRCLE('',#488,3.00000004470352);
#172=CIRCLE('',#489,3.00000004470352);
#173=CIRCLE('',#491,3.00000004470352);
#174=CIRCLE('',#492,3.00000004470352);
#175=CIRCLE('',#494,3.00000004470348);
#176=CIRCLE('',#495,3.00000004470348);
#177=CIRCLE('',#497,3.00000004470349);
#178=CIRCLE('',#498,3.00000004470349);
#179=CIRCLE('',#500,5.);
#180=CIRCLE('',#501,5.);
#181=CIRCLE('',#502,5.);
#182=CIRCLE('',#503,5.);
#183=CIRCLE('',#505,7.50000000000001);
#184=CIRCLE('',#506,1.5);
#185=CIRCLE('',#508,5.);
#186=CIRCLE('',#509,5.);
#187=CIRCLE('',#510,5.);
#188=CIRCLE('',#511,5.);
#189=CIRCLE('',#521,4.43370135143714);
#190=CIRCLE('',#522,3.2);
#191=CIRCLE('',#524,6.);
#192=CIRCLE('',#525,5.);
#193=CIRCLE('',#527,10.);
#194=VERTEX_POINT('',#680);
#195=VERTEX_POINT('',#682);
#196=VERTEX_POINT('',#685);
#197=VERTEX_POINT('',#689);
#198=VERTEX_POINT('',#694);
#199=VERTEX_POINT('',#695);
#200=VERTEX_POINT('',#697);
#201=VERTEX_POINT('',#702);
#202=VERTEX_POINT('',#703);
#203=VERTEX_POINT('',#708);
#204=VERTEX_POINT('',#711);
#205=VERTEX_POINT('',#712);
#206=VERTEX_POINT('',#717);
#207=VERTEX_POINT('',#719);
#208=VERTEX_POINT('',#723);
#209=VERTEX_POINT('',#725);
#210=VERTEX_POINT('',#729);
#211=VERTEX_POINT('',#731);
#212=VERTEX_POINT('',#735);
#213=VERTEX_POINT('',#737);
#214=VERTEX_POINT('',#741);
#215=VERTEX_POINT('',#742);
#216=VERTEX_POINT('',#744);
#217=VERTEX_POINT('',#746);
#218=VERTEX_POINT('',#748);
#219=VERTEX_POINT('',#750);
#220=VERTEX_POINT('',#752);
#221=VERTEX_POINT('',#754);
#222=VERTEX_POINT('',#758);
#223=VERTEX_POINT('',#762);
#224=VERTEX_POINT('',#763);
#225=VERTEX_POINT('',#765);
#226=VERTEX_POINT('',#767);
#227=VERTEX_POINT('',#769);
#228=VERTEX_POINT('',#771);
#229=VERTEX_POINT('',#773);
#230=VERTEX_POINT('',#775);
#231=VERTEX_POINT('',#795);
#232=VERTEX_POINT('',#799);
#233=VERTEX_POINT('',#803);
#234=VERTEX_POINT('',#804);
#235=EDGE_CURVE('',#194,#194,#158,.T.);
#236=EDGE_CURVE('',#195,#195,#159,.T.);
#237=EDGE_CURVE('',#196,#196,#160,.T.);
#238=EDGE_CURVE('',#196,#194,#20,.T.);
#239=EDGE_CURVE('',#197,#197,#161,.T.);
#240=EDGE_CURVE('',#197,#195,#21,.T.);
#241=EDGE_CURVE('',#198,#199,#162,.T.);
#242=EDGE_CURVE('',#199,#200,#163,.T.);
#243=EDGE_CURVE('',#200,#200,#164,.T.);
#244=EDGE_CURVE('',#199,#198,#165,.T.);
#245=EDGE_CURVE('',#201,#202,#166,.T.);
#246=EDGE_CURVE('',#202,#201,#167,.T.);
#247=EDGE_CURVE('',#202,#198,#22,.T.);
#248=EDGE_CURVE('',#203,#203,#168,.T.);
#249=EDGE_CURVE('',#204,#205,#169,.T.);
#250=EDGE_CURVE('',#204,#203,#23,.T.);
#251=EDGE_CURVE('',#205,#204,#170,.T.);
#252=EDGE_CURVE('',#206,#206,#171,.T.);
#253=EDGE_CURVE('',#206,#207,#24,.T.);
#254=EDGE_CURVE('',#207,#207,#172,.T.);
#255=EDGE_CURVE('',#208,#208,#173,.T.);
#256=EDGE_CURVE('',#208,#209,#25,.T.);
#257=EDGE_CURVE('',#209,#209,#174,.T.);
#258=EDGE_CURVE('',#210,#210,#175,.T.);
#259=EDGE_CURVE('',#210,#211,#26,.T.);
#260=EDGE_CURVE('',#211,#211,#176,.T.);
#261=EDGE_CURVE('',#212,#212,#177,.T.);
#262=EDGE_CURVE('',#212,#213,#27,.T.);
#263=EDGE_CURVE('',#213,#213,#178,.T.);
#264=EDGE_CURVE('',#214,#215,#179,.T.);
#265=EDGE_CURVE('',#215,#216,#28,.T.);
#266=EDGE_CURVE('',#216,#217,#180,.T.);
#267=EDGE_CURVE('',#217,#218,#29,.T.);
#268=EDGE_CURVE('',#218,#219,#181,.T.);
#269=EDGE_CURVE('',#219,#220,#30,.T.);
#270=EDGE_CURVE('',#220,#221,#182,.T.);
#271=EDGE_CURVE('',#221,#214,#31,.T.);
#272=EDGE_CURVE('',#222,#222,#183,.T.);
#273=EDGE_CURVE('',#222,#201,#184,.T.);
#274=EDGE_CURVE('',#223,#224,#185,.T.);
#275=EDGE_CURVE('',#223,#225,#32,.T.);
#276=EDGE_CURVE('',#226,#225,#186,.T.);
#277=EDGE_CURVE('',#226,#227,#33,.T.);
#278=EDGE_CURVE('',#228,#227,#187,.T.);
#279=EDGE_CURVE('',#228,#229,#34,.T.);
#280=EDGE_CURVE('',#230,#229,#188,.T.);
#281=EDGE_CURVE('',#230,#224,#35,.T.);
#282=EDGE_CURVE('',#224,#215,#36,.T.);
#283=EDGE_CURVE('',#214,#223,#37,.T.);
#284=EDGE_CURVE('',#216,#230,#38,.T.);
#285=EDGE_CURVE('',#229,#217,#39,.T.);
#286=EDGE_CURVE('',#218,#228,#40,.T.);
#287=EDGE_CURVE('',#227,#219,#41,.T.);
#288=EDGE_CURVE('',#220,#226,#42,.T.);
#289=EDGE_CURVE('',#225,#221,#43,.T.);
#290=EDGE_CURVE('',#231,#231,#189,.T.);
#291=EDGE_CURVE('',#231,#205,#190,.T.);
#292=EDGE_CURVE('',#232,#232,#191,.T.);
#293=EDGE_CURVE('',#232,#231,#192,.T.);
#294=EDGE_CURVE('',#233,#234,#193,.T.);
#295=ORIENTED_EDGE('',*,*,#235,.F.);
#296=ORIENTED_EDGE('',*,*,#236,.F.);
#297=ORIENTED_EDGE('',*,*,#237,.T.);
#298=ORIENTED_EDGE('',*,*,#238,.T.);
#299=ORIENTED_EDGE('',*,*,#235,.T.);
#300=ORIENTED_EDGE('',*,*,#238,.F.);
#301=ORIENTED_EDGE('',*,*,#239,.T.);
#302=ORIENTED_EDGE('',*,*,#240,.T.);
#303=ORIENTED_EDGE('',*,*,#236,.T.);
#304=ORIENTED_EDGE('',*,*,#240,.F.);
#305=ORIENTED_EDGE('',*,*,#237,.F.);
#306=ORIENTED_EDGE('',*,*,#239,.F.);
#307=ORIENTED_EDGE('',*,*,#241,.T.);
#308=ORIENTED_EDGE('',*,*,#242,.T.);
#309=ORIENTED_EDGE('',*,*,#243,.T.);
#310=ORIENTED_EDGE('',*,*,#242,.F.);
#311=ORIENTED_EDGE('',*,*,#244,.T.);
#312=ORIENTED_EDGE('',*,*,#245,.F.);
#313=ORIENTED_EDGE('',*,*,#246,.F.);
#314=ORIENTED_EDGE('',*,*,#247,.T.);
#315=ORIENTED_EDGE('',*,*,#244,.F.);
#316=ORIENTED_EDGE('',*,*,#241,.F.);
#317=ORIENTED_EDGE('',*,*,#247,.F.);
#318=ORIENTED_EDGE('',*,*,#243,.F.);
#319=ORIENTED_EDGE('',*,*,#248,.F.);
#320=ORIENTED_EDGE('',*,*,#249,.F.);
#321=ORIENTED_EDGE('',*,*,#250,.T.);
#322=ORIENTED_EDGE('',*,*,#248,.T.);
#323=ORIENTED_EDGE('',*,*,#250,.F.);
#324=ORIENTED_EDGE('',*,*,#251,.F.);
#325=ORIENTED_EDGE('',*,*,#252,.F.);
#326=ORIENTED_EDGE('',*,*,#253,.T.);
#327=ORIENTED_EDGE('',*,*,#254,.F.);
#328=ORIENTED_EDGE('',*,*,#253,.F.);
#329=ORIENTED_EDGE('',*,*,#255,.F.);
#330=ORIENTED_EDGE('',*,*,#256,.T.);
#331=ORIENTED_EDGE('',*,*,#257,.F.);
#332=ORIENTED_EDGE('',*,*,#256,.F.);
#333=ORIENTED_EDGE('',*,*,#258,.F.);
#334=ORIENTED_EDGE('',*,*,#259,.T.);
#335=ORIENTED_EDGE('',*,*,#260,.F.);
#336=ORIENTED_EDGE('',*,*,#259,.F.);
#337=ORIENTED_EDGE('',*,*,#261,.F.);
#338=ORIENTED_EDGE('',*,*,#262,.T.);
#339=ORIENTED_EDGE('',*,*,#263,.F.);
#340=ORIENTED_EDGE('',*,*,#262,.F.);
#341=ORIENTED_EDGE('',*,*,#264,.T.);
#342=ORIENTED_EDGE('',*,*,#265,.T.);
#343=ORIENTED_EDGE('',*,*,#266,.T.);
#344=ORIENTED_EDGE('',*,*,#267,.T.);
#345=ORIENTED_EDGE('',*,*,#268,.T.);
#346=ORIENTED_EDGE('',*,*,#269,.T.);
#347=ORIENTED_EDGE('',*,*,#270,.T.);
#348=ORIENTED_EDGE('',*,*,#271,.T.);
#349=ORIENTED_EDGE('',*,*,#263,.T.);
#350=ORIENTED_EDGE('',*,*,#260,.T.);
#351=ORIENTED_EDGE('',*,*,#257,.T.);
#352=ORIENTED_EDGE('',*,*,#254,.T.);
#353=ORIENTED_EDGE('',*,*,#272,.T.);
#354=ORIENTED_EDGE('',*,*,#273,.T.);
#355=ORIENTED_EDGE('',*,*,#245,.T.);
#356=ORIENTED_EDGE('',*,*,#246,.T.);
#357=ORIENTED_EDGE('',*,*,#273,.F.);
#358=ORIENTED_EDGE('',*,*,#274,.F.);
#359=ORIENTED_EDGE('',*,*,#275,.T.);
#360=ORIENTED_EDGE('',*,*,#276,.F.);
#361=ORIENTED_EDGE('',*,*,#277,.T.);
#362=ORIENTED_EDGE('',*,*,#278,.F.);
#363=ORIENTED_EDGE('',*,*,#279,.T.);
#364=ORIENTED_EDGE('',*,*,#280,.F.);
#365=ORIENTED_EDGE('',*,*,#281,.T.);
#366=ORIENTED_EDGE('',*,*,#272,.F.);
#367=ORIENTED_EDGE('',*,*,#261,.T.);
#368=ORIENTED_EDGE('',*,*,#258,.T.);
#369=ORIENTED_EDGE('',*,*,#255,.T.);
#370=ORIENTED_EDGE('',*,*,#252,.T.);
#371=ORIENTED_EDGE('',*,*,#274,.T.);
#372=ORIENTED_EDGE('',*,*,#282,.T.);
#373=ORIENTED_EDGE('',*,*,#264,.F.);
#374=ORIENTED_EDGE('',*,*,#283,.T.);
#375=ORIENTED_EDGE('',*,*,#282,.F.);
#376=ORIENTED_EDGE('',*,*,#281,.F.);
#377=ORIENTED_EDGE('',*,*,#284,.F.);
#378=ORIENTED_EDGE('',*,*,#265,.F.);
#379=ORIENTED_EDGE('',*,*,#280,.T.);
#380=ORIENTED_EDGE('',*,*,#285,.T.);
#381=ORIENTED_EDGE('',*,*,#266,.F.);
#382=ORIENTED_EDGE('',*,*,#284,.T.);
#383=ORIENTED_EDGE('',*,*,#285,.F.);
#384=ORIENTED_EDGE('',*,*,#279,.F.);
#385=ORIENTED_EDGE('',*,*,#286,.F.);
#386=ORIENTED_EDGE('',*,*,#267,.F.);
#387=ORIENTED_EDGE('',*,*,#278,.T.);
#388=ORIENTED_EDGE('',*,*,#287,.T.);
#389=ORIENTED_EDGE('',*,*,#268,.F.);
#390=ORIENTED_EDGE('',*,*,#286,.T.);
#391=ORIENTED_EDGE('',*,*,#287,.F.);
#392=ORIENTED_EDGE('',*,*,#277,.F.);
#393=ORIENTED_EDGE('',*,*,#288,.F.);
#394=ORIENTED_EDGE('',*,*,#269,.F.);
#395=ORIENTED_EDGE('',*,*,#276,.T.);
#396=ORIENTED_EDGE('',*,*,#289,.T.);
#397=ORIENTED_EDGE('',*,*,#270,.F.);
#398=ORIENTED_EDGE('',*,*,#288,.T.);
#399=ORIENTED_EDGE('',*,*,#283,.F.);
#400=ORIENTED_EDGE('',*,*,#271,.F.);
#401=ORIENTED_EDGE('',*,*,#289,.F.);
#402=ORIENTED_EDGE('',*,*,#275,.F.);
#403=ORIENTED_EDGE('',*,*,#290,.F.);
#404=ORIENTED_EDGE('',*,*,#291,.T.);
#405=ORIENTED_EDGE('',*,*,#251,.T.);
#406=ORIENTED_EDGE('',*,*,#249,.T.);
#407=ORIENTED_EDGE('',*,*,#291,.F.);
#408=ORIENTED_EDGE('',*,*,#292,.F.);
#409=ORIENTED_EDGE('',*,*,#293,.T.);
#410=ORIENTED_EDGE('',*,*,#290,.T.);
#411=ORIENTED_EDGE('',*,*,#293,.F.);
#412=ORIENTED_EDGE('',*,*,#294,.T.);
#413=ORIENTED_EDGE('',*,*,#294,.F.);
#414=ORIENTED_EDGE('',*,*,#292,.T.);
#415=PLANE('',#466);
#416=PLANE('',#473);
#417=PLANE('',#482);
#418=PLANE('',#499);
#419=PLANE('',#507);
#420=PLANE('',#513);
#421=PLANE('',#515);
#422=PLANE('',#517);
#423=PLANE('',#519);
#424=ADVANCED_FACE('',(#93,#80),#415,.F.);
#425=ADVANCED_FACE('',(#94),#68,.F.);
#426=ADVANCED_FACE('',(#95),#69,.T.);
#427=ADVANCED_FACE('',(#96,#81),#416,.T.);
#428=ADVANCED_FACE('',(#97),#15,.T.);
#429=ADVANCED_FACE('',(#98),#70,.T.);
#430=ADVANCED_FACE('',(#99,#82),#417,.F.);
#431=ADVANCED_FACE('',(#100),#71,.T.);
#432=ADVANCED_FACE('',(#101),#72,.F.);
#433=ADVANCED_FACE('',(#102),#73,.F.);
#434=ADVANCED_FACE('',(#103),#74,.F.);
#435=ADVANCED_FACE('',(#104),#75,.F.);
#436=ADVANCED_FACE('',(#105,#83,#84,#85,#86),#418,.T.);
#437=ADVANCED_FACE('',(#106),#16,.F.);
#438=ADVANCED_FACE('',(#107,#87,#88,#89,#90,#91),#419,.T.);
#439=ADVANCED_FACE('',(#108),#76,.T.);
#440=ADVANCED_FACE('',(#109),#420,.T.);
#441=ADVANCED_FACE('',(#110),#77,.T.);
#442=ADVANCED_FACE('',(#111),#421,.T.);
#443=ADVANCED_FACE('',(#112),#78,.T.);
#444=ADVANCED_FACE('',(#113),#422,.T.);
#445=ADVANCED_FACE('',(#114),#79,.T.);
#446=ADVANCED_FACE('',(#115),#423,.T.);
#447=ADVANCED_FACE('',(#116),#17,.F.);
#448=ADVANCED_FACE('',(#117),#18,.F.);
#449=ADVANCED_FACE('',(#118,#92),#14,.T.);
#450=CLOSED_SHELL('',(#424,#425,#426,#427));
#451=CLOSED_SHELL('',(#428,#429,#430,#431,#432,#433,#434,#435,#436,#437,
#438,#439,#440,#441,#442,#443,#444,#445,#446,#447,#448,#449));
#452=BREP_WITH_VOIDS('Body1',#451,(#19));
#453=DERIVED_UNIT_ELEMENT(#455,1.);
#454=DERIVED_UNIT_ELEMENT(#811,-3.);
#455=(
MASS_UNIT()
NAMED_UNIT(*)
SI_UNIT(.KILO.,.GRAM.)
);
#456=DERIVED_UNIT((#453,#454));
#457=MEASURE_REPRESENTATION_ITEM('density measure',
POSITIVE_RATIO_MEASURE(7850.),#456);
#458=PROPERTY_DEFINITION_REPRESENTATION(#463,#460);
#459=PROPERTY_DEFINITION_REPRESENTATION(#464,#461);
#460=REPRESENTATION('material name',(#462),#808);
#461=REPRESENTATION('density',(#457),#808);
#462=DESCRIPTIVE_REPRESENTATION_ITEM('Steel','Steel');
#463=PROPERTY_DEFINITION('material property','material name',#818);
#464=PROPERTY_DEFINITION('material property','density of part',#818);
#465=AXIS2_PLACEMENT_3D('',#678,#528,#529);
#466=AXIS2_PLACEMENT_3D('',#679,#530,#531);
#467=AXIS2_PLACEMENT_3D('',#681,#532,#533);
#468=AXIS2_PLACEMENT_3D('',#683,#534,#535);
#469=AXIS2_PLACEMENT_3D('',#684,#536,#537);
#470=AXIS2_PLACEMENT_3D('',#686,#538,#539);
#471=AXIS2_PLACEMENT_3D('',#688,#541,#542);
#472=AXIS2_PLACEMENT_3D('',#690,#543,#544);
#473=AXIS2_PLACEMENT_3D('',#692,#546,#547);
#474=AXIS2_PLACEMENT_3D('',#693,#548,#549);
#475=AXIS2_PLACEMENT_3D('',#696,#550,#551);
#476=AXIS2_PLACEMENT_3D('',#698,#552,#553);
#477=AXIS2_PLACEMENT_3D('',#699,#554,#555);
#478=AXIS2_PLACEMENT_3D('',#700,#556,#557);
#479=AXIS2_PLACEMENT_3D('',#701,#558,#559);
#480=AXIS2_PLACEMENT_3D('',#704,#560,#561);
#481=AXIS2_PLACEMENT_3D('',#705,#562,#563);
#482=AXIS2_PLACEMENT_3D('',#707,#565,#566);
#483=AXIS2_PLACEMENT_3D('',#709,#567,#568);
#484=AXIS2_PLACEMENT_3D('',#710,#569,#570);
#485=AXIS2_PLACEMENT_3D('',#713,#571,#572);
#486=AXIS2_PLACEMENT_3D('',#715,#574,#575);
#487=AXIS2_PLACEMENT_3D('',#716,#576,#577);
#488=AXIS2_PLACEMENT_3D('',#718,#578,#579);
#489=AXIS2_PLACEMENT_3D('',#721,#581,#582);
#490=AXIS2_PLACEMENT_3D('',#722,#583,#584);
#491=AXIS2_PLACEMENT_3D('',#724,#585,#586);
#492=AXIS2_PLACEMENT_3D('',#727,#588,#589);
#493=AXIS2_PLACEMENT_3D('',#728,#590,#591);
#494=AXIS2_PLACEMENT_3D('',#730,#592,#593);
#495=AXIS2_PLACEMENT_3D('',#733,#595,#596);
#496=AXIS2_PLACEMENT_3D('',#734,#597,#598);
#497=AXIS2_PLACEMENT_3D('',#736,#599,#600);
#498=AXIS2_PLACEMENT_3D('',#739,#602,#603);
#499=AXIS2_PLACEMENT_3D('',#740,#604,#605);
#500=AXIS2_PLACEMENT_3D('',#743,#606,#607);
#501=AXIS2_PLACEMENT_3D('',#747,#609,#610);
#502=AXIS2_PLACEMENT_3D('',#751,#612,#613);
#503=AXIS2_PLACEMENT_3D('',#755,#615,#616);
#504=AXIS2_PLACEMENT_3D('',#757,#618,#619);
#505=AXIS2_PLACEMENT_3D('',#759,#620,#621);
#506=AXIS2_PLACEMENT_3D('',#760,#622,#623);
#507=AXIS2_PLACEMENT_3D('',#761,#624,#625);
#508=AXIS2_PLACEMENT_3D('',#764,#626,#627);
#509=AXIS2_PLACEMENT_3D('',#768,#629,#630);
#510=AXIS2_PLACEMENT_3D('',#772,#632,#633);
#511=AXIS2_PLACEMENT_3D('',#776,#635,#636);
#512=AXIS2_PLACEMENT_3D('',#778,#638,#639);
#513=AXIS2_PLACEMENT_3D('',#781,#642,#643);
#514=AXIS2_PLACEMENT_3D('',#783,#645,#646);
#515=AXIS2_PLACEMENT_3D('',#785,#648,#649);
#516=AXIS2_PLACEMENT_3D('',#787,#651,#652);
#517=AXIS2_PLACEMENT_3D('',#789,#654,#655);
#518=AXIS2_PLACEMENT_3D('',#791,#657,#658);
#519=AXIS2_PLACEMENT_3D('',#793,#660,#661);
#520=AXIS2_PLACEMENT_3D('',#794,#662,#663);
#521=AXIS2_PLACEMENT_3D('',#796,#664,#665);
#522=AXIS2_PLACEMENT_3D('',#797,#666,#667);
#523=AXIS2_PLACEMENT_3D('',#798,#668,#669);
#524=AXIS2_PLACEMENT_3D('',#800,#670,#671);
#525=AXIS2_PLACEMENT_3D('',#801,#672,#673);
#526=AXIS2_PLACEMENT_3D('',#802,#674,#675);
#527=AXIS2_PLACEMENT_3D('',#805,#676,#677);
#528=DIRECTION('axis',(0.,0.,1.));
#529=DIRECTION('refdir',(1.,0.,0.));
#530=DIRECTION('center_axis',(4.86173068582902E-63,-1.,3.30291349825984E-15));
#531=DIRECTION('ref_axis',(-1.,-4.86173068582902E-63,1.60578759071287E-77));
#532=DIRECTION('center_axis',(4.86173068582902E-63,-1.,3.30291349825984E-15));
#533=DIRECTION('ref_axis',(-1.,-4.86173068582902E-63,1.60578759071287E-77));
#534=DIRECTION('center_axis',(-4.86173068582902E-63,1.,-3.30291349825984E-15));
#535=DIRECTION('ref_axis',(-1.,-4.86173068582902E-63,1.60578759071287E-77));
#536=DIRECTION('center_axis',(0.,-1.,3.30291349825984E-15));
#537=DIRECTION('ref_axis',(-1.,0.,0.));
#538=DIRECTION('center_axis',(-4.86173068582902E-63,1.,-3.30291349825984E-15));
#539=DIRECTION('ref_axis',(-1.,0.,0.));
#540=DIRECTION('',(0.,-1.,3.30291349825984E-15));
#541=DIRECTION('center_axis',(0.,-1.,3.30291349825984E-15));
#542=DIRECTION('ref_axis',(-1.,0.,0.));
#543=DIRECTION('center_axis',(4.86173068582902E-63,-1.,3.30291349825984E-15));
#544=DIRECTION('ref_axis',(-1.,0.,0.));
#545=DIRECTION('',(0.,-1.,3.30291349825984E-15));
#546=DIRECTION('center_axis',(4.86173068582902E-63,-1.,3.30291349825984E-15));
#547=DIRECTION('ref_axis',(-1.,-4.86173068582902E-63,1.60578759071287E-77));
#548=DIRECTION('center_axis',(4.86173068582902E-63,-1.,3.30291349825984E-15));
#549=DIRECTION('ref_axis',(0.,-3.40468394218381E-15,-1.));
#550=DIRECTION('center_axis',(-4.86173068582902E-63,1.,-3.30291349825984E-15));
#551=DIRECTION('ref_axis',(-1.,0.,-1.15042215344731E-30));
#552=DIRECTION('center_axis',(-1.,-4.0449024435045E-31,-1.22464679914735E-16));
#553=DIRECTION('ref_axis',(-1.22464679914735E-16,3.33066907387546E-15,1.));
#554=DIRECTION('center_axis',(4.86173068582902E-63,-1.,3.30291349825984E-15));
#555=DIRECTION('ref_axis',(-1.,-3.79974485931826E-45,-1.15042215344731E-30));
#556=DIRECTION('center_axis',(-4.86173068582902E-63,1.,-3.30291349825984E-15));
#557=DIRECTION('ref_axis',(-1.,0.,-1.15042215344731E-30));
#558=DIRECTION('center_axis',(0.,-1.,3.30291349825984E-15));
#559=DIRECTION('ref_axis',(-1.,1.23171271378512E-169,3.7291703656001E-155));
#560=DIRECTION('center_axis',(0.,-1.,0.));
#561=DIRECTION('ref_axis',(0.,0.,1.));
#562=DIRECTION('center_axis',(0.,-1.,0.));
#563=DIRECTION('ref_axis',(0.,0.,1.));
#564=DIRECTION('',(0.,1.,-3.30291349825984E-15));
#565=DIRECTION('center_axis',(4.86173068582902E-63,-1.,3.30291349825984E-15));
#566=DIRECTION('ref_axis',(-1.,-4.86173068582902E-63,1.60578759071287E-77));
#567=DIRECTION('center_axis',(-4.86173068582902E-63,1.,-3.30291349825984E-15));
#568=DIRECTION('ref_axis',(-1.,0.,0.));
#569=DIRECTION('center_axis',(0.,-1.,3.30291349825984E-15));
#570=DIRECTION('ref_axis',(-1.,0.,0.));
#571=DIRECTION('center_axis',(0.,1.,-3.33066907387547E-15));
#572=DIRECTION('ref_axis',(-1.,0.,0.));
#573=DIRECTION('',(0.,-1.,3.30291349825984E-15));
#574=DIRECTION('center_axis',(0.,1.,-3.33066907387547E-15));
#575=DIRECTION('ref_axis',(-1.,0.,0.));
#576=DIRECTION('center_axis',(0.,-1.,0.));
#577=DIRECTION('ref_axis',(1.,0.,0.));
#578=DIRECTION('center_axis',(0.,-1.,0.));
#579=DIRECTION('ref_axis',(1.,0.,0.));
#580=DIRECTION('',(0.,-1.,0.));
#581=DIRECTION('center_axis',(0.,1.,0.));
#582=DIRECTION('ref_axis',(1.,0.,0.));
#583=DIRECTION('center_axis',(0.,-1.,0.));
#584=DIRECTION('ref_axis',(1.,0.,0.));
#585=DIRECTION('center_axis',(0.,-1.,0.));
#586=DIRECTION('ref_axis',(1.,0.,0.));
#587=DIRECTION('',(0.,-1.,0.));
#588=DIRECTION('center_axis',(0.,1.,0.));
#589=DIRECTION('ref_axis',(1.,0.,0.));
#590=DIRECTION('center_axis',(0.,-1.,0.));
#591=DIRECTION('ref_axis',(1.,0.,0.));
#592=DIRECTION('center_axis',(0.,-1.,0.));
#593=DIRECTION('ref_axis',(1.,0.,0.));
#594=DIRECTION('',(0.,-1.,0.));
#595=DIRECTION('center_axis',(0.,1.,0.));
#596=DIRECTION('ref_axis',(1.,0.,0.));
#597=DIRECTION('center_axis',(0.,-1.,0.));
#598=DIRECTION('ref_axis',(1.,0.,0.));
#599=DIRECTION('center_axis',(0.,-1.,0.));
#600=DIRECTION('ref_axis',(1.,0.,0.));
#601=DIRECTION('',(0.,-1.,0.));
#602=DIRECTION('center_axis',(0.,1.,0.));
#603=DIRECTION('ref_axis',(1.,0.,0.));
#604=DIRECTION('center_axis',(0.,-1.,0.));
#605=DIRECTION('ref_axis',(0.,0.,-1.));
#606=DIRECTION('center_axis',(0.,-1.,0.));
#607=DIRECTION('ref_axis',(0.707106781186547,0.,0.707106781186547));
#608=DIRECTION('',(-1.,0.,0.));
#609=DIRECTION('center_axis',(0.,-1.,0.));
#610=DIRECTION('ref_axis',(-0.707106781186547,0.,0.707106781186547));
#611=DIRECTION('',(0.,-2.36658271566304E-30,-1.));
#612=DIRECTION('center_axis',(0.,-1.,0.));
#613=DIRECTION('ref_axis',(-0.707106781186547,0.,-0.707106781186547));
#614=DIRECTION('',(1.,0.,0.));
#615=DIRECTION('center_axis',(0.,-1.,0.));
#616=DIRECTION('ref_axis',(0.707106781186547,0.,-0.707106781186547));
#617=DIRECTION('',(0.,2.36658271566304E-30,1.));
#618=DIRECTION('center_axis',(0.,1.,0.));
#619=DIRECTION('ref_axis',(0.,0.,1.));
#620=DIRECTION('center_axis',(0.,1.,0.));
#621=DIRECTION('ref_axis',(0.,0.,1.));
#622=DIRECTION('center_axis',(-1.,0.,1.22464679914735E-16));
#623=DIRECTION('ref_axis',(-1.22464679914735E-16,0.,-1.));
#624=DIRECTION('center_axis',(0.,1.,0.));
#625=DIRECTION('ref_axis',(0.,0.,1.));
#626=DIRECTION('center_axis',(0.,-1.,0.));
#627=DIRECTION('ref_axis',(0.707106781186547,0.,0.707106781186547));
#628=DIRECTION('',(0.,-2.36658271566304E-30,-1.));
#629=DIRECTION('center_axis',(0.,-1.,0.));
#630=DIRECTION('ref_axis',(0.707106781186547,0.,-0.707106781186547));
#631=DIRECTION('',(-1.,0.,0.));
#632=DIRECTION('center_axis',(0.,-1.,0.));
#633=DIRECTION('ref_axis',(-0.707106781186547,0.,-0.707106781186547));
#634=DIRECTION('',(0.,2.36658271566304E-30,1.));
#635=DIRECTION('center_axis',(0.,-1.,0.));
#636=DIRECTION('ref_axis',(-0.707106781186547,0.,0.707106781186547));
#637=DIRECTION('',(1.,0.,0.));
#638=DIRECTION('center_axis',(0.,1.,0.));
#639=DIRECTION('ref_axis',(0.707106781186547,0.,0.707106781186547));
#640=DIRECTION('',(0.,-1.,0.));
#641=DIRECTION('',(0.,1.,0.));
#642=DIRECTION('center_axis',(0.,0.,1.));
#643=DIRECTION('ref_axis',(1.,0.,0.));
#644=DIRECTION('',(0.,1.,0.));
#645=DIRECTION('center_axis',(0.,1.,0.));
#646=DIRECTION('ref_axis',(-0.707106781186547,0.,0.707106781186547));
#647=DIRECTION('',(0.,-1.,0.));
#648=DIRECTION('center_axis',(-1.,0.,0.));
#649=DIRECTION('ref_axis',(0.,2.36658271566304E-30,1.));
#650=DIRECTION('',(0.,1.,0.));
#651=DIRECTION('center_axis',(0.,1.,0.));
#652=DIRECTION('ref_axis',(-0.707106781186547,0.,-0.707106781186547));
#653=DIRECTION('',(0.,-1.,0.));
#654=DIRECTION('center_axis',(0.,0.,-1.));
#655=DIRECTION('ref_axis',(-1.,0.,0.));
#656=DIRECTION('',(0.,1.,0.));
#657=DIRECTION('center_axis',(0.,1.,0.));
#658=DIRECTION('ref_axis',(0.707106781186547,0.,-0.707106781186547));
#659=DIRECTION('',(0.,-1.,0.));
#660=DIRECTION('center_axis',(1.,0.,0.));
#661=DIRECTION('ref_axis',(0.,-2.36658271566304E-30,-1.));
#662=DIRECTION('center_axis',(0.,1.,0.));
#663=DIRECTION('ref_axis',(0.,0.,1.));
#664=DIRECTION('center_axis',(0.,1.,0.));
#665=DIRECTION('ref_axis',(0.,0.,-1.));
#666=DIRECTION('center_axis',(1.,0.,-1.22464679914735E-16));
#667=DIRECTION('ref_axis',(-1.22464679914735E-16,0.,-1.));
#668=DIRECTION('center_axis',(0.,1.,0.));
#669=DIRECTION('ref_axis',(0.,0.,1.));
#670=DIRECTION('center_axis',(0.,1.,0.));
#671=DIRECTION('ref_axis',(0.,0.,1.));
#672=DIRECTION('center_axis',(1.,0.,-1.22464679914735E-16));
#673=DIRECTION('ref_axis',(-1.22464679914735E-16,0.,-1.));
#674=DIRECTION('center_axis',(6.12323399573677E-17,0.,-1.));
#675=DIRECTION('ref_axis',(1.,0.,0.));
#676=DIRECTION('center_axis',(2.22044604925031E-16,1.,0.));
#677=DIRECTION('ref_axis',(-1.,2.22044604925031E-16,0.));
#678=CARTESIAN_POINT('',(0.,0.,0.));
#679=CARTESIAN_POINT('Origin',(1.39451132664768E-18,-19.8348486100884,7.43945734072027E-14));
#680=CARTESIAN_POINT('',(6.00000000000001,-19.8348486100884,7.48285354436863E-14));
#681=CARTESIAN_POINT('Origin',(0.,-19.8348486100884,7.40937473641979E-14));
#682=CARTESIAN_POINT('',(4.43370135143714,-19.8348486100884,8.98434773273691E-14));
#683=CARTESIAN_POINT('Origin',(0.,-19.8348486100884,8.93005055105278E-14));
#684=CARTESIAN_POINT('Origin',(0.,11.1651513899116,-2.82965710818571E-14));
#685=CARTESIAN_POINT('',(6.00000000000001,-16.9998486100884,6.54647756761196E-14));
#686=CARTESIAN_POINT('Origin',(0.,-16.9998486100884,6.47299875966312E-14));
#687=CARTESIAN_POINT('',(6.00000000000001,11.1651513899116,-2.75617830023687E-14));
#688=CARTESIAN_POINT('Origin',(0.,11.1651513899116,-1.30898129355271E-14));
#689=CARTESIAN_POINT('',(4.43370135143714,-16.9998486100884,8.04797175598024E-14));
#690=CARTESIAN_POINT('Origin',(0.,-16.9998486100884,7.99367457429612E-14));
#691=CARTESIAN_POINT('',(4.43370135143714,11.1651513899116,-1.25468411186858E-14));
#692=CARTESIAN_POINT('Origin',(1.39451132664768E-18,-16.9998486100884,6.5030813639636E-14));
#693=CARTESIAN_POINT('Origin',(0.,-5.33484861008844,2.62015016394302E-14));
#694=CARTESIAN_POINT('',(6.00000000000001,-5.33484861008844,2.54667135599418E-14));
#695=CARTESIAN_POINT('',(-7.34788079488413E-16,-5.33484861008842,6.00000000000004));
#696=CARTESIAN_POINT('Origin',(0.,-5.33484861008844,2.62015016394302E-14));
#697=CARTESIAN_POINT('',(-5.5109105961631E-16,-3.83484861008842,4.50000000000003));
#698=CARTESIAN_POINT('Origin',(-5.5109105961631E-16,-5.33484861008842,4.50000000000004));
#699=CARTESIAN_POINT('Origin',(-7.29259602874352E-63,-3.83484861008844,
2.12471313920405E-14));
#700=CARTESIAN_POINT('Origin',(0.,-5.33484861008844,2.62015016394302E-14));
#701=CARTESIAN_POINT('Origin',(0.,11.1651513899116,-2.82965710818571E-14));
#702=CARTESIAN_POINT('',(7.34788079488412E-16,-15.5000000000001,-6.00000000000001));
#703=CARTESIAN_POINT('',(6.00000000000001,-15.5000000000001,6.05109054565127E-14));
#704=CARTESIAN_POINT('Origin',(0.,-15.5000000000001,0.));
#705=CARTESIAN_POINT('Origin',(0.,-15.5000000000001,0.));
#706=CARTESIAN_POINT('',(6.00000000000001,11.1651513899116,-2.75617830023687E-14));
#707=CARTESIAN_POINT('Origin',(1.39451132664768E-18,-3.83484861008844,2.15479574350453E-14));
#708=CARTESIAN_POINT('',(4.43370135143714,-3.83484861008844,3.69968613552117E-14));
#709=CARTESIAN_POINT('Origin',(0.,-3.83484861008844,3.64538895383704E-14));
#710=CARTESIAN_POINT('Origin',(0.,11.1651513899116,-1.30898129355271E-14));
#711=CARTESIAN_POINT('',(4.43370135143714,4.5948224799595,3.79891815416396E-15));
#712=CARTESIAN_POINT('',(-5.42971816841279E-16,4.59482247995949,-4.43370135143714));
#713=CARTESIAN_POINT('Origin',(0.,4.5948224799595,4.34188997100524E-15));
#714=CARTESIAN_POINT('',(4.43370135143714,11.1651513899116,-1.25468411186858E-14));
#715=CARTESIAN_POINT('Origin',(0.,4.5948224799595,4.34188997100524E-15));
#716=CARTESIAN_POINT('Origin',(9.00000013411046,-17.0000000000002,-9.0000000000003));
#717=CARTESIAN_POINT('',(6.00000008940695,-17.0000000000002,-9.0000000000003));
#718=CARTESIAN_POINT('Origin',(9.00000013411046,-17.0000000000001,-9.0000000000003));
#719=CARTESIAN_POINT('',(6.00000008940695,-23.0000007911002,-9.0000000000003));
#720=CARTESIAN_POINT('',(6.00000008940695,-17.0000000000002,-9.0000000000003));
#721=CARTESIAN_POINT('Origin',(9.00000013411046,-23.,-9.0000000000003));
#722=CARTESIAN_POINT('Origin',(9.00000013411047,-17.0000000000002,8.99999999999972));
#723=CARTESIAN_POINT('',(6.00000008940695,-17.0000000000002,8.99999999999972));
#724=CARTESIAN_POINT('Origin',(9.00000013411047,-17.0000000000001,8.99999999999972));
#725=CARTESIAN_POINT('',(6.00000008940695,-23.0000007911002,8.99999999999972));
#726=CARTESIAN_POINT('',(6.00000008940695,-17.0000000000002,8.99999999999972));
#727=CARTESIAN_POINT('Origin',(9.00000013411047,-23.,8.99999999999972));
#728=CARTESIAN_POINT('Origin',(-9.00000013411047,-17.0000000000002,-9.0000000000003));
#729=CARTESIAN_POINT('',(-12.000000178814,-17.0000000000002,-9.0000000000003));
#730=CARTESIAN_POINT('Origin',(-9.00000013411047,-17.0000000000001,-9.0000000000003));
#731=CARTESIAN_POINT('',(-12.000000178814,-23.0000007911002,-9.0000000000003));
#732=CARTESIAN_POINT('',(-12.000000178814,-17.0000000000002,-9.0000000000003));
#733=CARTESIAN_POINT('Origin',(-9.00000013411047,-23.,-9.0000000000003));
#734=CARTESIAN_POINT('Origin',(-9.00000013411047,-17.0000000000002,8.99999999999972));
#735=CARTESIAN_POINT('',(-12.000000178814,-17.0000000000002,8.99999999999972));
#736=CARTESIAN_POINT('Origin',(-9.00000013411047,-17.0000000000001,8.99999999999972));
#737=CARTESIAN_POINT('',(-12.000000178814,-23.0000007911002,8.99999999999972));
#738=CARTESIAN_POINT('',(-12.000000178814,-17.0000000000002,8.99999999999972));
#739=CARTESIAN_POINT('Origin',(-9.00000013411047,-23.,8.99999999999972));
#740=CARTESIAN_POINT('Origin',(0.,-23.,0.));
#741=CARTESIAN_POINT('',(16.0000002384186,-23.0000000000001,11.0000002384183));
#742=CARTESIAN_POINT('',(11.0000002384186,-23.0000000000001,16.0000002384183));
#743=CARTESIAN_POINT('Origin',(11.0000002384186,-23.,11.0000002384183));
#744=CARTESIAN_POINT('',(-11.0000002384186,-23.0000000000001,16.0000002384183));
#745=CARTESIAN_POINT('',(16.0000002384186,-23.0000000000001,16.0000002384183));
#746=CARTESIAN_POINT('',(-16.0000002384186,-23.0000000000001,11.0000002384183));
#747=CARTESIAN_POINT('Origin',(-11.0000002384186,-23.,11.0000002384183));
#748=CARTESIAN_POINT('',(-16.0000002384186,-23.0000000000001,-11.0000002384183));
#749=CARTESIAN_POINT('',(-16.0000002384186,-23.0000000000001,16.0000002384183));
#750=CARTESIAN_POINT('',(-11.0000002384186,-23.0000000000001,-16.0000002384183));
#751=CARTESIAN_POINT('Origin',(-11.0000002384186,-23.,-11.0000002384183));
#752=CARTESIAN_POINT('',(11.0000002384186,-23.0000000000001,-16.0000002384183));
#753=CARTESIAN_POINT('',(-16.0000002384186,-23.0000000000001,-16.0000002384183));
#754=CARTESIAN_POINT('',(16.0000002384186,-23.0000000000001,-11.0000002384183));
#755=CARTESIAN_POINT('Origin',(11.0000002384186,-23.,-11.0000002384183));
#756=CARTESIAN_POINT('',(16.0000002384186,-23.0000000000001,-16.0000002384183));
#757=CARTESIAN_POINT('Origin',(0.,-15.5000000000001,0.));
#758=CARTESIAN_POINT('',(-9.18485099360516E-16,-17.0000000000001,-7.50000000000001));
#759=CARTESIAN_POINT('Origin',(0.,-17.0000000000001,0.));
#760=CARTESIAN_POINT('Origin',(-9.18485099360516E-16,-15.5000000000001,
-7.50000000000001));
#761=CARTESIAN_POINT('Origin',(0.,-17.0000000000001,0.));
#762=CARTESIAN_POINT('',(16.0000002384186,-17.0000000000001,11.0000002384183));
#763=CARTESIAN_POINT('',(11.0000002384186,-17.0000000000001,16.0000002384183));
#764=CARTESIAN_POINT('Origin',(11.0000002384186,-17.0000000000001,11.0000002384183));
#765=CARTESIAN_POINT('',(16.0000002384186,-17.0000000000001,-11.0000002384183));
#766=CARTESIAN_POINT('',(16.0000002384186,-17.0000000000001,-16.0000002384183));
#767=CARTESIAN_POINT('',(11.0000002384186,-17.0000000000001,-16.0000002384183));
#768=CARTESIAN_POINT('Origin',(11.0000002384186,-17.0000000000001,-11.0000002384183));
#769=CARTESIAN_POINT('',(-11.0000002384186,-17.0000000000001,-16.0000002384183));
#770=CARTESIAN_POINT('',(-16.0000002384186,-17.0000000000001,-16.0000002384183));
#771=CARTESIAN_POINT('',(-16.0000002384186,-17.0000000000001,-11.0000002384183));
#772=CARTESIAN_POINT('Origin',(-11.0000002384186,-17.0000000000001,-11.0000002384183));
#773=CARTESIAN_POINT('',(-16.0000002384186,-17.0000000000001,11.0000002384183));
#774=CARTESIAN_POINT('',(-16.0000002384186,-17.0000000000001,16.0000002384183));
#775=CARTESIAN_POINT('',(-11.0000002384186,-17.0000000000001,16.0000002384183));
#776=CARTESIAN_POINT('Origin',(-11.0000002384186,-17.0000000000001,11.0000002384183));
#777=CARTESIAN_POINT('',(16.0000002384186,-17.0000000000001,16.0000002384183));
#778=CARTESIAN_POINT('Origin',(11.0000002384186,-20.0000000000001,11.0000002384183));
#779=CARTESIAN_POINT('',(11.0000002384186,-20.0000000000001,16.0000002384183));
#780=CARTESIAN_POINT('',(16.0000002384186,-20.0000000000001,11.0000002384183));
#781=CARTESIAN_POINT('Origin',(-16.0000002384186,-20.0000000000001,16.0000002384183));
#782=CARTESIAN_POINT('',(-11.0000002384186,-20.0000000000001,16.0000002384183));
#783=CARTESIAN_POINT('Origin',(-11.0000002384186,-20.0000000000001,11.0000002384183));
#784=CARTESIAN_POINT('',(-16.0000002384186,-20.0000000000001,11.0000002384183));
#785=CARTESIAN_POINT('Origin',(-16.0000002384186,-20.0000000000001,-16.0000002384183));
#786=CARTESIAN_POINT('',(-16.0000002384186,-20.0000000000001,-11.0000002384183));
#787=CARTESIAN_POINT('Origin',(-11.0000002384186,-20.0000000000001,-11.0000002384183));
#788=CARTESIAN_POINT('',(-11.0000002384186,-20.0000000000001,-16.0000002384183));
#789=CARTESIAN_POINT('Origin',(16.0000002384186,-20.0000000000001,-16.0000002384183));
#790=CARTESIAN_POINT('',(11.0000002384186,-20.0000000000001,-16.0000002384183));
#791=CARTESIAN_POINT('Origin',(11.0000002384186,-20.0000000000001,-11.0000002384183));
#792=CARTESIAN_POINT('',(16.0000002384186,-20.0000000000001,-11.0000002384183));
#793=CARTESIAN_POINT('Origin',(16.0000002384186,-20.0000000000001,16.0000002384183));
#794=CARTESIAN_POINT('Origin',(0.,5.89843141699303,0.));
#795=CARTESIAN_POINT('',(6.38879948164845E-16,7.20204035402655,-4.43370135143714));
#796=CARTESIAN_POINT('Origin',(0.,7.20204035402655,0.));
#797=CARTESIAN_POINT('Origin',(-9.00866410371736E-16,5.89843141699303,-7.35613248651737));
#798=CARTESIAN_POINT('Origin',(0.,5.16515138991168,0.));
#799=CARTESIAN_POINT('',(-7.34788079488412E-16,9.16515138991168,-6.));
#800=CARTESIAN_POINT('Origin',(1.39451132664768E-18,9.16515138991168,0.));
#801=CARTESIAN_POINT('Origin',(-1.10218211923262E-15,5.16515138991168,-9.));
#802=CARTESIAN_POINT('Origin',(1.39451132664768E-18,17.1651513899117,0.));
#803=CARTESIAN_POINT('',(-6.10928888247029E-16,17.1651513899117,-10.));
#804=CARTESIAN_POINT('',(-6.10928888247029E-16,17.1651513899117,10.));
#805=CARTESIAN_POINT('Origin',(1.39451132664768E-18,17.1651513899117,0.));
#806=UNCERTAINTY_MEASURE_WITH_UNIT(LENGTH_MEASURE(0.01),#810,
'DISTANCE_ACCURACY_VALUE',
'Maximum model space distance between geometric entities at asserted c
onnectivities');
#807=UNCERTAINTY_MEASURE_WITH_UNIT(LENGTH_MEASURE(0.01),#810,
'DISTANCE_ACCURACY_VALUE',
'Maximum model space distance between geometric entities at asserted c
onnectivities');
#808=(
GEOMETRIC_REPRESENTATION_CONTEXT(3)
GLOBAL_UNCERTAINTY_ASSIGNED_CONTEXT((#806))
GLOBAL_UNIT_ASSIGNED_CONTEXT((#810,#812,#813))
REPRESENTATION_CONTEXT('','3D')
);
#809=(
GEOMETRIC_REPRESENTATION_CONTEXT(3)
GLOBAL_UNCERTAINTY_ASSIGNED_CONTEXT((#807))
GLOBAL_UNIT_ASSIGNED_CONTEXT((#810,#812,#813))
REPRESENTATION_CONTEXT('','3D')
);
#810=(
LENGTH_UNIT()
NAMED_UNIT(*)
SI_UNIT(.MILLI.,.METRE.)
);
#811=(
LENGTH_UNIT()
NAMED_UNIT(*)
SI_UNIT($,.METRE.)
);
#812=(
NAMED_UNIT(*)
PLANE_ANGLE_UNIT()
SI_UNIT($,.RADIAN.)
);
#813=(
NAMED_UNIT(*)
SI_UNIT($,.STERADIAN.)
SOLID_ANGLE_UNIT()
);
#814=SHAPE_DEFINITION_REPRESENTATION(#815,#816);
#815=PRODUCT_DEFINITION_SHAPE('',$,#818);
#816=SHAPE_REPRESENTATION('',(#465),#808);
#817=PRODUCT_DEFINITION_CONTEXT('part definition',#822,'design');
#818=PRODUCT_DEFINITION('2026-08-17-19-33-06-836',
'Balljoint_with_extension',#819,#817);
#819=PRODUCT_DEFINITION_FORMATION('',$,#824);
#820=PRODUCT_RELATED_PRODUCT_CATEGORY('Balljoint_with_extension',
'Balljoint_with_extension',(#824));
#821=APPLICATION_PROTOCOL_DEFINITION('international standard',
'automotive_design',2009,#822);
#822=APPLICATION_CONTEXT(
'Core Data for Automotive Mechanical Design Process');
#823=PRODUCT_CONTEXT('part definition',#822,'mechanical');
#824=PRODUCT('2026-08-17-19-33-06-836','Balljoint_with_extension',
'STEP AP214',(#823));
#825=PRESENTATION_STYLE_ASSIGNMENT((#827));
#826=PRESENTATION_STYLE_ASSIGNMENT((#828));
#827=SURFACE_STYLE_USAGE(.BOTH.,#829);
#828=SURFACE_STYLE_USAGE(.BOTH.,#830);
#829=SURFACE_SIDE_STYLE('',(#831));
#830=SURFACE_SIDE_STYLE('',(#832));
#831=SURFACE_STYLE_FILL_AREA(#833);
#832=SURFACE_STYLE_FILL_AREA(#834);
#833=FILL_AREA_STYLE('Steel - Satin',(#835));
#834=FILL_AREA_STYLE('Opaque(229,235,237)',(#836));
#835=FILL_AREA_STYLE_COLOUR('Steel - Satin',#837);
#836=FILL_AREA_STYLE_COLOUR('Opaque(229,235,237)',#838);
#837=COLOUR_RGB('Steel - Satin',0.627450980392157,0.627450980392157,0.627450980392157);
#838=COLOUR_RGB('Opaque(229,235,237)',0.898039215686275,0.92156862745098,
0.929411764705882);
ENDSEC;
END-ISO-10303-21;
