ISO-10303-21;
HEADER;
/* Generated by software containing ST-Developer
 * from STEP Tools, Inc. (www.steptools.com) 
 */

FILE_DESCRIPTION(
/* description */ (''),
/* implementation_level */ '2;1');

FILE_NAME(
/* name */ 'Sensor Bottom Housing.step',
/* time_stamp */ '2026-08-17T19:33:30+05:30',
/* author */ (''),
/* organization */ (''),
/* preprocessor_version */ 'ST-DEVELOPER v20.1',
/* originating_system */ 'Autodesk Translation Framework v15.8.0.0',
/* authorisation */ '');

FILE_SCHEMA (('AUTOMOTIVE_DESIGN { 1 0 10303 214 3 1 1 }'));
ENDSEC;

DATA;
#10=MECHANICAL_DESIGN_GEOMETRIC_PRESENTATION_REPRESENTATION('',(#13),#1135);
#11=SHAPE_REPRESENTATION_RELATIONSHIP('SRR','None',#1142,#12);
#12=ADVANCED_BREP_SHAPE_REPRESENTATION('',(#14),#1134);
#13=STYLED_ITEM('',(#1152),#14);
#14=MANIFOLD_SOLID_BREP('Sensor Bottom',#655);
#15=CONICAL_SURFACE('',#727,9.2,0.785398163397448);
#16=CONICAL_SURFACE('',#730,9.20000000000002,0.785398163397447);
#17=CONICAL_SURFACE('',#732,9.20000000000001,0.785398163397448);
#18=CONICAL_SURFACE('',#735,9.20000000000001,0.785398163397448);
#19=FACE_BOUND('',#96,.T.);
#20=FACE_BOUND('',#100,.T.);
#21=FACE_BOUND('',#103,.T.);
#22=FACE_BOUND('',#106,.T.);
#23=FACE_BOUND('',#109,.T.);
#24=FACE_BOUND('',#115,.T.);
#25=FACE_BOUND('',#116,.T.);
#26=FACE_BOUND('',#117,.T.);
#27=FACE_BOUND('',#118,.T.);
#28=FACE_BOUND('',#119,.T.);
#29=FACE_BOUND('',#121,.T.);
#30=FACE_BOUND('',#122,.T.);
#31=FACE_BOUND('',#123,.T.);
#32=FACE_BOUND('',#124,.T.);
#33=FACE_BOUND('',#125,.T.);
#34=PLANE('',#672);
#35=PLANE('',#679);
#36=PLANE('',#684);
#37=PLANE('',#689);
#38=PLANE('',#694);
#39=PLANE('',#704);
#40=PLANE('',#709);
#41=PLANE('',#714);
#42=PLANE('',#717);
#43=PLANE('',#720);
#44=PLANE('',#723);
#45=PLANE('',#726);
#46=PLANE('',#729);
#47=PLANE('',#734);
#48=PLANE('',#737);
#49=PLANE('',#738);
#50=PLANE('',#740);
#51=PLANE('',#742);
#52=PLANE('',#744);
#53=FACE_OUTER_BOUND('',#94,.T.);
#54=FACE_OUTER_BOUND('',#95,.T.);
#55=FACE_OUTER_BOUND('',#97,.T.);
#56=FACE_OUTER_BOUND('',#98,.T.);
#57=FACE_OUTER_BOUND('',#99,.T.);
#58=FACE_OUTER_BOUND('',#101,.T.);
#59=FACE_OUTER_BOUND('',#102,.T.);
#60=FACE_OUTER_BOUND('',#104,.T.);
#61=FACE_OUTER_BOUND('',#105,.T.);
#62=FACE_OUTER_BOUND('',#107,.T.);
#63=FACE_OUTER_BOUND('',#108,.T.);
#64=FACE_OUTER_BOUND('',#110,.T.);
#65=FACE_OUTER_BOUND('',#111,.T.);
#66=FACE_OUTER_BOUND('',#112,.T.);
#67=FACE_OUTER_BOUND('',#113,.T.);
#68=FACE_OUTER_BOUND('',#114,.T.);
#69=FACE_OUTER_BOUND('',#120,.T.);
#70=FACE_OUTER_BOUND('',#126,.T.);
#71=FACE_OUTER_BOUND('',#127,.T.);
#72=FACE_OUTER_BOUND('',#128,.T.);
#73=FACE_OUTER_BOUND('',#129,.T.);
#74=FACE_OUTER_BOUND('',#130,.T.);
#75=FACE_OUTER_BOUND('',#131,.T.);
#76=FACE_OUTER_BOUND('',#132,.T.);
#77=FACE_OUTER_BOUND('',#133,.T.);
#78=FACE_OUTER_BOUND('',#134,.T.);
#79=FACE_OUTER_BOUND('',#135,.T.);
#80=FACE_OUTER_BOUND('',#136,.T.);
#81=FACE_OUTER_BOUND('',#137,.T.);
#82=FACE_OUTER_BOUND('',#138,.T.);
#83=FACE_OUTER_BOUND('',#139,.T.);
#84=FACE_OUTER_BOUND('',#140,.T.);
#85=FACE_OUTER_BOUND('',#141,.T.);
#86=FACE_OUTER_BOUND('',#142,.T.);
#87=FACE_OUTER_BOUND('',#143,.T.);
#88=FACE_OUTER_BOUND('',#144,.T.);
#89=FACE_OUTER_BOUND('',#145,.T.);
#90=FACE_OUTER_BOUND('',#146,.T.);
#91=FACE_OUTER_BOUND('',#147,.T.);
#92=FACE_OUTER_BOUND('',#148,.T.);
#93=FACE_OUTER_BOUND('',#149,.T.);
#94=EDGE_LOOP('',(#424,#425,#426,#427));
#95=EDGE_LOOP('',(#428));
#96=EDGE_LOOP('',(#429));
#97=EDGE_LOOP('',(#430,#431,#432,#433));
#98=EDGE_LOOP('',(#434,#435,#436,#437));
#99=EDGE_LOOP('',(#438));
#100=EDGE_LOOP('',(#439));
#101=EDGE_LOOP('',(#440,#441,#442,#443));
#102=EDGE_LOOP('',(#444));
#103=EDGE_LOOP('',(#445));
#104=EDGE_LOOP('',(#446,#447,#448,#449));
#105=EDGE_LOOP('',(#450));
#106=EDGE_LOOP('',(#451));
#107=EDGE_LOOP('',(#452,#453,#454,#455));
#108=EDGE_LOOP('',(#456));
#109=EDGE_LOOP('',(#457));
#110=EDGE_LOOP('',(#458,#459,#460,#461));
#111=EDGE_LOOP('',(#462,#463,#464,#465));
#112=EDGE_LOOP('',(#466,#467,#468,#469));
#113=EDGE_LOOP('',(#470,#471,#472,#473));
#114=EDGE_LOOP('',(#474,#475,#476,#477,#478,#479,#480,#481));
#115=EDGE_LOOP('',(#482));
#116=EDGE_LOOP('',(#483));
#117=EDGE_LOOP('',(#484));
#118=EDGE_LOOP('',(#485));
#119=EDGE_LOOP('',(#486));
#120=EDGE_LOOP('',(#487,#488,#489,#490,#491,#492,#493,#494));
#121=EDGE_LOOP('',(#495));
#122=EDGE_LOOP('',(#496));
#123=EDGE_LOOP('',(#497));
#124=EDGE_LOOP('',(#498));
#125=EDGE_LOOP('',(#499));
#126=EDGE_LOOP('',(#500,#501,#502,#503));
#127=EDGE_LOOP('',(#504,#505,#506,#507));
#128=EDGE_LOOP('',(#508,#509,#510,#511));
#129=EDGE_LOOP('',(#512,#513,#514,#515));
#130=EDGE_LOOP('',(#516,#517,#518,#519));
#131=EDGE_LOOP('',(#520,#521,#522,#523));
#132=EDGE_LOOP('',(#524,#525,#526,#527));
#133=EDGE_LOOP('',(#528,#529,#530,#531));
#134=EDGE_LOOP('',(#532,#533,#534,#535));
#135=EDGE_LOOP('',(#536,#537,#538,#539));
#136=EDGE_LOOP('',(#540,#541,#542,#543));
#137=EDGE_LOOP('',(#544,#545,#546,#547));
#138=EDGE_LOOP('',(#548,#549,#550,#551));
#139=EDGE_LOOP('',(#552,#553,#554,#555));
#140=EDGE_LOOP('',(#556,#557,#558,#559));
#141=EDGE_LOOP('',(#560,#561,#562,#563));
#142=EDGE_LOOP('',(#564,#565,#566,#567));
#143=EDGE_LOOP('',(#568,#569,#570,#571));
#144=EDGE_LOOP('',(#572,#573,#574,#575));
#145=EDGE_LOOP('',(#576,#577,#578,#579));
#146=EDGE_LOOP('',(#580,#581,#582,#583));
#147=EDGE_LOOP('',(#584,#585,#586,#587));
#148=EDGE_LOOP('',(#588,#589,#590,#591));
#149=EDGE_LOOP('',(#592,#593,#594,#595));
#150=LINE('',#957,#200);
#151=LINE('',#965,#201);
#152=LINE('',#970,#202);
#153=LINE('',#979,#203);
#154=LINE('',#988,#204);
#155=LINE('',#997,#205);
#156=LINE('',#1005,#206);
#157=LINE('',#1009,#207);
#158=LINE('',#1013,#208);
#159=LINE('',#1017,#209);
#160=LINE('',#1023,#210);
#161=LINE('',#1027,#211);
#162=LINE('',#1031,#212);
#163=LINE('',#1034,#213);
#164=LINE('',#1040,#214);
#165=LINE('',#1044,#215);
#166=LINE('',#1048,#216);
#167=LINE('',#1051,#217);
#168=LINE('',#1055,#218);
#169=LINE('',#1056,#219);
#170=LINE('',#1057,#220);
#171=LINE('',#1061,#221);
#172=LINE('',#1064,#222);
#173=LINE('',#1065,#223);
#174=LINE('',#1069,#224);
#175=LINE('',#1072,#225);
#176=LINE('',#1073,#226);
#177=LINE('',#1077,#227);
#178=LINE('',#1080,#228);
#179=LINE('',#1081,#229);
#180=LINE('',#1086,#230);
#181=LINE('',#1088,#231);
#182=LINE('',#1089,#232);
#183=LINE('',#1092,#233);
#184=LINE('',#1096,#234);
#185=LINE('',#1097,#235);
#186=LINE('',#1100,#236);
#187=LINE('',#1105,#237);
#188=LINE('',#1108,#238);
#189=LINE('',#1109,#239);
#190=LINE('',#1113,#240);
#191=LINE('',#1115,#241);
#192=LINE('',#1117,#242);
#193=LINE('',#1118,#243);
#194=LINE('',#1120,#244);
#195=LINE('',#1122,#245);
#196=LINE('',#1124,#246);
#197=LINE('',#1126,#247);
#198=LINE('',#1127,#248);
#199=LINE('',#1130,#249);
#200=VECTOR('',#752,15.);
#201=VECTOR('',#763,4.00000005960464);
#202=VECTOR('',#768,2.75);
#203=VECTOR('',#779,2.75);
#204=VECTOR('',#790,2.75);
#205=VECTOR('',#801,2.75);
#206=VECTOR('',#812,2.225);
#207=VECTOR('',#817,2.225);
#208=VECTOR('',#822,2.225);
#209=VECTOR('',#827,2.225);
#210=VECTOR('',#832,10.);
#211=VECTOR('',#835,10.);
#212=VECTOR('',#838,10.);
#213=VECTOR('',#841,10.);
#214=VECTOR('',#846,10.);
#215=VECTOR('',#849,10.);
#216=VECTOR('',#852,10.);
#217=VECTOR('',#855,10.);
#218=VECTOR('',#858,10.);
#219=VECTOR('',#859,10.);
#220=VECTOR('',#860,10.);
#221=VECTOR('',#865,10.);
#222=VECTOR('',#868,10.);
#223=VECTOR('',#869,10.);
#224=VECTOR('',#874,10.);
#225=VECTOR('',#877,10.);
#226=VECTOR('',#878,10.);
#227=VECTOR('',#883,10.);
#228=VECTOR('',#886,10.);
#229=VECTOR('',#887,10.);
#230=VECTOR('',#894,10.);
#231=VECTOR('',#895,10.);
#232=VECTOR('',#896,10.);
#233=VECTOR('',#899,10.);
#234=VECTOR('',#904,10.);
#235=VECTOR('',#905,10.);
#236=VECTOR('',#908,10.);
#237=VECTOR('',#915,10.);
#238=VECTOR('',#918,10.);
#239=VECTOR('',#919,10.);
#240=VECTOR('',#924,10.);
#241=VECTOR('',#927,10.);
#242=VECTOR('',#930,10.);
#243=VECTOR('',#931,10.);
#244=VECTOR('',#934,10.);
#245=VECTOR('',#937,10.);
#246=VECTOR('',#940,10.);
#247=VECTOR('',#943,10.);
#248=VECTOR('',#944,10.);
#249=VECTOR('',#949,10.);
#250=CIRCLE('',#670,15.1);
#251=CIRCLE('',#671,15.1);
#252=CIRCLE('',#673,3.00000005960464);
#253=CIRCLE('',#675,3.00000005960464);
#254=CIRCLE('',#677,2.75);
#255=CIRCLE('',#678,2.75);
#256=CIRCLE('',#680,2.225);
#257=CIRCLE('',#682,2.75);
#258=CIRCLE('',#683,2.75);
#259=CIRCLE('',#685,2.225);
#260=CIRCLE('',#687,2.75);
#261=CIRCLE('',#688,2.75);
#262=CIRCLE('',#690,2.225);
#263=CIRCLE('',#692,2.75);
#264=CIRCLE('',#693,2.75);
#265=CIRCLE('',#695,2.225);
#266=CIRCLE('',#697,2.225);
#267=CIRCLE('',#699,2.225);
#268=CIRCLE('',#701,2.225);
#269=CIRCLE('',#703,2.225);
#270=CIRCLE('',#705,8.60000000000001);
#271=CIRCLE('',#706,8.6);
#272=CIRCLE('',#707,8.60000000000002);
#273=CIRCLE('',#708,8.60000000000001);
#274=CIRCLE('',#710,10.2);
#275=CIRCLE('',#711,10.2);
#276=CIRCLE('',#712,10.2);
#277=CIRCLE('',#713,10.2);
#278=CIRCLE('',#716,8.6);
#279=CIRCLE('',#719,8.60000000000001);
#280=CIRCLE('',#722,8.60000000000001);
#281=CIRCLE('',#725,8.60000000000002);
#282=CIRCLE('',#728,10.2);
#283=CIRCLE('',#731,10.2);
#284=CIRCLE('',#733,10.2);
#285=CIRCLE('',#736,10.2);
#286=VERTEX_POINT('',#954);
#287=VERTEX_POINT('',#956);
#288=VERTEX_POINT('',#960);
#289=VERTEX_POINT('',#963);
#290=VERTEX_POINT('',#967);
#291=VERTEX_POINT('',#969);
#292=VERTEX_POINT('',#973);
#293=VERTEX_POINT('',#976);
#294=VERTEX_POINT('',#978);
#295=VERTEX_POINT('',#982);
#296=VERTEX_POINT('',#985);
#297=VERTEX_POINT('',#987);
#298=VERTEX_POINT('',#991);
#299=VERTEX_POINT('',#994);
#300=VERTEX_POINT('',#996);
#301=VERTEX_POINT('',#1000);
#302=VERTEX_POINT('',#1003);
#303=VERTEX_POINT('',#1007);
#304=VERTEX_POINT('',#1011);
#305=VERTEX_POINT('',#1015);
#306=VERTEX_POINT('',#1019);
#307=VERTEX_POINT('',#1020);
#308=VERTEX_POINT('',#1022);
#309=VERTEX_POINT('',#1024);
#310=VERTEX_POINT('',#1026);
#311=VERTEX_POINT('',#1028);
#312=VERTEX_POINT('',#1030);
#313=VERTEX_POINT('',#1032);
#314=VERTEX_POINT('',#1036);
#315=VERTEX_POINT('',#1037);
#316=VERTEX_POINT('',#1039);
#317=VERTEX_POINT('',#1041);
#318=VERTEX_POINT('',#1043);
#319=VERTEX_POINT('',#1045);
#320=VERTEX_POINT('',#1047);
#321=VERTEX_POINT('',#1049);
#322=VERTEX_POINT('',#1053);
#323=VERTEX_POINT('',#1054);
#324=VERTEX_POINT('',#1059);
#325=VERTEX_POINT('',#1063);
#326=VERTEX_POINT('',#1067);
#327=VERTEX_POINT('',#1071);
#328=VERTEX_POINT('',#1075);
#329=VERTEX_POINT('',#1079);
#330=VERTEX_POINT('',#1085);
#331=VERTEX_POINT('',#1087);
#332=VERTEX_POINT('',#1091);
#333=VERTEX_POINT('',#1095);
#334=VERTEX_POINT('',#1099);
#335=VERTEX_POINT('',#1103);
#336=VERTEX_POINT('',#1107);
#337=VERTEX_POINT('',#1111);
#338=EDGE_CURVE('',#286,#286,#250,.T.);
#339=EDGE_CURVE('',#286,#287,#150,.T.);
#340=EDGE_CURVE('',#287,#287,#251,.T.);
#341=EDGE_CURVE('',#288,#288,#252,.F.);
#342=EDGE_CURVE('',#289,#289,#253,.F.);
#343=EDGE_CURVE('',#289,#288,#151,.T.);
#344=EDGE_CURVE('',#290,#290,#254,.T.);
#345=EDGE_CURVE('',#290,#291,#152,.T.);
#346=EDGE_CURVE('',#291,#291,#255,.T.);
#347=EDGE_CURVE('',#292,#292,#256,.T.);
#348=EDGE_CURVE('',#293,#293,#257,.T.);
#349=EDGE_CURVE('',#293,#294,#153,.T.);
#350=EDGE_CURVE('',#294,#294,#258,.T.);
#351=EDGE_CURVE('',#295,#295,#259,.T.);
#352=EDGE_CURVE('',#296,#296,#260,.T.);
#353=EDGE_CURVE('',#296,#297,#154,.T.);
#354=EDGE_CURVE('',#297,#297,#261,.T.);
#355=EDGE_CURVE('',#298,#298,#262,.T.);
#356=EDGE_CURVE('',#299,#299,#263,.T.);
#357=EDGE_CURVE('',#299,#300,#155,.T.);
#358=EDGE_CURVE('',#300,#300,#264,.T.);
#359=EDGE_CURVE('',#301,#301,#265,.T.);
#360=EDGE_CURVE('',#302,#302,#266,.T.);
#361=EDGE_CURVE('',#302,#301,#156,.T.);
#362=EDGE_CURVE('',#303,#303,#267,.T.);
#363=EDGE_CURVE('',#303,#292,#157,.T.);
#364=EDGE_CURVE('',#304,#304,#268,.T.);
#365=EDGE_CURVE('',#304,#298,#158,.T.);
#366=EDGE_CURVE('',#305,#305,#269,.T.);
#367=EDGE_CURVE('',#305,#295,#159,.T.);
#368=EDGE_CURVE('',#306,#307,#270,.T.);
#369=EDGE_CURVE('',#307,#308,#160,.T.);
#370=EDGE_CURVE('',#308,#309,#271,.T.);
#371=EDGE_CURVE('',#309,#310,#161,.T.);
#372=EDGE_CURVE('',#310,#311,#272,.T.);
#373=EDGE_CURVE('',#311,#312,#162,.T.);
#374=EDGE_CURVE('',#312,#313,#273,.T.);
#375=EDGE_CURVE('',#313,#306,#163,.T.);
#376=EDGE_CURVE('',#314,#315,#274,.T.);
#377=EDGE_CURVE('',#315,#316,#164,.T.);
#378=EDGE_CURVE('',#316,#317,#275,.T.);
#379=EDGE_CURVE('',#317,#318,#165,.T.);
#380=EDGE_CURVE('',#318,#319,#276,.T.);
#381=EDGE_CURVE('',#319,#320,#166,.T.);
#382=EDGE_CURVE('',#320,#321,#277,.T.);
#383=EDGE_CURVE('',#321,#314,#167,.T.);
#384=EDGE_CURVE('',#322,#323,#168,.T.);
#385=EDGE_CURVE('',#310,#322,#169,.T.);
#386=EDGE_CURVE('',#309,#323,#170,.T.);
#387=EDGE_CURVE('',#323,#324,#278,.T.);
#388=EDGE_CURVE('',#308,#324,#171,.T.);
#389=EDGE_CURVE('',#324,#325,#172,.T.);
#390=EDGE_CURVE('',#307,#325,#173,.T.);
#391=EDGE_CURVE('',#325,#326,#279,.T.);
#392=EDGE_CURVE('',#306,#326,#174,.T.);
#393=EDGE_CURVE('',#326,#327,#175,.T.);
#394=EDGE_CURVE('',#313,#327,#176,.T.);
#395=EDGE_CURVE('',#327,#328,#280,.T.);
#396=EDGE_CURVE('',#312,#328,#177,.T.);
#397=EDGE_CURVE('',#328,#329,#178,.T.);
#398=EDGE_CURVE('',#311,#329,#179,.T.);
#399=EDGE_CURVE('',#329,#322,#281,.T.);
#400=EDGE_CURVE('',#330,#323,#180,.T.);
#401=EDGE_CURVE('',#330,#331,#181,.T.);
#402=EDGE_CURVE('',#322,#331,#182,.T.);
#403=EDGE_CURVE('',#332,#324,#183,.T.);
#404=EDGE_CURVE('',#332,#330,#282,.T.);
#405=EDGE_CURVE('',#333,#325,#184,.T.);
#406=EDGE_CURVE('',#333,#332,#185,.T.);
#407=EDGE_CURVE('',#334,#326,#186,.T.);
#408=EDGE_CURVE('',#334,#333,#283,.T.);
#409=EDGE_CURVE('',#331,#335,#284,.T.);
#410=EDGE_CURVE('',#335,#329,#187,.T.);
#411=EDGE_CURVE('',#335,#336,#188,.T.);
#412=EDGE_CURVE('',#336,#328,#189,.T.);
#413=EDGE_CURVE('',#336,#337,#285,.T.);
#414=EDGE_CURVE('',#337,#327,#190,.T.);
#415=EDGE_CURVE('',#337,#334,#191,.T.);
#416=EDGE_CURVE('',#337,#318,#192,.T.);
#417=EDGE_CURVE('',#334,#317,#193,.T.);
#418=EDGE_CURVE('',#336,#319,#194,.T.);
#419=EDGE_CURVE('',#335,#320,#195,.T.);
#420=EDGE_CURVE('',#331,#321,#196,.T.);
#421=EDGE_CURVE('',#333,#316,#197,.T.);
#422=EDGE_CURVE('',#332,#315,#198,.T.);
#423=EDGE_CURVE('',#314,#330,#199,.T.);
#424=ORIENTED_EDGE('',*,*,#338,.F.);
#425=ORIENTED_EDGE('',*,*,#339,.T.);
#426=ORIENTED_EDGE('',*,*,#340,.T.);
#427=ORIENTED_EDGE('',*,*,#339,.F.);
#428=ORIENTED_EDGE('',*,*,#340,.F.);
#429=ORIENTED_EDGE('',*,*,#341,.F.);
#430=ORIENTED_EDGE('',*,*,#342,.F.);
#431=ORIENTED_EDGE('',*,*,#343,.T.);
#432=ORIENTED_EDGE('',*,*,#341,.T.);
#433=ORIENTED_EDGE('',*,*,#343,.F.);
#434=ORIENTED_EDGE('',*,*,#344,.F.);
#435=ORIENTED_EDGE('',*,*,#345,.T.);
#436=ORIENTED_EDGE('',*,*,#346,.T.);
#437=ORIENTED_EDGE('',*,*,#345,.F.);
#438=ORIENTED_EDGE('',*,*,#346,.F.);
#439=ORIENTED_EDGE('',*,*,#347,.F.);
#440=ORIENTED_EDGE('',*,*,#348,.F.);
#441=ORIENTED_EDGE('',*,*,#349,.T.);
#442=ORIENTED_EDGE('',*,*,#350,.T.);
#443=ORIENTED_EDGE('',*,*,#349,.F.);
#444=ORIENTED_EDGE('',*,*,#350,.F.);
#445=ORIENTED_EDGE('',*,*,#351,.F.);
#446=ORIENTED_EDGE('',*,*,#352,.F.);
#447=ORIENTED_EDGE('',*,*,#353,.T.);
#448=ORIENTED_EDGE('',*,*,#354,.T.);
#449=ORIENTED_EDGE('',*,*,#353,.F.);
#450=ORIENTED_EDGE('',*,*,#354,.F.);
#451=ORIENTED_EDGE('',*,*,#355,.F.);
#452=ORIENTED_EDGE('',*,*,#356,.F.);
#453=ORIENTED_EDGE('',*,*,#357,.T.);
#454=ORIENTED_EDGE('',*,*,#358,.T.);
#455=ORIENTED_EDGE('',*,*,#357,.F.);
#456=ORIENTED_EDGE('',*,*,#358,.F.);
#457=ORIENTED_EDGE('',*,*,#359,.F.);
#458=ORIENTED_EDGE('',*,*,#360,.F.);
#459=ORIENTED_EDGE('',*,*,#361,.T.);
#460=ORIENTED_EDGE('',*,*,#359,.T.);
#461=ORIENTED_EDGE('',*,*,#361,.F.);
#462=ORIENTED_EDGE('',*,*,#362,.F.);
#463=ORIENTED_EDGE('',*,*,#363,.T.);
#464=ORIENTED_EDGE('',*,*,#347,.T.);
#465=ORIENTED_EDGE('',*,*,#363,.F.);
#466=ORIENTED_EDGE('',*,*,#364,.F.);
#467=ORIENTED_EDGE('',*,*,#365,.T.);
#468=ORIENTED_EDGE('',*,*,#355,.T.);
#469=ORIENTED_EDGE('',*,*,#365,.F.);
#470=ORIENTED_EDGE('',*,*,#366,.F.);
#471=ORIENTED_EDGE('',*,*,#367,.T.);
#472=ORIENTED_EDGE('',*,*,#351,.T.);
#473=ORIENTED_EDGE('',*,*,#367,.F.);
#474=ORIENTED_EDGE('',*,*,#368,.T.);
#475=ORIENTED_EDGE('',*,*,#369,.T.);
#476=ORIENTED_EDGE('',*,*,#370,.T.);
#477=ORIENTED_EDGE('',*,*,#371,.T.);
#478=ORIENTED_EDGE('',*,*,#372,.T.);
#479=ORIENTED_EDGE('',*,*,#373,.T.);
#480=ORIENTED_EDGE('',*,*,#374,.T.);
#481=ORIENTED_EDGE('',*,*,#375,.T.);
#482=ORIENTED_EDGE('',*,*,#342,.T.);
#483=ORIENTED_EDGE('',*,*,#360,.T.);
#484=ORIENTED_EDGE('',*,*,#362,.T.);
#485=ORIENTED_EDGE('',*,*,#364,.T.);
#486=ORIENTED_EDGE('',*,*,#366,.T.);
#487=ORIENTED_EDGE('',*,*,#376,.T.);
#488=ORIENTED_EDGE('',*,*,#377,.T.);
#489=ORIENTED_EDGE('',*,*,#378,.T.);
#490=ORIENTED_EDGE('',*,*,#379,.T.);
#491=ORIENTED_EDGE('',*,*,#380,.T.);
#492=ORIENTED_EDGE('',*,*,#381,.T.);
#493=ORIENTED_EDGE('',*,*,#382,.T.);
#494=ORIENTED_EDGE('',*,*,#383,.T.);
#495=ORIENTED_EDGE('',*,*,#338,.T.);
#496=ORIENTED_EDGE('',*,*,#344,.T.);
#497=ORIENTED_EDGE('',*,*,#348,.T.);
#498=ORIENTED_EDGE('',*,*,#352,.T.);
#499=ORIENTED_EDGE('',*,*,#356,.T.);
#500=ORIENTED_EDGE('',*,*,#384,.F.);
#501=ORIENTED_EDGE('',*,*,#385,.F.);
#502=ORIENTED_EDGE('',*,*,#371,.F.);
#503=ORIENTED_EDGE('',*,*,#386,.T.);
#504=ORIENTED_EDGE('',*,*,#387,.F.);
#505=ORIENTED_EDGE('',*,*,#386,.F.);
#506=ORIENTED_EDGE('',*,*,#370,.F.);
#507=ORIENTED_EDGE('',*,*,#388,.T.);
#508=ORIENTED_EDGE('',*,*,#389,.F.);
#509=ORIENTED_EDGE('',*,*,#388,.F.);
#510=ORIENTED_EDGE('',*,*,#369,.F.);
#511=ORIENTED_EDGE('',*,*,#390,.T.);
#512=ORIENTED_EDGE('',*,*,#391,.F.);
#513=ORIENTED_EDGE('',*,*,#390,.F.);
#514=ORIENTED_EDGE('',*,*,#368,.F.);
#515=ORIENTED_EDGE('',*,*,#392,.T.);
#516=ORIENTED_EDGE('',*,*,#393,.F.);
#517=ORIENTED_EDGE('',*,*,#392,.F.);
#518=ORIENTED_EDGE('',*,*,#375,.F.);
#519=ORIENTED_EDGE('',*,*,#394,.T.);
#520=ORIENTED_EDGE('',*,*,#395,.F.);
#521=ORIENTED_EDGE('',*,*,#394,.F.);
#522=ORIENTED_EDGE('',*,*,#374,.F.);
#523=ORIENTED_EDGE('',*,*,#396,.T.);
#524=ORIENTED_EDGE('',*,*,#397,.F.);
#525=ORIENTED_EDGE('',*,*,#396,.F.);
#526=ORIENTED_EDGE('',*,*,#373,.F.);
#527=ORIENTED_EDGE('',*,*,#398,.T.);
#528=ORIENTED_EDGE('',*,*,#399,.F.);
#529=ORIENTED_EDGE('',*,*,#398,.F.);
#530=ORIENTED_EDGE('',*,*,#372,.F.);
#531=ORIENTED_EDGE('',*,*,#385,.T.);
#532=ORIENTED_EDGE('',*,*,#384,.T.);
#533=ORIENTED_EDGE('',*,*,#400,.F.);
#534=ORIENTED_EDGE('',*,*,#401,.T.);
#535=ORIENTED_EDGE('',*,*,#402,.F.);
#536=ORIENTED_EDGE('',*,*,#387,.T.);
#537=ORIENTED_EDGE('',*,*,#403,.F.);
#538=ORIENTED_EDGE('',*,*,#404,.T.);
#539=ORIENTED_EDGE('',*,*,#400,.T.);
#540=ORIENTED_EDGE('',*,*,#389,.T.);
#541=ORIENTED_EDGE('',*,*,#405,.F.);
#542=ORIENTED_EDGE('',*,*,#406,.T.);
#543=ORIENTED_EDGE('',*,*,#403,.T.);
#544=ORIENTED_EDGE('',*,*,#391,.T.);
#545=ORIENTED_EDGE('',*,*,#407,.F.);
#546=ORIENTED_EDGE('',*,*,#408,.T.);
#547=ORIENTED_EDGE('',*,*,#405,.T.);
#548=ORIENTED_EDGE('',*,*,#399,.T.);
#549=ORIENTED_EDGE('',*,*,#402,.T.);
#550=ORIENTED_EDGE('',*,*,#409,.T.);
#551=ORIENTED_EDGE('',*,*,#410,.T.);
#552=ORIENTED_EDGE('',*,*,#397,.T.);
#553=ORIENTED_EDGE('',*,*,#410,.F.);
#554=ORIENTED_EDGE('',*,*,#411,.T.);
#555=ORIENTED_EDGE('',*,*,#412,.T.);
#556=ORIENTED_EDGE('',*,*,#395,.T.);
#557=ORIENTED_EDGE('',*,*,#412,.F.);
#558=ORIENTED_EDGE('',*,*,#413,.T.);
#559=ORIENTED_EDGE('',*,*,#414,.T.);
#560=ORIENTED_EDGE('',*,*,#393,.T.);
#561=ORIENTED_EDGE('',*,*,#414,.F.);
#562=ORIENTED_EDGE('',*,*,#415,.T.);
#563=ORIENTED_EDGE('',*,*,#407,.T.);
#564=ORIENTED_EDGE('',*,*,#415,.F.);
#565=ORIENTED_EDGE('',*,*,#416,.T.);
#566=ORIENTED_EDGE('',*,*,#379,.F.);
#567=ORIENTED_EDGE('',*,*,#417,.F.);
#568=ORIENTED_EDGE('',*,*,#413,.F.);
#569=ORIENTED_EDGE('',*,*,#418,.T.);
#570=ORIENTED_EDGE('',*,*,#380,.F.);
#571=ORIENTED_EDGE('',*,*,#416,.F.);
#572=ORIENTED_EDGE('',*,*,#411,.F.);
#573=ORIENTED_EDGE('',*,*,#419,.T.);
#574=ORIENTED_EDGE('',*,*,#381,.F.);
#575=ORIENTED_EDGE('',*,*,#418,.F.);
#576=ORIENTED_EDGE('',*,*,#409,.F.);
#577=ORIENTED_EDGE('',*,*,#420,.T.);
#578=ORIENTED_EDGE('',*,*,#382,.F.);
#579=ORIENTED_EDGE('',*,*,#419,.F.);
#580=ORIENTED_EDGE('',*,*,#406,.F.);
#581=ORIENTED_EDGE('',*,*,#421,.T.);
#582=ORIENTED_EDGE('',*,*,#377,.F.);
#583=ORIENTED_EDGE('',*,*,#422,.F.);
#584=ORIENTED_EDGE('',*,*,#408,.F.);
#585=ORIENTED_EDGE('',*,*,#417,.T.);
#586=ORIENTED_EDGE('',*,*,#378,.F.);
#587=ORIENTED_EDGE('',*,*,#421,.F.);
#588=ORIENTED_EDGE('',*,*,#401,.F.);
#589=ORIENTED_EDGE('',*,*,#423,.F.);
#590=ORIENTED_EDGE('',*,*,#383,.F.);
#591=ORIENTED_EDGE('',*,*,#420,.F.);
#592=ORIENTED_EDGE('',*,*,#404,.F.);
#593=ORIENTED_EDGE('',*,*,#422,.T.);
#594=ORIENTED_EDGE('',*,*,#376,.F.);
#595=ORIENTED_EDGE('',*,*,#423,.T.);
#596=CYLINDRICAL_SURFACE('',#669,15.1);
#597=CYLINDRICAL_SURFACE('',#674,3.00000005960464);
#598=CYLINDRICAL_SURFACE('',#676,2.75);
#599=CYLINDRICAL_SURFACE('',#681,2.75);
#600=CYLINDRICAL_SURFACE('',#686,2.75);
#601=CYLINDRICAL_SURFACE('',#691,2.75);
#602=CYLINDRICAL_SURFACE('',#696,2.225);
#603=CYLINDRICAL_SURFACE('',#698,2.225);
#604=CYLINDRICAL_SURFACE('',#700,2.225);
#605=CYLINDRICAL_SURFACE('',#702,2.225);
#606=CYLINDRICAL_SURFACE('',#715,8.6);
#607=CYLINDRICAL_SURFACE('',#718,8.60000000000001);
#608=CYLINDRICAL_SURFACE('',#721,8.60000000000001);
#609=CYLINDRICAL_SURFACE('',#724,8.60000000000002);
#610=CYLINDRICAL_SURFACE('',#739,10.2);
#611=CYLINDRICAL_SURFACE('',#741,10.2);
#612=CYLINDRICAL_SURFACE('',#743,10.2);
#613=CYLINDRICAL_SURFACE('',#745,10.2);
#614=ADVANCED_FACE('',(#53),#596,.F.);
#615=ADVANCED_FACE('',(#54,#19),#34,.T.);
#616=ADVANCED_FACE('',(#55),#597,.F.);
#617=ADVANCED_FACE('',(#56),#598,.F.);
#618=ADVANCED_FACE('',(#57,#20),#35,.T.);
#619=ADVANCED_FACE('',(#58),#599,.F.);
#620=ADVANCED_FACE('',(#59,#21),#36,.T.);
#621=ADVANCED_FACE('',(#60),#600,.F.);
#622=ADVANCED_FACE('',(#61,#22),#37,.T.);
#623=ADVANCED_FACE('',(#62),#601,.F.);
#624=ADVANCED_FACE('',(#63,#23),#38,.T.);
#625=ADVANCED_FACE('',(#64),#602,.F.);
#626=ADVANCED_FACE('',(#65),#603,.F.);
#627=ADVANCED_FACE('',(#66),#604,.F.);
#628=ADVANCED_FACE('',(#67),#605,.F.);
#629=ADVANCED_FACE('',(#68,#24,#25,#26,#27,#28),#39,.F.);
#630=ADVANCED_FACE('',(#69,#29,#30,#31,#32,#33),#40,.T.);
#631=ADVANCED_FACE('',(#70),#41,.F.);
#632=ADVANCED_FACE('',(#71),#606,.F.);
#633=ADVANCED_FACE('',(#72),#42,.F.);
#634=ADVANCED_FACE('',(#73),#607,.F.);
#635=ADVANCED_FACE('',(#74),#43,.F.);
#636=ADVANCED_FACE('',(#75),#608,.F.);
#637=ADVANCED_FACE('',(#76),#44,.F.);
#638=ADVANCED_FACE('',(#77),#609,.F.);
#639=ADVANCED_FACE('',(#78),#45,.T.);
#640=ADVANCED_FACE('',(#79),#15,.T.);
#641=ADVANCED_FACE('',(#80),#46,.T.);
#642=ADVANCED_FACE('',(#81),#16,.T.);
#643=ADVANCED_FACE('',(#82),#17,.T.);
#644=ADVANCED_FACE('',(#83),#47,.T.);
#645=ADVANCED_FACE('',(#84),#18,.T.);
#646=ADVANCED_FACE('',(#85),#48,.T.);
#647=ADVANCED_FACE('',(#86),#49,.T.);
#648=ADVANCED_FACE('',(#87),#610,.T.);
#649=ADVANCED_FACE('',(#88),#50,.T.);
#650=ADVANCED_FACE('',(#89),#611,.T.);
#651=ADVANCED_FACE('',(#90),#51,.T.);
#652=ADVANCED_FACE('',(#91),#612,.T.);
#653=ADVANCED_FACE('',(#92),#52,.T.);
#654=ADVANCED_FACE('',(#93),#613,.T.);
#655=CLOSED_SHELL('',(#614,#615,#616,#617,#618,#619,#620,#621,#622,#623,
#624,#625,#626,#627,#628,#629,#630,#631,#632,#633,#634,#635,#636,#637,#638,
#639,#640,#641,#642,#643,#644,#645,#646,#647,#648,#649,#650,#651,#652,#653,
#654));
#656=DERIVED_UNIT_ELEMENT(#658,1.);
#657=DERIVED_UNIT_ELEMENT(#1137,-3.);
#658=(
MASS_UNIT()
NAMED_UNIT(*)
SI_UNIT(.KILO.,.GRAM.)
);
#659=DERIVED_UNIT((#656,#657));
#660=MEASURE_REPRESENTATION_ITEM('density measure',
POSITIVE_RATIO_MEASURE(7850.),#659);
#661=PROPERTY_DEFINITION_REPRESENTATION(#666,#663);
#662=PROPERTY_DEFINITION_REPRESENTATION(#667,#664);
#663=REPRESENTATION('material name',(#665),#1134);
#664=REPRESENTATION('density',(#660),#1134);
#665=DESCRIPTIVE_REPRESENTATION_ITEM('Steel','Steel');
#666=PROPERTY_DEFINITION('material property','material name',#1144);
#667=PROPERTY_DEFINITION('material property','density of part',#1144);
#668=AXIS2_PLACEMENT_3D('',#952,#746,#747);
#669=AXIS2_PLACEMENT_3D('',#953,#748,#749);
#670=AXIS2_PLACEMENT_3D('',#955,#750,#751);
#671=AXIS2_PLACEMENT_3D('',#958,#753,#754);
#672=AXIS2_PLACEMENT_3D('',#959,#755,#756);
#673=AXIS2_PLACEMENT_3D('',#961,#757,#758);
#674=AXIS2_PLACEMENT_3D('',#962,#759,#760);
#675=AXIS2_PLACEMENT_3D('',#964,#761,#762);
#676=AXIS2_PLACEMENT_3D('',#966,#764,#765);
#677=AXIS2_PLACEMENT_3D('',#968,#766,#767);
#678=AXIS2_PLACEMENT_3D('',#971,#769,#770);
#679=AXIS2_PLACEMENT_3D('',#972,#771,#772);
#680=AXIS2_PLACEMENT_3D('',#974,#773,#774);
#681=AXIS2_PLACEMENT_3D('',#975,#775,#776);
#682=AXIS2_PLACEMENT_3D('',#977,#777,#778);
#683=AXIS2_PLACEMENT_3D('',#980,#780,#781);
#684=AXIS2_PLACEMENT_3D('',#981,#782,#783);
#685=AXIS2_PLACEMENT_3D('',#983,#784,#785);
#686=AXIS2_PLACEMENT_3D('',#984,#786,#787);
#687=AXIS2_PLACEMENT_3D('',#986,#788,#789);
#688=AXIS2_PLACEMENT_3D('',#989,#791,#792);
#689=AXIS2_PLACEMENT_3D('',#990,#793,#794);
#690=AXIS2_PLACEMENT_3D('',#992,#795,#796);
#691=AXIS2_PLACEMENT_3D('',#993,#797,#798);
#692=AXIS2_PLACEMENT_3D('',#995,#799,#800);
#693=AXIS2_PLACEMENT_3D('',#998,#802,#803);
#694=AXIS2_PLACEMENT_3D('',#999,#804,#805);
#695=AXIS2_PLACEMENT_3D('',#1001,#806,#807);
#696=AXIS2_PLACEMENT_3D('',#1002,#808,#809);
#697=AXIS2_PLACEMENT_3D('',#1004,#810,#811);
#698=AXIS2_PLACEMENT_3D('',#1006,#813,#814);
#699=AXIS2_PLACEMENT_3D('',#1008,#815,#816);
#700=AXIS2_PLACEMENT_3D('',#1010,#818,#819);
#701=AXIS2_PLACEMENT_3D('',#1012,#820,#821);
#702=AXIS2_PLACEMENT_3D('',#1014,#823,#824);
#703=AXIS2_PLACEMENT_3D('',#1016,#825,#826);
#704=AXIS2_PLACEMENT_3D('',#1018,#828,#829);
#705=AXIS2_PLACEMENT_3D('',#1021,#830,#831);
#706=AXIS2_PLACEMENT_3D('',#1025,#833,#834);
#707=AXIS2_PLACEMENT_3D('',#1029,#836,#837);
#708=AXIS2_PLACEMENT_3D('',#1033,#839,#840);
#709=AXIS2_PLACEMENT_3D('',#1035,#842,#843);
#710=AXIS2_PLACEMENT_3D('',#1038,#844,#845);
#711=AXIS2_PLACEMENT_3D('',#1042,#847,#848);
#712=AXIS2_PLACEMENT_3D('',#1046,#850,#851);
#713=AXIS2_PLACEMENT_3D('',#1050,#853,#854);
#714=AXIS2_PLACEMENT_3D('',#1052,#856,#857);
#715=AXIS2_PLACEMENT_3D('',#1058,#861,#862);
#716=AXIS2_PLACEMENT_3D('',#1060,#863,#864);
#717=AXIS2_PLACEMENT_3D('',#1062,#866,#867);
#718=AXIS2_PLACEMENT_3D('',#1066,#870,#871);
#719=AXIS2_PLACEMENT_3D('',#1068,#872,#873);
#720=AXIS2_PLACEMENT_3D('',#1070,#875,#876);
#721=AXIS2_PLACEMENT_3D('',#1074,#879,#880);
#722=AXIS2_PLACEMENT_3D('',#1076,#881,#882);
#723=AXIS2_PLACEMENT_3D('',#1078,#884,#885);
#724=AXIS2_PLACEMENT_3D('',#1082,#888,#889);
#725=AXIS2_PLACEMENT_3D('',#1083,#890,#891);
#726=AXIS2_PLACEMENT_3D('',#1084,#892,#893);
#727=AXIS2_PLACEMENT_3D('',#1090,#897,#898);
#728=AXIS2_PLACEMENT_3D('',#1093,#900,#901);
#729=AXIS2_PLACEMENT_3D('',#1094,#902,#903);
#730=AXIS2_PLACEMENT_3D('',#1098,#906,#907);
#731=AXIS2_PLACEMENT_3D('',#1101,#909,#910);
#732=AXIS2_PLACEMENT_3D('',#1102,#911,#912);
#733=AXIS2_PLACEMENT_3D('',#1104,#913,#914);
#734=AXIS2_PLACEMENT_3D('',#1106,#916,#917);
#735=AXIS2_PLACEMENT_3D('',#1110,#920,#921);
#736=AXIS2_PLACEMENT_3D('',#1112,#922,#923);
#737=AXIS2_PLACEMENT_3D('',#1114,#925,#926);
#738=AXIS2_PLACEMENT_3D('',#1116,#928,#929);
#739=AXIS2_PLACEMENT_3D('',#1119,#932,#933);
#740=AXIS2_PLACEMENT_3D('',#1121,#935,#936);
#741=AXIS2_PLACEMENT_3D('',#1123,#938,#939);
#742=AXIS2_PLACEMENT_3D('',#1125,#941,#942);
#743=AXIS2_PLACEMENT_3D('',#1128,#945,#946);
#744=AXIS2_PLACEMENT_3D('',#1129,#947,#948);
#745=AXIS2_PLACEMENT_3D('',#1131,#950,#951);
#746=DIRECTION('axis',(0.,0.,1.));
#747=DIRECTION('refdir',(1.,0.,0.));
#748=DIRECTION('center_axis',(0.,1.,0.));
#749=DIRECTION('ref_axis',(1.,0.,0.));
#750=DIRECTION('center_axis',(2.43086534291451E-63,1.,-2.15904213877361E-78));
#751=DIRECTION('ref_axis',(1.,0.,0.));
#752=DIRECTION('',(0.,1.,0.));
#753=DIRECTION('center_axis',(1.13313887494514E-218,1.,0.));
#754=DIRECTION('ref_axis',(1.,0.,0.));
#755=DIRECTION('center_axis',(-1.13313887494514E-218,-1.,0.));
#756=DIRECTION('ref_axis',(1.,-1.13313887494514E-218,0.));
#757=DIRECTION('center_axis',(1.13313887494514E-218,1.,0.));
#758=DIRECTION('ref_axis',(1.,0.,0.));
#759=DIRECTION('center_axis',(0.,-1.,0.));
#760=DIRECTION('ref_axis',(1.,0.,0.));
#761=DIRECTION('center_axis',(2.43086534291451E-63,1.,-2.15904213877361E-78));
#762=DIRECTION('ref_axis',(1.,0.,0.));
#763=DIRECTION('',(0.,-1.,0.));
#764=DIRECTION('center_axis',(0.,1.,0.));
#765=DIRECTION('ref_axis',(1.,0.,0.));
#766=DIRECTION('center_axis',(2.43086534291451E-63,1.,-2.15904213877361E-78));
#767=DIRECTION('ref_axis',(1.,0.,0.));
#768=DIRECTION('',(0.,1.,0.));
#769=DIRECTION('center_axis',(0.,1.,0.));
#770=DIRECTION('ref_axis',(1.,0.,0.));
#771=DIRECTION('center_axis',(0.,-1.,0.));
#772=DIRECTION('ref_axis',(1.,0.,0.));
#773=DIRECTION('center_axis',(0.,-1.,0.));
#774=DIRECTION('ref_axis',(1.,0.,0.));
#775=DIRECTION('center_axis',(0.,1.,0.));
#776=DIRECTION('ref_axis',(1.,0.,0.));
#777=DIRECTION('center_axis',(2.43086534291451E-63,1.,-2.15904213877361E-78));
#778=DIRECTION('ref_axis',(1.,0.,0.));
#779=DIRECTION('',(0.,1.,0.));
#780=DIRECTION('center_axis',(0.,1.,0.));
#781=DIRECTION('ref_axis',(1.,0.,0.));
#782=DIRECTION('center_axis',(0.,-1.,0.));
#783=DIRECTION('ref_axis',(1.,0.,0.));
#784=DIRECTION('center_axis',(0.,-1.,0.));
#785=DIRECTION('ref_axis',(1.,0.,0.));
#786=DIRECTION('center_axis',(0.,1.,0.));
#787=DIRECTION('ref_axis',(1.,0.,0.));
#788=DIRECTION('center_axis',(2.43086534291451E-63,1.,-2.15904213877361E-78));
#789=DIRECTION('ref_axis',(1.,0.,0.));
#790=DIRECTION('',(0.,1.,0.));
#791=DIRECTION('center_axis',(0.,1.,0.));
#792=DIRECTION('ref_axis',(1.,0.,0.));
#793=DIRECTION('center_axis',(0.,-1.,0.));
#794=DIRECTION('ref_axis',(1.,0.,0.));
#795=DIRECTION('center_axis',(0.,-1.,0.));
#796=DIRECTION('ref_axis',(1.,0.,0.));
#797=DIRECTION('center_axis',(0.,1.,0.));
#798=DIRECTION('ref_axis',(1.,0.,0.));
#799=DIRECTION('center_axis',(2.43086534291451E-63,1.,-2.15904213877361E-78));
#800=DIRECTION('ref_axis',(1.,0.,0.));
#801=DIRECTION('',(0.,1.,0.));
#802=DIRECTION('center_axis',(0.,1.,0.));
#803=DIRECTION('ref_axis',(1.,0.,0.));
#804=DIRECTION('center_axis',(0.,-1.,0.));
#805=DIRECTION('ref_axis',(1.,0.,0.));
#806=DIRECTION('center_axis',(0.,-1.,0.));
#807=DIRECTION('ref_axis',(1.,0.,0.));
#808=DIRECTION('center_axis',(0.,-1.,0.));
#809=DIRECTION('ref_axis',(1.,0.,0.));
#810=DIRECTION('center_axis',(-2.43086534291451E-63,-1.,2.15904213877361E-78));
#811=DIRECTION('ref_axis',(1.,0.,0.));
#812=DIRECTION('',(0.,-1.,0.));
#813=DIRECTION('center_axis',(0.,-1.,0.));
#814=DIRECTION('ref_axis',(1.,0.,0.));
#815=DIRECTION('center_axis',(-2.43086534291451E-63,-1.,2.15904213877361E-78));
#816=DIRECTION('ref_axis',(1.,0.,0.));
#817=DIRECTION('',(0.,-1.,0.));
#818=DIRECTION('center_axis',(0.,-1.,0.));
#819=DIRECTION('ref_axis',(1.,0.,0.));
#820=DIRECTION('center_axis',(-2.43086534291451E-63,-1.,2.15904213877361E-78));
#821=DIRECTION('ref_axis',(1.,0.,0.));
#822=DIRECTION('',(0.,-1.,0.));
#823=DIRECTION('center_axis',(0.,-1.,0.));
#824=DIRECTION('ref_axis',(1.,0.,0.));
#825=DIRECTION('center_axis',(-2.43086534291451E-63,-1.,2.15904213877361E-78));
#826=DIRECTION('ref_axis',(1.,0.,0.));
#827=DIRECTION('',(0.,-1.,0.));
#828=DIRECTION('center_axis',(-2.43086534291451E-63,-1.,2.15904213877361E-78));
#829=DIRECTION('ref_axis',(1.,-2.43086534291451E-63,0.));
#830=DIRECTION('center_axis',(0.,1.,0.));
#831=DIRECTION('ref_axis',(-1.03276560430247E-15,0.,-1.));
#832=DIRECTION('',(3.55271367880051E-16,4.06376873496745E-92,1.));
#833=DIRECTION('center_axis',(1.60911273023564E-108,1.,-1.66183628123261E-123));
#834=DIRECTION('ref_axis',(-1.,1.60911273023564E-108,1.03276560430247E-15));
#835=DIRECTION('',(1.,-5.75293181952797E-109,3.5527136788005E-16));
#836=DIRECTION('center_axis',(-4.79375850355558E-124,1.,-6.1888951162909E-109));
#837=DIRECTION('ref_axis',(7.74574203226852E-16,6.1888951162909E-109,1.));
#838=DIRECTION('',(-3.5527136788005E-16,-6.03347043657972E-94,-1.));
#839=DIRECTION('center_axis',(-1.05211216976945E-108,1.,-5.43292630402967E-124));
#840=DIRECTION('ref_axis',(1.,1.05211216976945E-108,5.16382802151235E-16));
#841=DIRECTION('',(-1.,1.95645862196007E-109,0.));
#842=DIRECTION('center_axis',(-2.43086534291451E-63,-1.,2.15904213877361E-78));
#843=DIRECTION('ref_axis',(1.,-2.43086534291451E-63,0.));
#844=DIRECTION('center_axis',(6.13892710497138E-109,-1.,9.40007173961727E-94));
#845=DIRECTION('ref_axis',(6.53072367426562E-16,9.40007173961727E-94,1.));
#846=DIRECTION('',(-5.32907051820076E-16,7.15597656431548E-94,-1.));
#847=DIRECTION('center_axis',(-2.08723521569027E-109,-1.,1.27224126744114E-123));
#848=DIRECTION('ref_axis',(-1.,2.08723521569027E-109,6.09534209598124E-15));
#849=DIRECTION('',(1.,6.37033281979808E-78,0.));
#850=DIRECTION('center_axis',(0.,-1.,0.));
#851=DIRECTION('ref_axis',(4.35381578284375E-16,0.,-1.));
#852=DIRECTION('',(5.32907051820075E-16,1.05234949475228E-93,1.));
#853=DIRECTION('center_axis',(1.41001076094259E-93,-1.,-9.20839065745706E-109));
#854=DIRECTION('ref_axis',(1.,1.41001076094259E-93,-6.53072367426562E-16));
#855=DIRECTION('',(-1.,3.83522926976386E-94,0.));
#856=DIRECTION('center_axis',(-3.5527136788005E-16,0.,1.));
#857=DIRECTION('ref_axis',(1.,-5.75293181952797E-109,3.5527136788005E-16));
#858=DIRECTION('',(-1.,3.5527136788005E-16,-3.5527136788005E-16));
#859=DIRECTION('',(0.,1.,0.));
#860=DIRECTION('',(0.,1.,0.));
#861=DIRECTION('center_axis',(0.,1.,0.));
#862=DIRECTION('ref_axis',(-1.,0.,1.03276560430247E-15));
#863=DIRECTION('center_axis',(0.,-1.,0.));
#864=DIRECTION('ref_axis',(-1.,0.,1.03276560430247E-15));
#865=DIRECTION('',(0.,1.,0.));
#866=DIRECTION('center_axis',(-1.,0.,3.55271367880051E-16));
#867=DIRECTION('ref_axis',(3.55271367880051E-16,4.06376873496745E-92,1.));
#868=DIRECTION('',(-3.55271367880051E-16,1.77635683940025E-16,-1.));
#869=DIRECTION('',(0.,1.,0.));
#870=DIRECTION('center_axis',(0.,1.,0.));
#871=DIRECTION('ref_axis',(-1.03276560430247E-15,0.,-1.));
#872=DIRECTION('center_axis',(0.,-1.,0.));
#873=DIRECTION('ref_axis',(-1.03276560430247E-15,0.,-1.));
#874=DIRECTION('',(0.,1.,0.));
#875=DIRECTION('center_axis',(0.,0.,-1.));
#876=DIRECTION('ref_axis',(-1.,1.95645862196007E-109,0.));
#877=DIRECTION('',(1.,-2.08723521569027E-109,0.));
#878=DIRECTION('',(0.,1.,0.));
#879=DIRECTION('center_axis',(0.,1.,0.));
#880=DIRECTION('ref_axis',(1.,0.,5.16382802151235E-16));
#881=DIRECTION('center_axis',(0.,-1.,0.));
#882=DIRECTION('ref_axis',(1.,0.,5.16382802151235E-16));
#883=DIRECTION('',(0.,1.,0.));
#884=DIRECTION('center_axis',(1.,0.,-3.5527136788005E-16));
#885=DIRECTION('ref_axis',(-3.5527136788005E-16,-6.03347043657972E-94,-1.));
#886=DIRECTION('',(3.5527136788005E-16,1.77635683940025E-16,1.));
#887=DIRECTION('',(0.,1.,0.));
#888=DIRECTION('center_axis',(0.,1.,0.));
#889=DIRECTION('ref_axis',(7.74574203226852E-16,0.,1.));
#890=DIRECTION('center_axis',(0.,-1.,0.));
#891=DIRECTION('ref_axis',(7.74574203226852E-16,0.,1.));
#892=DIRECTION('center_axis',(1.47589817494595E-109,0.707106781186548,0.707106781186548));
#893=DIRECTION('ref_axis',(1.,0.,-2.08723521569027E-109));
#894=DIRECTION('',(0.,0.707106781186548,-0.707106781186548));
#895=DIRECTION('',(1.,-2.08723521569027E-109,0.));
#896=DIRECTION('',(0.,-0.707106781186548,0.707106781186547));
#897=DIRECTION('center_axis',(0.,-1.,0.));
#898=DIRECTION('ref_axis',(6.53072367426563E-16,4.9691491802144E-124,1.));
#899=DIRECTION('',(0.707106781186548,0.707106781186547,-7.85046229341886E-16));
#900=DIRECTION('center_axis',(2.08723521569027E-109,1.,-1.25134016090461E-123));
#901=DIRECTION('ref_axis',(6.53072367426562E-16,0.,1.));
#902=DIRECTION('center_axis',(-0.707106781186548,0.707106781186548,3.76822190084106E-16));
#903=DIRECTION('ref_axis',(5.32907051820076E-16,0.,1.));
#904=DIRECTION('',(0.707106781186548,0.707106781186548,-7.85046229341887E-16));
#905=DIRECTION('',(5.32907051820076E-16,1.14010992437975E-123,1.));
#906=DIRECTION('center_axis',(0.,-1.,0.));
#907=DIRECTION('ref_axis',(-1.,9.30180911340228E-110,6.09534209598124E-15));
#908=DIRECTION('',(7.85046229341887E-16,0.707106781186547,0.707106781186547));
#909=DIRECTION('center_axis',(2.08723521569027E-109,1.,-1.25134016090461E-123));
#910=DIRECTION('ref_axis',(-1.,0.,6.09534209598124E-15));
#911=DIRECTION('center_axis',(0.,-1.,0.));
#912=DIRECTION('ref_axis',(1.,-9.30180911340228E-110,-6.53072367426562E-16));
#913=DIRECTION('center_axis',(2.08723521569027E-109,1.,-1.25134016090461E-123));
#914=DIRECTION('ref_axis',(1.,0.,-6.53072367426562E-16));
#915=DIRECTION('',(-0.707106781186547,0.707106781186547,-7.85046229341887E-16));
#916=DIRECTION('center_axis',(0.707106781186548,0.707106781186548,-3.76822190084106E-16));
#917=DIRECTION('ref_axis',(-5.32907051820075E-16,0.,-1.));
#918=DIRECTION('',(-5.32907051820075E-16,-1.14010992437975E-123,-1.));
#919=DIRECTION('',(-0.707106781186547,0.707106781186548,-1.57009245868378E-15));
#920=DIRECTION('center_axis',(0.,-1.,0.));
#921=DIRECTION('ref_axis',(4.35381578284375E-16,-5.98160826338766E-124,
-1.));
#922=DIRECTION('center_axis',(2.08723521569027E-109,1.,-1.25134016090461E-123));
#923=DIRECTION('ref_axis',(4.35381578284375E-16,0.,-1.));
#924=DIRECTION('',(7.85046229341887E-16,0.707106781186547,0.707106781186547));
#925=DIRECTION('center_axis',(1.47589817494595E-109,0.707106781186548,-0.707106781186548));
#926=DIRECTION('ref_axis',(-1.,0.,-2.08723521569027E-109));
#927=DIRECTION('',(-1.,2.08723521569027E-109,0.));
#928=DIRECTION('center_axis',(0.,0.,-1.));
#929=DIRECTION('ref_axis',(-1.,-6.37033281979808E-78,0.));
#930=DIRECTION('',(0.,-1.,0.));
#931=DIRECTION('',(0.,-1.,0.));
#932=DIRECTION('center_axis',(0.,1.,0.));
#933=DIRECTION('ref_axis',(4.35381578284375E-16,0.,-1.));
#934=DIRECTION('',(0.,-1.,0.));
#935=DIRECTION('center_axis',(1.,0.,-5.32907051820075E-16));
#936=DIRECTION('ref_axis',(-5.32907051820075E-16,-1.05234949475228E-93,
-1.));
#937=DIRECTION('',(0.,-1.,0.));
#938=DIRECTION('center_axis',(0.,1.,0.));
#939=DIRECTION('ref_axis',(1.,0.,-6.53072367426562E-16));
#940=DIRECTION('',(0.,-1.,0.));
#941=DIRECTION('center_axis',(-1.,0.,5.32907051820076E-16));
#942=DIRECTION('ref_axis',(5.32907051820076E-16,-7.15597656431548E-94,1.));
#943=DIRECTION('',(0.,-1.,0.));
#944=DIRECTION('',(0.,-1.,0.));
#945=DIRECTION('center_axis',(0.,1.,0.));
#946=DIRECTION('ref_axis',(-1.,0.,6.09534209598124E-15));
#947=DIRECTION('center_axis',(0.,0.,1.));
#948=DIRECTION('ref_axis',(1.,-3.83522926976386E-94,0.));
#949=DIRECTION('',(0.,1.,0.));
#950=DIRECTION('center_axis',(0.,1.,0.));
#951=DIRECTION('ref_axis',(6.53072367426562E-16,0.,1.));
#952=CARTESIAN_POINT('',(0.,0.,0.));
#953=CARTESIAN_POINT('Origin',(-1.77635683940025E-14,-36.5116666666667,
-7.88302268901892E-77));
#954=CARTESIAN_POINT('',(-15.1,-36.5116666666667,1.8492166667125E-15));
#955=CARTESIAN_POINT('Origin',(-1.77635683940025E-14,-36.5116666666667,
-7.88302268901892E-77));
#956=CARTESIAN_POINT('',(-15.1,-34.5116666666667,1.8492166667125E-15));
#957=CARTESIAN_POINT('',(-15.1,-36.5116666666667,1.8492166667125E-15));
#958=CARTESIAN_POINT('Origin',(-1.77635683940025E-14,-34.5116666666667,
-7.88302268901892E-77));
#959=CARTESIAN_POINT('Origin',(-1.77635683940025E-14,-34.5116666666667,
0.));
#960=CARTESIAN_POINT('',(-3.00000005960464,-34.5116666666667,3.6739404704367E-16));
#961=CARTESIAN_POINT('Origin',(0.,-34.5116666666667,0.));
#962=CARTESIAN_POINT('Origin',(0.,-36.5116666666667,0.));
#963=CARTESIAN_POINT('',(-3.00000005960464,-28.5116666666667,3.6739404704367E-16));
#964=CARTESIAN_POINT('Origin',(0.,-28.5116666666667,0.));
#965=CARTESIAN_POINT('',(-3.00000005960464,-36.5116666666667,-3.6739404704367E-16));
#966=CARTESIAN_POINT('Origin',(-15.8234018715768,-36.5116666666667,-15.8234018715768));
#967=CARTESIAN_POINT('',(-18.5734018715768,-36.5116666666667,-15.8234018715768));
#968=CARTESIAN_POINT('Origin',(-15.8234018715768,-36.5116666666667,-15.8234018715768));
#969=CARTESIAN_POINT('',(-18.5734018715768,-33.5116666666667,-15.8234018715768));
#970=CARTESIAN_POINT('',(-18.5734018715768,-36.5116666666667,-15.8234018715768));
#971=CARTESIAN_POINT('Origin',(-15.8234018715768,-33.5116666666667,-15.8234018715768));
#972=CARTESIAN_POINT('Origin',(-15.8234018715768,-33.5116666666667,-15.8234018715768));
#973=CARTESIAN_POINT('',(-18.0484018715768,-33.5116666666667,-15.8234018715768));
#974=CARTESIAN_POINT('Origin',(-15.8234018715768,-33.5116666666667,-15.8234018715768));
#975=CARTESIAN_POINT('Origin',(-15.8234018715768,-36.5116666666667,15.8234018715768));
#976=CARTESIAN_POINT('',(-18.5734018715768,-36.5116666666667,15.8234018715768));
#977=CARTESIAN_POINT('Origin',(-15.8234018715768,-36.5116666666667,15.8234018715768));
#978=CARTESIAN_POINT('',(-18.5734018715768,-33.5116666666667,15.8234018715768));
#979=CARTESIAN_POINT('',(-18.5734018715768,-36.5116666666667,15.8234018715768));
#980=CARTESIAN_POINT('Origin',(-15.8234018715768,-33.5116666666667,15.8234018715768));
#981=CARTESIAN_POINT('Origin',(-15.8234018715768,-33.5116666666667,15.8234018715768));
#982=CARTESIAN_POINT('',(-18.0484018715768,-33.5116666666667,15.8234018715768));
#983=CARTESIAN_POINT('Origin',(-15.8234018715768,-33.5116666666667,15.8234018715768));
#984=CARTESIAN_POINT('Origin',(15.8234018715768,-36.5116666666667,-15.8234018715768));
#985=CARTESIAN_POINT('',(13.0734018715768,-36.5116666666667,-15.8234018715768));
#986=CARTESIAN_POINT('Origin',(15.8234018715768,-36.5116666666667,-15.8234018715768));
#987=CARTESIAN_POINT('',(13.0734018715768,-33.5116666666667,-15.8234018715768));
#988=CARTESIAN_POINT('',(13.0734018715768,-36.5116666666667,-15.8234018715768));
#989=CARTESIAN_POINT('Origin',(15.8234018715768,-33.5116666666667,-15.8234018715768));
#990=CARTESIAN_POINT('Origin',(15.8234018715768,-33.5116666666667,-15.8234018715768));
#991=CARTESIAN_POINT('',(13.5984018715768,-33.5116666666667,-15.8234018715768));
#992=CARTESIAN_POINT('Origin',(15.8234018715768,-33.5116666666667,-15.8234018715768));
#993=CARTESIAN_POINT('Origin',(15.8234018715768,-36.5116666666667,15.8234018715768));
#994=CARTESIAN_POINT('',(13.0734018715768,-36.5116666666667,15.8234018715768));
#995=CARTESIAN_POINT('Origin',(15.8234018715768,-36.5116666666667,15.8234018715768));
#996=CARTESIAN_POINT('',(13.0734018715768,-33.5116666666667,15.8234018715768));
#997=CARTESIAN_POINT('',(13.0734018715768,-36.5116666666667,15.8234018715768));
#998=CARTESIAN_POINT('Origin',(15.8234018715768,-33.5116666666667,15.8234018715768));
#999=CARTESIAN_POINT('Origin',(15.8234018715768,-33.5116666666667,15.8234018715768));
#1000=CARTESIAN_POINT('',(13.5984018715768,-33.5116666666667,15.8234018715768));
#1001=CARTESIAN_POINT('Origin',(15.8234018715768,-33.5116666666667,15.8234018715768));
#1002=CARTESIAN_POINT('Origin',(15.8234018715768,-28.5116666666667,15.8234018715768));
#1003=CARTESIAN_POINT('',(13.5984018715768,-28.5116666666667,15.8234018715768));
#1004=CARTESIAN_POINT('Origin',(15.8234018715768,-28.5116666666667,15.8234018715768));
#1005=CARTESIAN_POINT('',(13.5984018715768,-28.5116666666667,15.8234018715768));
#1006=CARTESIAN_POINT('Origin',(-15.8234018715768,-28.5116666666667,-15.8234018715768));
#1007=CARTESIAN_POINT('',(-18.0484018715768,-28.5116666666667,-15.8234018715768));
#1008=CARTESIAN_POINT('Origin',(-15.8234018715768,-28.5116666666667,-15.8234018715768));
#1009=CARTESIAN_POINT('',(-18.0484018715768,-28.5116666666667,-15.8234018715768));
#1010=CARTESIAN_POINT('Origin',(15.8234018715768,-28.5116666666667,-15.8234018715768));
#1011=CARTESIAN_POINT('',(13.5984018715768,-28.5116666666667,-15.8234018715768));
#1012=CARTESIAN_POINT('Origin',(15.8234018715768,-28.5116666666667,-15.8234018715768));
#1013=CARTESIAN_POINT('',(13.5984018715768,-28.5116666666667,-15.8234018715768));
#1014=CARTESIAN_POINT('Origin',(-15.8234018715768,-28.5116666666667,15.8234018715768));
#1015=CARTESIAN_POINT('',(-18.0484018715768,-28.5116666666667,15.8234018715768));
#1016=CARTESIAN_POINT('Origin',(-15.8234018715768,-28.5116666666667,15.8234018715768));
#1017=CARTESIAN_POINT('',(-18.0484018715768,-28.5116666666667,15.8234018715768));
#1018=CARTESIAN_POINT('Origin',(8.88178419700125E-15,-28.5116666666667,
2.42273358930699E-125));
#1019=CARTESIAN_POINT('',(-12.5,-28.5116666666667,-21.1));
#1020=CARTESIAN_POINT('',(-21.1,-28.5116666666667,-12.4999999999999));
#1021=CARTESIAN_POINT('Origin',(-12.5,-28.5116666666667,-12.5));
#1022=CARTESIAN_POINT('',(-21.1,-28.5116666666667,12.5));
#1023=CARTESIAN_POINT('',(-21.1,-28.5116666666667,-12.4999999999999));
#1024=CARTESIAN_POINT('',(-12.5,-28.5116666666667,21.1));
#1025=CARTESIAN_POINT('Origin',(-12.5,-28.5116666666667,12.5));
#1026=CARTESIAN_POINT('',(12.5,-28.5116666666667,21.1));
#1027=CARTESIAN_POINT('',(-12.5,-28.5116666666667,21.1));
#1028=CARTESIAN_POINT('',(21.1,-28.5116666666667,12.5));
#1029=CARTESIAN_POINT('Origin',(12.5,-28.5116666666667,12.5));
#1030=CARTESIAN_POINT('',(21.1,-28.5116666666667,-12.5));
#1031=CARTESIAN_POINT('',(21.1,-28.5116666666667,12.5));
#1032=CARTESIAN_POINT('',(12.5,-28.5116666666667,-21.1));
#1033=CARTESIAN_POINT('Origin',(12.5,-28.5116666666667,-12.5));
#1034=CARTESIAN_POINT('',(12.5,-28.5116666666667,-21.1));
#1035=CARTESIAN_POINT('Origin',(8.88178419700125E-15,-36.5116666666667,
2.42273358930699E-125));
#1036=CARTESIAN_POINT('',(-12.5,-36.5116666666667,22.7));
#1037=CARTESIAN_POINT('',(-22.7,-36.5116666666667,12.5));
#1038=CARTESIAN_POINT('Origin',(-12.5,-36.5116666666667,12.5));
#1039=CARTESIAN_POINT('',(-22.7,-36.5116666666667,-12.4999999999999));
#1040=CARTESIAN_POINT('',(-22.7,-36.5116666666667,12.5));
#1041=CARTESIAN_POINT('',(-12.5,-36.5116666666667,-22.7));
#1042=CARTESIAN_POINT('Origin',(-12.5,-36.5116666666667,-12.5));
#1043=CARTESIAN_POINT('',(12.5,-36.5116666666667,-22.7));
#1044=CARTESIAN_POINT('',(-12.5,-36.5116666666667,-22.7));
#1045=CARTESIAN_POINT('',(22.7,-36.5116666666667,-12.5));
#1046=CARTESIAN_POINT('Origin',(12.5,-36.5116666666667,-12.5));
#1047=CARTESIAN_POINT('',(22.7,-36.5116666666667,12.5));
#1048=CARTESIAN_POINT('',(22.7,-36.5116666666667,-12.5));
#1049=CARTESIAN_POINT('',(12.5,-36.5116666666667,22.7));
#1050=CARTESIAN_POINT('Origin',(12.5,-36.5116666666667,12.5));
#1051=CARTESIAN_POINT('',(12.5,-36.5116666666667,22.7));
#1052=CARTESIAN_POINT('Origin',(-12.5,-28.5116666666667,21.1));
#1053=CARTESIAN_POINT('',(12.5,-24.9116666666667,21.1));
#1054=CARTESIAN_POINT('',(-12.5,-24.9116666666667,21.1));
#1055=CARTESIAN_POINT('',(-9.37499999999999,-24.9116666666667,21.1));
#1056=CARTESIAN_POINT('',(12.5,-28.5116666666667,21.1));
#1057=CARTESIAN_POINT('',(-12.5,-28.5116666666667,21.1));
#1058=CARTESIAN_POINT('Origin',(-12.5,-28.5116666666667,12.5));
#1059=CARTESIAN_POINT('',(-21.1,-24.9116666666667,12.5));
#1060=CARTESIAN_POINT('Origin',(-12.5,-24.9116666666667,12.5));
#1061=CARTESIAN_POINT('',(-21.1,-28.5116666666667,12.5));
#1062=CARTESIAN_POINT('Origin',(-21.1,-28.5116666666667,-12.4999999999999));
#1063=CARTESIAN_POINT('',(-21.1,-24.9116666666667,-12.4999999999999));
#1064=CARTESIAN_POINT('',(-21.1,-24.9116666666667,-9.37499999999996));
#1065=CARTESIAN_POINT('',(-21.1,-28.5116666666667,-12.4999999999999));
#1066=CARTESIAN_POINT('Origin',(-12.5,-28.5116666666667,-12.5));
#1067=CARTESIAN_POINT('',(-12.5,-24.9116666666667,-21.1));
#1068=CARTESIAN_POINT('Origin',(-12.5,-24.9116666666667,-12.5));
#1069=CARTESIAN_POINT('',(-12.5,-28.5116666666667,-21.1));
#1070=CARTESIAN_POINT('Origin',(12.5,-28.5116666666667,-21.1));
#1071=CARTESIAN_POINT('',(12.5,-24.9116666666667,-21.1));
#1072=CARTESIAN_POINT('',(9.375,-24.9116666666667,-21.1));
#1073=CARTESIAN_POINT('',(12.5,-28.5116666666667,-21.1));
#1074=CARTESIAN_POINT('Origin',(12.5,-28.5116666666667,-12.5));
#1075=CARTESIAN_POINT('',(21.1,-24.9116666666667,-12.5));
#1076=CARTESIAN_POINT('Origin',(12.5,-24.9116666666667,-12.5));
#1077=CARTESIAN_POINT('',(21.1,-28.5116666666667,-12.5));
#1078=CARTESIAN_POINT('Origin',(21.1,-28.5116666666667,12.5));
#1079=CARTESIAN_POINT('',(21.1,-24.9116666666667,12.5));
#1080=CARTESIAN_POINT('',(21.1,-24.9116666666667,9.375));
#1081=CARTESIAN_POINT('',(21.1,-28.5116666666667,12.5));
#1082=CARTESIAN_POINT('Origin',(12.5,-28.5116666666667,12.5));
#1083=CARTESIAN_POINT('Origin',(12.5,-24.9116666666667,12.5));
#1084=CARTESIAN_POINT('Origin',(-6.24999999999999,-25.5116666666667,21.7));
#1085=CARTESIAN_POINT('',(-12.5,-26.5116666666667,22.7));
#1086=CARTESIAN_POINT('',(-12.5,-26.5116666666667,22.7));
#1087=CARTESIAN_POINT('',(12.5,-26.5116666666667,22.7));
#1088=CARTESIAN_POINT('',(-6.24999999999999,-26.5116666666667,22.7));
#1089=CARTESIAN_POINT('',(12.5,-24.5116666666667,20.7));
#1090=CARTESIAN_POINT('Origin',(-12.5,-25.5116666666667,12.5));
#1091=CARTESIAN_POINT('',(-22.7,-26.5116666666667,12.5));
#1092=CARTESIAN_POINT('',(-22.7,-26.5116666666667,12.5));
#1093=CARTESIAN_POINT('Origin',(-12.5,-26.5116666666667,12.5));
#1094=CARTESIAN_POINT('Origin',(-21.7,-25.5116666666667,-6.24999999999997));
#1095=CARTESIAN_POINT('',(-22.7,-26.5116666666667,-12.4999999999999));
#1096=CARTESIAN_POINT('',(-22.7,-26.5116666666667,-12.4999999999999));
#1097=CARTESIAN_POINT('',(-22.7,-26.5116666666667,-6.24999999999997));
#1098=CARTESIAN_POINT('Origin',(-12.5,-25.5116666666667,-12.5));
#1099=CARTESIAN_POINT('',(-12.5,-26.5116666666667,-22.7));
#1100=CARTESIAN_POINT('',(-12.5,-26.5116666666667,-22.7));
#1101=CARTESIAN_POINT('Origin',(-12.5,-26.5116666666667,-12.5));
#1102=CARTESIAN_POINT('Origin',(12.5,-25.5116666666667,12.5));
#1103=CARTESIAN_POINT('',(22.7,-26.5116666666667,12.5));
#1104=CARTESIAN_POINT('Origin',(12.5,-26.5116666666667,12.5));
#1105=CARTESIAN_POINT('',(22.7,-26.5116666666667,12.5));
#1106=CARTESIAN_POINT('Origin',(21.7,-25.5116666666667,6.25));
#1107=CARTESIAN_POINT('',(22.7,-26.5116666666667,-12.5));
#1108=CARTESIAN_POINT('',(22.7,-26.5116666666667,6.25));
#1109=CARTESIAN_POINT('',(22.7,-26.5116666666667,-12.5));
#1110=CARTESIAN_POINT('Origin',(12.5,-25.5116666666667,-12.5));
#1111=CARTESIAN_POINT('',(12.5,-26.5116666666667,-22.7));
#1112=CARTESIAN_POINT('Origin',(12.5,-26.5116666666667,-12.5));
#1113=CARTESIAN_POINT('',(12.5,-26.5116666666667,-22.7));
#1114=CARTESIAN_POINT('Origin',(6.25,-25.5116666666667,-21.7));
#1115=CARTESIAN_POINT('',(6.25,-26.5116666666667,-22.7));
#1116=CARTESIAN_POINT('Origin',(12.5,-34.5116666666667,-22.7));
#1117=CARTESIAN_POINT('',(12.5,-34.5116666666667,-22.7));
#1118=CARTESIAN_POINT('',(-12.5,-34.5116666666667,-22.7));
#1119=CARTESIAN_POINT('Origin',(12.5,-34.5116666666667,-12.5));
#1120=CARTESIAN_POINT('',(22.7,-34.5116666666667,-12.5));
#1121=CARTESIAN_POINT('Origin',(22.7,-34.5116666666667,12.5));
#1122=CARTESIAN_POINT('',(22.7,-34.5116666666667,12.5));
#1123=CARTESIAN_POINT('Origin',(12.5,-34.5116666666667,12.5));
#1124=CARTESIAN_POINT('',(12.5,-34.5116666666667,22.7));
#1125=CARTESIAN_POINT('Origin',(-22.7,-34.5116666666667,-12.4999999999999));
#1126=CARTESIAN_POINT('',(-22.7,-34.5116666666667,-12.4999999999999));
#1127=CARTESIAN_POINT('',(-22.7,-34.5116666666667,12.5));
#1128=CARTESIAN_POINT('Origin',(-12.5,-34.5116666666667,-12.5));
#1129=CARTESIAN_POINT('Origin',(-12.5,-34.5116666666667,22.7));
#1130=CARTESIAN_POINT('',(-12.5,-34.5116666666667,22.7));
#1131=CARTESIAN_POINT('Origin',(-12.5,-34.5116666666667,12.5));
#1132=UNCERTAINTY_MEASURE_WITH_UNIT(LENGTH_MEASURE(0.01),#1136,
'DISTANCE_ACCURACY_VALUE',
'Maximum model space distance between geometric entities at asserted c
onnectivities');
#1133=UNCERTAINTY_MEASURE_WITH_UNIT(LENGTH_MEASURE(0.01),#1136,
'DISTANCE_ACCURACY_VALUE',
'Maximum model space distance between geometric entities at asserted c
onnectivities');
#1134=(
GEOMETRIC_REPRESENTATION_CONTEXT(3)
GLOBAL_UNCERTAINTY_ASSIGNED_CONTEXT((#1132))
GLOBAL_UNIT_ASSIGNED_CONTEXT((#1136,#1138,#1139))
REPRESENTATION_CONTEXT('','3D')
);
#1135=(
GEOMETRIC_REPRESENTATION_CONTEXT(3)
GLOBAL_UNCERTAINTY_ASSIGNED_CONTEXT((#1133))
GLOBAL_UNIT_ASSIGNED_CONTEXT((#1136,#1138,#1139))
REPRESENTATION_CONTEXT('','3D')
);
#1136=(
LENGTH_UNIT()
NAMED_UNIT(*)
SI_UNIT(.MILLI.,.METRE.)
);
#1137=(
LENGTH_UNIT()
NAMED_UNIT(*)
SI_UNIT($,.METRE.)
);
#1138=(
NAMED_UNIT(*)
PLANE_ANGLE_UNIT()
SI_UNIT($,.RADIAN.)
);
#1139=(
NAMED_UNIT(*)
SI_UNIT($,.STERADIAN.)
SOLID_ANGLE_UNIT()
);
#1140=SHAPE_DEFINITION_REPRESENTATION(#1141,#1142);
#1141=PRODUCT_DEFINITION_SHAPE('',$,#1144);
#1142=SHAPE_REPRESENTATION('',(#668),#1134);
#1143=PRODUCT_DEFINITION_CONTEXT('part definition',#1148,'design');
#1144=PRODUCT_DEFINITION('2026-08-17-19-33-30-478','Sensor Bottom',#1145,
#1143);
#1145=PRODUCT_DEFINITION_FORMATION('',$,#1150);
#1146=PRODUCT_RELATED_PRODUCT_CATEGORY('Sensor Bottom','Sensor Bottom',
(#1150));
#1147=APPLICATION_PROTOCOL_DEFINITION('international standard',
'automotive_design',2009,#1148);
#1148=APPLICATION_CONTEXT(
'Core Data for Automotive Mechanical Design Process');
#1149=PRODUCT_CONTEXT('part definition',#1148,'mechanical');
#1150=PRODUCT('2026-08-17-19-33-30-478','Sensor Bottom',$,(#1149));
#1151=PRESENTATION_STYLE_ASSIGNMENT((#1153));
#1152=PRESENTATION_STYLE_ASSIGNMENT((#1154));
#1153=SURFACE_STYLE_USAGE(.BOTH.,#1155);
#1154=SURFACE_STYLE_USAGE(.BOTH.,#1156);
#1155=SURFACE_SIDE_STYLE('',(#1157));
#1156=SURFACE_SIDE_STYLE('',(#1158));
#1157=SURFACE_STYLE_FILL_AREA(#1159);
#1158=SURFACE_STYLE_FILL_AREA(#1160);
#1159=FILL_AREA_STYLE('Steel - Satin',(#1161));
#1160=FILL_AREA_STYLE('ABS (White)',(#1162));
#1161=FILL_AREA_STYLE_COLOUR('Steel - Satin',#1163);
#1162=FILL_AREA_STYLE_COLOUR('ABS (White)',#1164);
#1163=COLOUR_RGB('Steel - Satin',0.627450980392157,0.627450980392157,0.627450980392157);
#1164=COLOUR_RGB('ABS (White)',0.964705882352941,0.964705882352941,0.952941176470588);
ENDSEC;
END-ISO-10303-21;
